<svg width="616" height="440" viewBox="0 0 616 440" fill="none" xmlns="http://www.w3.org/2000/svg">
<g clip-path="url(#clip0_225_81)">
<rect width="616" height="440" rx="11" fill="#0B0513"/>
<path d="M128.705 198.46V189.94H136.565C138.085 189.94 139.385 189.64 140.465 189.04C141.585 188.44 142.445 187.6 143.045 186.52C143.645 185.4 143.945 184.12 143.945 182.68C143.945 181.16 143.645 179.86 143.045 178.78C142.445 177.66 141.585 176.82 140.465 176.26C139.385 175.66 138.085 175.36 136.565 175.36H128.705V166.84H136.085C139.805 166.84 142.985 167.46 145.625 168.7C148.305 169.94 150.345 171.7 151.745 173.98C153.185 176.26 153.905 179 153.905 182.2V183.16C153.905 186.28 153.185 189 151.745 191.32C150.345 193.6 148.305 195.36 145.625 196.6C142.985 197.84 139.805 198.46 136.085 198.46H128.705ZM120.065 211V166.84H129.905V211H120.065ZM159.837 211V178.12H167.457V192.22H167.277C167.277 187.58 168.257 184 170.217 181.48C172.217 178.96 175.097 177.7 178.857 177.7H180.117V185.98H177.717C175.077 185.98 173.037 186.7 171.597 188.14C170.157 189.54 169.437 191.58 169.437 194.26V211H159.837ZM200.935 212.14C198.055 212.14 195.495 211.7 193.255 210.82C191.015 209.9 189.115 208.66 187.555 207.1C186.035 205.54 184.875 203.76 184.075 201.76C183.275 199.72 182.875 197.58 182.875 195.34V193.96C182.875 191.68 183.275 189.52 184.075 187.48C184.915 185.4 186.115 183.58 187.675 182.02C189.275 180.46 191.195 179.24 193.435 178.36C195.675 177.44 198.175 176.98 200.935 176.98C203.775 176.98 206.295 177.44 208.495 178.36C210.735 179.24 212.635 180.46 214.195 182.02C215.755 183.58 216.955 185.4 217.795 187.48C218.635 189.52 219.055 191.68 219.055 193.96V195.34C219.055 197.58 218.655 199.72 217.855 201.76C217.055 203.76 215.875 205.54 214.315 207.1C212.795 208.66 210.915 209.9 208.675 210.82C206.435 211.7 203.855 212.14 200.935 212.14ZM200.935 204.04C202.815 204.04 204.375 203.64 205.615 202.84C206.855 202.04 207.795 200.92 208.435 199.48C209.115 198.04 209.455 196.44 209.455 194.68C209.455 192.8 209.115 191.16 208.435 189.76C207.755 188.32 206.775 187.18 205.495 186.34C204.255 185.5 202.735 185.08 200.935 185.08C199.175 185.08 197.655 185.5 196.375 186.34C195.095 187.18 194.115 188.32 193.435 189.76C192.795 191.16 192.475 192.8 192.475 194.68C192.475 196.44 192.795 198.04 193.435 199.48C194.075 200.92 195.035 202.04 196.315 202.84C197.595 203.64 199.135 204.04 200.935 204.04ZM238.715 224.08C237.115 224.08 235.475 224.02 233.795 223.9C232.115 223.78 230.575 223.62 229.175 223.42V215.32C230.575 215.52 232.115 215.68 233.795 215.8C235.515 215.96 237.075 216.04 238.475 216.04C241.075 216.04 243.175 215.74 244.775 215.14C246.415 214.54 247.615 213.62 248.375 212.38C249.135 211.18 249.515 209.62 249.515 207.7V201.16L251.255 197.32C251.175 200.24 250.595 202.74 249.515 204.82C248.475 206.9 247.015 208.5 245.135 209.62C243.255 210.7 241.015 211.24 238.415 211.24C236.175 211.24 234.135 210.84 232.295 210.04C230.495 209.2 228.955 208.04 227.675 206.56C226.395 205.08 225.415 203.36 224.735 201.4C224.055 199.4 223.715 197.24 223.715 194.92V193.54C223.715 191.22 224.075 189.06 224.795 187.06C225.515 185.06 226.555 183.32 227.915 181.84C229.275 180.36 230.895 179.22 232.775 178.42C234.655 177.58 236.735 177.16 239.015 177.16C241.655 177.16 243.935 177.74 245.855 178.9C247.815 180.06 249.355 181.76 250.475 184C251.595 186.24 252.195 188.94 252.275 192.1L250.955 192.46V178.12H258.575V207.1C258.575 211.14 257.855 214.4 256.415 216.88C254.975 219.36 252.775 221.18 249.815 222.34C246.895 223.5 243.195 224.08 238.715 224.08ZM241.415 203.14C242.895 203.14 244.235 202.82 245.435 202.18C246.635 201.5 247.575 200.54 248.255 199.3C248.975 198.06 249.335 196.56 249.335 194.8V193.06C249.335 191.34 248.955 189.9 248.195 188.74C247.475 187.54 246.515 186.64 245.315 186.04C244.115 185.4 242.835 185.08 241.475 185.08C239.875 185.08 238.455 185.46 237.215 186.22C235.975 186.98 235.015 188.04 234.335 189.4C233.655 190.76 233.315 192.36 233.315 194.2C233.315 196.08 233.655 197.7 234.335 199.06C235.055 200.38 236.015 201.4 237.215 202.12C238.455 202.8 239.855 203.14 241.415 203.14ZM266.888 211V178.12H274.508V192.22H274.328C274.328 187.58 275.308 184 277.268 181.48C279.268 178.96 282.148 177.7 285.908 177.7H287.168V185.98H284.768C282.128 185.98 280.088 186.7 278.648 188.14C277.208 189.54 276.488 191.58 276.488 194.26V211H266.888ZM311.767 211V201.28H310.147V190.72C310.147 189.04 309.747 187.78 308.947 186.94C308.147 186.1 306.867 185.68 305.107 185.68C304.227 185.68 303.067 185.7 301.627 185.74C300.187 185.78 298.707 185.84 297.187 185.92C295.667 186 294.287 186.08 293.047 186.16V178.06C293.967 177.98 295.047 177.9 296.287 177.82C297.527 177.74 298.807 177.68 300.127 177.64C301.447 177.6 302.687 177.58 303.847 177.58C307.207 177.58 310.027 178.06 312.307 179.02C314.627 179.98 316.387 181.44 317.587 183.4C318.787 185.32 319.387 187.8 319.387 190.84V211H311.767ZM301.267 211.84C298.907 211.84 296.827 211.42 295.027 210.58C293.267 209.74 291.887 208.54 290.887 206.98C289.887 205.38 289.387 203.48 289.387 201.28C289.387 198.88 290.007 196.92 291.247 195.4C292.487 193.84 294.227 192.7 296.467 191.98C298.707 191.22 301.287 190.84 304.207 190.84H311.227V196.18H304.147C302.467 196.18 301.167 196.6 300.247 197.44C299.367 198.24 298.927 199.34 298.927 200.74C298.927 202.06 299.367 203.14 300.247 203.98C301.167 204.78 302.467 205.18 304.147 205.18C305.227 205.18 306.187 205 307.027 204.64C307.907 204.24 308.627 203.58 309.187 202.66C309.747 201.74 310.067 200.46 310.147 198.82L312.427 201.22C312.227 203.5 311.667 205.42 310.747 206.98C309.867 208.54 308.627 209.74 307.027 210.58C305.467 211.42 303.547 211.84 301.267 211.84ZM327.532 211V178.12H335.152V192.28H334.612C334.612 188.92 335.032 186.12 335.872 183.88C336.712 181.64 337.972 179.96 339.652 178.84C341.332 177.68 343.392 177.1 345.832 177.1H346.252C348.732 177.1 350.792 177.68 352.432 178.84C354.112 179.96 355.372 181.64 356.212 183.88C357.092 186.12 357.532 188.92 357.532 192.28H355.192C355.192 188.92 355.612 186.12 356.452 183.88C357.332 181.64 358.612 179.96 360.292 178.84C361.972 177.68 364.032 177.1 366.472 177.1H366.892C369.372 177.1 371.452 177.68 373.132 178.84C374.852 179.96 376.152 181.64 377.032 183.88C377.912 186.12 378.352 188.92 378.352 192.28V211H368.752V191.74C368.752 189.94 368.272 188.48 367.312 187.36C366.392 186.24 365.072 185.68 363.352 185.68C361.632 185.68 360.272 186.26 359.272 187.42C358.272 188.54 357.772 190.04 357.772 191.92V211H348.112V191.74C348.112 189.94 347.632 188.48 346.672 187.36C345.752 186.24 344.452 185.68 342.772 185.68C341.012 185.68 339.632 186.26 338.632 187.42C337.632 188.54 337.132 190.04 337.132 191.92V211H327.532ZM386.536 211V178.12H394.156V192.28H393.616C393.616 188.92 394.036 186.12 394.876 183.88C395.716 181.64 396.976 179.96 398.656 178.84C400.336 177.68 402.396 177.1 404.836 177.1H405.256C407.736 177.1 409.796 177.68 411.436 178.84C413.116 179.96 414.376 181.64 415.216 183.88C416.096 186.12 416.536 188.92 416.536 192.28H414.196C414.196 188.92 414.616 186.12 415.456 183.88C416.336 181.64 417.616 179.96 419.296 178.84C420.976 177.68 423.036 177.1 425.476 177.1H425.896C428.376 177.1 430.456 177.68 432.136 178.84C433.856 179.96 435.156 181.64 436.036 183.88C436.916 186.12 437.356 188.92 437.356 192.28V211H427.756V191.74C427.756 189.94 427.276 188.48 426.316 187.36C425.396 186.24 424.076 185.68 422.356 185.68C420.636 185.68 419.276 186.26 418.276 187.42C417.276 188.54 416.776 190.04 416.776 191.92V211H407.116V191.74C407.116 189.94 406.636 188.48 405.676 187.36C404.756 186.24 403.456 185.68 401.776 185.68C400.016 185.68 398.636 186.26 397.636 187.42C396.636 188.54 396.136 190.04 396.136 191.92V211H386.536ZM460.6 212.14C457.8 212.14 455.32 211.66 453.16 210.7C451.04 209.74 449.26 208.46 447.82 206.86C446.42 205.22 445.34 203.4 444.58 201.4C443.86 199.36 443.5 197.28 443.5 195.16V193.96C443.5 191.76 443.86 189.66 444.58 187.66C445.34 185.62 446.42 183.8 447.82 182.2C449.22 180.6 450.96 179.34 453.04 178.42C455.16 177.46 457.56 176.98 460.24 176.98C463.76 176.98 466.72 177.78 469.12 179.38C471.56 180.94 473.42 183 474.7 185.56C475.98 188.08 476.62 190.84 476.62 193.84V197.08H447.52V191.62H470.8L467.68 194.14C467.68 192.18 467.4 190.5 466.84 189.1C466.28 187.7 465.44 186.64 464.32 185.92C463.24 185.16 461.88 184.78 460.24 184.78C458.56 184.78 457.14 185.16 455.98 185.92C454.82 186.68 453.94 187.8 453.34 189.28C452.74 190.72 452.44 192.5 452.44 194.62C452.44 196.58 452.72 198.3 453.28 199.78C453.84 201.22 454.72 202.34 455.92 203.14C457.12 203.94 458.68 204.34 460.6 204.34C462.36 204.34 463.8 204 464.92 203.32C466.04 202.64 466.8 201.8 467.2 200.8H476.02C475.54 203 474.6 204.96 473.2 206.68C471.8 208.4 470.04 209.74 467.92 210.7C465.8 211.66 463.36 212.14 460.6 212.14ZM482.982 211V178.12H490.602V192.22H490.422C490.422 187.58 491.402 184 493.362 181.48C495.362 178.96 498.242 177.7 502.002 177.7H503.262V185.98H500.862C498.222 185.98 496.182 186.7 494.742 188.14C493.302 189.54 492.582 191.58 492.582 194.26V211H482.982Z" fill="url(#paint0_linear_225_81)"/>
<path d="M181.601 272.46V263.94H189.461C190.981 263.94 192.281 263.64 193.361 263.04C194.481 262.44 195.341 261.6 195.941 260.52C196.541 259.4 196.841 258.12 196.841 256.68C196.841 255.16 196.541 253.86 195.941 252.78C195.341 251.66 194.481 250.82 193.361 250.26C192.281 249.66 190.981 249.36 189.461 249.36H181.601V240.84H188.981C192.701 240.84 195.881 241.46 198.521 242.7C201.201 243.94 203.241 245.7 204.641 247.98C206.081 250.26 206.801 253 206.801 256.2V257.16C206.801 260.28 206.081 263 204.641 265.32C203.241 267.6 201.201 269.36 198.521 270.6C195.881 271.84 192.701 272.46 188.981 272.46H181.601ZM172.961 285V240.84H182.801V285H172.961ZM228.05 286.14C225.17 286.14 222.61 285.7 220.37 284.82C218.13 283.9 216.23 282.66 214.67 281.1C213.15 279.54 211.99 277.76 211.19 275.76C210.39 273.72 209.99 271.58 209.99 269.34V267.96C209.99 265.68 210.39 263.52 211.19 261.48C212.03 259.4 213.23 257.58 214.79 256.02C216.39 254.46 218.31 253.24 220.55 252.36C222.79 251.44 225.29 250.98 228.05 250.98C230.89 250.98 233.41 251.44 235.61 252.36C237.85 253.24 239.75 254.46 241.31 256.02C242.87 257.58 244.07 259.4 244.91 261.48C245.75 263.52 246.17 265.68 246.17 267.96V269.34C246.17 271.58 245.77 273.72 244.97 275.76C244.17 277.76 242.99 279.54 241.43 281.1C239.91 282.66 238.03 283.9 235.79 284.82C233.55 285.7 230.97 286.14 228.05 286.14ZM228.05 278.04C229.93 278.04 231.49 277.64 232.73 276.84C233.97 276.04 234.91 274.92 235.55 273.48C236.23 272.04 236.57 270.44 236.57 268.68C236.57 266.8 236.23 265.16 235.55 263.76C234.87 262.32 233.89 261.18 232.61 260.34C231.37 259.5 229.85 259.08 228.05 259.08C226.29 259.08 224.77 259.5 223.49 260.34C222.21 261.18 221.23 262.32 220.55 263.76C219.91 265.16 219.59 266.8 219.59 268.68C219.59 270.44 219.91 272.04 220.55 273.48C221.19 274.92 222.15 276.04 223.43 276.84C224.71 277.64 226.25 278.04 228.05 278.04ZM252.87 285V252.12H260.49V266.22H260.31C260.31 261.58 261.29 258 263.25 255.48C265.25 252.96 268.13 251.7 271.89 251.7H273.15V259.98H270.75C268.11 259.98 266.07 260.7 264.63 262.14C263.19 263.54 262.47 265.58 262.47 268.26V285H252.87ZM293.826 285.42C290.506 285.42 287.826 285.02 285.786 284.22C283.746 283.38 282.246 282 281.286 280.08C280.366 278.12 279.906 275.48 279.906 272.16V243.24H288.846V272.52C288.846 274.08 289.246 275.28 290.046 276.12C290.886 276.92 292.066 277.32 293.586 277.32H298.446V285.42H293.826ZM274.926 259.14V252.12H298.446V259.14H274.926ZM305.621 285V251.82C305.621 248.02 306.701 245.2 308.861 243.36C311.021 241.52 314.201 240.6 318.401 240.6H322.601V247.8H317.981C316.901 247.8 316.061 248.1 315.461 248.7C314.861 249.3 314.561 250.14 314.561 251.22V285H305.621ZM301.721 259.8V252.78H323.081V259.8H301.721ZM343.714 286.14C340.834 286.14 338.274 285.7 336.034 284.82C333.794 283.9 331.894 282.66 330.334 281.1C328.814 279.54 327.654 277.76 326.854 275.76C326.054 273.72 325.654 271.58 325.654 269.34V267.96C325.654 265.68 326.054 263.52 326.854 261.48C327.694 259.4 328.894 257.58 330.454 256.02C332.054 254.46 333.974 253.24 336.214 252.36C338.454 251.44 340.954 250.98 343.714 250.98C346.554 250.98 349.074 251.44 351.274 252.36C353.514 253.24 355.414 254.46 356.974 256.02C358.534 257.58 359.734 259.4 360.574 261.48C361.414 263.52 361.834 265.68 361.834 267.96V269.34C361.834 271.58 361.434 273.72 360.634 275.76C359.834 277.76 358.654 279.54 357.094 281.1C355.574 282.66 353.694 283.9 351.454 284.82C349.214 285.7 346.634 286.14 343.714 286.14ZM343.714 278.04C345.594 278.04 347.154 277.64 348.394 276.84C349.634 276.04 350.574 274.92 351.214 273.48C351.894 272.04 352.234 270.44 352.234 268.68C352.234 266.8 351.894 265.16 351.214 263.76C350.534 262.32 349.554 261.18 348.274 260.34C347.034 259.5 345.514 259.08 343.714 259.08C341.954 259.08 340.434 259.5 339.154 260.34C337.874 261.18 336.894 262.32 336.214 263.76C335.574 265.16 335.254 266.8 335.254 268.68C335.254 270.44 335.574 272.04 336.214 273.48C336.854 274.92 337.814 276.04 339.094 276.84C340.374 277.64 341.914 278.04 343.714 278.04ZM368.954 285V241.2H378.614V285H368.954ZM365.054 248.28V241.2H378.614V248.28H365.054ZM389.02 285V252.12H398.62V285H389.02ZM384.64 259.2V252.12H398.62V259.2H384.64ZM392.74 248.88C390.94 248.88 389.6 248.42 388.72 247.5C387.88 246.54 387.46 245.34 387.46 243.9C387.46 242.42 387.88 241.22 388.72 240.3C389.6 239.34 390.94 238.86 392.74 238.86C394.54 238.86 395.86 239.34 396.7 240.3C397.58 241.22 398.02 242.42 398.02 243.9C398.02 245.34 397.58 246.54 396.7 247.5C395.86 248.42 394.54 248.88 392.74 248.88ZM423.519 286.14C420.639 286.14 418.079 285.7 415.839 284.82C413.599 283.9 411.699 282.66 410.139 281.1C408.619 279.54 407.459 277.76 406.659 275.76C405.859 273.72 405.459 271.58 405.459 269.34V267.96C405.459 265.68 405.859 263.52 406.659 261.48C407.499 259.4 408.699 257.58 410.259 256.02C411.859 254.46 413.779 253.24 416.019 252.36C418.259 251.44 420.759 250.98 423.519 250.98C426.359 250.98 428.879 251.44 431.079 252.36C433.319 253.24 435.219 254.46 436.779 256.02C438.339 257.58 439.539 259.4 440.379 261.48C441.219 263.52 441.639 265.68 441.639 267.96V269.34C441.639 271.58 441.239 273.72 440.439 275.76C439.639 277.76 438.459 279.54 436.899 281.1C435.379 282.66 433.499 283.9 431.259 284.82C429.019 285.7 426.439 286.14 423.519 286.14ZM423.519 278.04C425.399 278.04 426.959 277.64 428.199 276.84C429.439 276.04 430.379 274.92 431.019 273.48C431.699 272.04 432.039 270.44 432.039 268.68C432.039 266.8 431.699 265.16 431.019 263.76C430.339 262.32 429.359 261.18 428.079 260.34C426.839 259.5 425.319 259.08 423.519 259.08C421.759 259.08 420.239 259.5 418.959 260.34C417.679 261.18 416.699 262.32 416.019 263.76C415.379 265.16 415.059 266.8 415.059 268.68C415.059 270.44 415.379 272.04 416.019 273.48C416.659 274.92 417.619 276.04 418.899 276.84C420.179 277.64 421.719 278.04 423.519 278.04Z" fill="#9E51EC"/>
<path d="M163.034 333V318.4H165.634L169.954 328.14H170.274L174.574 318.4H177.194V333H175.234V320.54L175.374 320.58L171.234 329.98H168.834L164.674 320.58L164.834 320.54V333H163.034ZM187.613 333V329.8H187.293V326.1C187.293 325.367 187.099 324.813 186.713 324.44C186.339 324.067 185.786 323.88 185.053 323.88C184.639 323.88 184.213 323.887 183.773 323.9C183.333 323.913 182.913 323.927 182.513 323.94C182.113 323.953 181.766 323.973 181.473 324V322.32C181.766 322.293 182.073 322.273 182.393 322.26C182.726 322.233 183.066 322.22 183.413 322.22C183.759 322.207 184.093 322.2 184.413 322.2C185.506 322.2 186.399 322.333 187.093 322.6C187.786 322.853 188.299 323.273 188.633 323.86C188.966 324.447 189.133 325.24 189.133 326.24V333H187.613ZM184.113 333.28C183.313 333.28 182.619 333.147 182.033 332.88C181.459 332.6 181.013 332.2 180.693 331.68C180.386 331.16 180.233 330.533 180.233 329.8C180.233 329.04 180.399 328.407 180.733 327.9C181.079 327.393 181.579 327.013 182.233 326.76C182.886 326.493 183.673 326.36 184.592 326.36H187.493V327.8H184.513C183.739 327.8 183.146 327.987 182.733 328.36C182.319 328.733 182.113 329.213 182.113 329.8C182.113 330.387 182.319 330.86 182.733 331.22C183.146 331.58 183.739 331.76 184.513 331.76C184.966 331.76 185.399 331.68 185.813 331.52C186.226 331.347 186.566 331.067 186.833 330.68C187.113 330.28 187.266 329.733 187.293 329.04L187.813 329.8C187.746 330.56 187.559 331.2 187.253 331.72C186.959 332.227 186.546 332.613 186.013 332.88C185.493 333.147 184.859 333.28 184.113 333.28ZM200.016 333L195.996 328.02H194.236L199.136 322.32H201.156L196.716 327.46L196.856 326.44L202.236 333H200.016ZM192.656 333V318.4H194.576V333H192.656ZM208.427 333.36C207.494 333.36 206.687 333.2 206.007 332.88C205.327 332.56 204.774 332.14 204.347 331.62C203.92 331.087 203.6 330.493 203.387 329.84C203.187 329.187 203.087 328.52 203.087 327.84V327.48C203.087 326.787 203.187 326.113 203.387 325.46C203.6 324.807 203.92 324.22 204.347 323.7C204.774 323.167 205.314 322.747 205.967 322.44C206.634 322.12 207.414 321.96 208.307 321.96C209.467 321.96 210.42 322.213 211.167 322.72C211.927 323.213 212.487 323.853 212.847 324.64C213.22 325.427 213.407 326.267 213.407 327.16V328.02H203.927V326.58H212.007L211.567 327.36C211.567 326.6 211.447 325.947 211.207 325.4C210.967 324.84 210.607 324.407 210.127 324.1C209.647 323.793 209.04 323.64 208.307 323.64C207.547 323.64 206.914 323.813 206.407 324.16C205.914 324.507 205.54 324.98 205.287 325.58C205.047 326.18 204.927 326.873 204.927 327.66C204.927 328.42 205.047 329.107 205.287 329.72C205.54 330.32 205.927 330.8 206.447 331.16C206.967 331.507 207.627 331.68 208.427 331.68C209.267 331.68 209.947 331.493 210.467 331.12C211 330.747 211.32 330.313 211.427 329.82H213.227C213.08 330.553 212.787 331.187 212.347 331.72C211.907 332.253 211.354 332.66 210.687 332.94C210.02 333.22 209.267 333.36 208.427 333.36ZM219.964 337.16V335.44H221.504C221.957 335.44 222.337 335.38 222.644 335.26C222.964 335.153 223.224 334.967 223.424 334.7C223.637 334.433 223.81 334.08 223.944 333.64L227.304 322.32H229.184L225.624 334.14C225.41 334.847 225.11 335.42 224.724 335.86C224.337 336.313 223.864 336.64 223.304 336.84C222.757 337.053 222.117 337.16 221.384 337.16H219.964ZM223.224 332.76V331.16H225.544V332.76H223.224ZM223.024 332.76L219.204 322.32H221.164L224.824 332.76H223.024ZM236.346 333.36C235.413 333.36 234.593 333.2 233.886 332.88C233.179 332.56 232.579 332.14 232.086 331.62C231.606 331.087 231.239 330.493 230.986 329.84C230.746 329.187 230.626 328.52 230.626 327.84V327.48C230.626 326.8 230.753 326.133 231.006 325.48C231.259 324.813 231.633 324.22 232.126 323.7C232.619 323.167 233.219 322.747 233.926 322.44C234.633 322.12 235.439 321.96 236.346 321.96C237.253 321.96 238.059 322.12 238.766 322.44C239.473 322.747 240.073 323.167 240.566 323.7C241.059 324.22 241.433 324.813 241.686 325.48C241.939 326.133 242.066 326.8 242.066 327.48V327.84C242.066 328.52 241.939 329.187 241.686 329.84C241.446 330.493 241.079 331.087 240.586 331.62C240.106 332.14 239.513 332.56 238.806 332.88C238.099 333.2 237.279 333.36 236.346 333.36ZM236.346 331.64C237.146 331.64 237.826 331.467 238.386 331.12C238.959 330.76 239.393 330.28 239.686 329.68C239.993 329.08 240.146 328.407 240.146 327.66C240.146 326.9 239.993 326.22 239.686 325.62C239.379 325.02 238.939 324.547 238.366 324.2C237.806 323.853 237.133 323.68 236.346 323.68C235.573 323.68 234.899 323.853 234.326 324.2C233.753 324.547 233.313 325.02 233.006 325.62C232.699 326.22 232.546 326.9 232.546 327.66C232.546 328.407 232.693 329.08 232.986 329.68C233.293 330.28 233.726 330.76 234.286 331.12C234.859 331.467 235.546 331.64 236.346 331.64ZM248.642 333.32C247.375 333.32 246.402 332.907 245.722 332.08C245.042 331.253 244.702 330.06 244.702 328.5V322.3H246.622V328.88C246.622 329.72 246.848 330.38 247.302 330.86C247.755 331.327 248.368 331.56 249.142 331.56C249.942 331.56 250.595 331.307 251.102 330.8C251.608 330.28 251.862 329.573 251.862 328.68V322.3H253.782V333H252.262V328.42H252.502C252.502 329.473 252.362 330.367 252.082 331.1C251.802 331.82 251.382 332.373 250.822 332.76C250.275 333.133 249.575 333.32 248.722 333.32H248.642ZM257.5 333V322.32H259.02V326.72H258.94C258.94 325.16 259.28 324.02 259.96 323.3C260.653 322.567 261.687 322.2 263.06 322.2H263.42V323.92H262.74C261.673 323.92 260.853 324.207 260.28 324.78C259.707 325.34 259.42 326.153 259.42 327.22V333H257.5ZM270.254 337V322.32H271.774V326.94L271.414 326.9C271.481 325.753 271.721 324.82 272.134 324.1C272.561 323.367 273.114 322.827 273.794 322.48C274.474 322.133 275.214 321.96 276.014 321.96C276.787 321.96 277.487 322.107 278.114 322.4C278.754 322.693 279.301 323.093 279.754 323.6C280.207 324.107 280.554 324.693 280.794 325.36C281.034 326.027 281.154 326.733 281.154 327.48V327.84C281.154 328.587 281.027 329.293 280.774 329.96C280.521 330.627 280.161 331.213 279.694 331.72C279.241 332.227 278.694 332.627 278.054 332.92C277.427 333.213 276.734 333.36 275.974 333.36C275.214 333.36 274.487 333.193 273.794 332.86C273.101 332.527 272.527 331.987 272.074 331.24C271.621 330.493 271.361 329.513 271.294 328.3L272.174 329.9V337H270.254ZM275.674 331.68C276.394 331.68 277.021 331.513 277.554 331.18C278.087 330.833 278.501 330.36 278.794 329.76C279.087 329.147 279.234 328.447 279.234 327.66C279.234 326.86 279.087 326.16 278.794 325.56C278.501 324.96 278.087 324.493 277.554 324.16C277.021 323.813 276.394 323.64 275.674 323.64C275.034 323.64 274.441 323.787 273.894 324.08C273.347 324.36 272.907 324.773 272.574 325.32C272.254 325.853 272.094 326.5 272.094 327.26V328.18C272.094 328.913 272.261 329.54 272.594 330.06C272.927 330.58 273.367 330.98 273.914 331.26C274.461 331.54 275.047 331.68 275.674 331.68ZM288.583 333.36C287.65 333.36 286.843 333.2 286.163 332.88C285.483 332.56 284.93 332.14 284.503 331.62C284.076 331.087 283.756 330.493 283.543 329.84C283.343 329.187 283.243 328.52 283.243 327.84V327.48C283.243 326.787 283.343 326.113 283.543 325.46C283.756 324.807 284.076 324.22 284.503 323.7C284.93 323.167 285.47 322.747 286.123 322.44C286.79 322.12 287.57 321.96 288.463 321.96C289.623 321.96 290.576 322.213 291.323 322.72C292.083 323.213 292.643 323.853 293.003 324.64C293.376 325.427 293.563 326.267 293.563 327.16V328.02H284.083V326.58H292.163L291.723 327.36C291.723 326.6 291.603 325.947 291.363 325.4C291.123 324.84 290.763 324.407 290.283 324.1C289.803 323.793 289.196 323.64 288.463 323.64C287.703 323.64 287.07 323.813 286.563 324.16C286.07 324.507 285.696 324.98 285.443 325.58C285.203 326.18 285.083 326.873 285.083 327.66C285.083 328.42 285.203 329.107 285.443 329.72C285.696 330.32 286.083 330.8 286.603 331.16C287.123 331.507 287.783 331.68 288.583 331.68C289.423 331.68 290.103 331.493 290.623 331.12C291.156 330.747 291.476 330.313 291.583 329.82H293.383C293.236 330.553 292.943 331.187 292.503 331.72C292.063 332.253 291.51 332.66 290.843 332.94C290.176 333.22 289.423 333.36 288.583 333.36ZM296.289 333V322.32H297.809V326.72H297.729C297.729 325.16 298.069 324.02 298.749 323.3C299.443 322.567 300.476 322.2 301.849 322.2H302.209V323.92H301.529C300.463 323.92 299.643 324.207 299.069 324.78C298.496 325.34 298.209 326.153 298.209 327.22V333H296.289ZM307.992 333.32C306.592 333.32 305.506 333.02 304.732 332.42C303.972 331.82 303.579 331 303.552 329.96H305.352C305.379 330.373 305.586 330.767 305.972 331.14C306.372 331.5 307.046 331.68 307.992 331.68C308.846 331.68 309.499 331.513 309.952 331.18C310.406 330.833 310.632 330.413 310.632 329.92C310.632 329.48 310.466 329.14 310.132 328.9C309.799 328.647 309.259 328.48 308.512 328.4L307.352 328.28C306.339 328.173 305.512 327.873 304.872 327.38C304.232 326.873 303.912 326.167 303.912 325.26C303.912 324.58 304.086 324 304.432 323.52C304.779 323.027 305.259 322.653 305.872 322.4C306.486 322.133 307.192 322 307.992 322C309.192 322 310.166 322.267 310.912 322.8C311.659 323.333 312.046 324.127 312.072 325.18H310.272C310.259 324.753 310.059 324.393 309.672 324.1C309.299 323.793 308.739 323.64 307.992 323.64C307.246 323.64 306.679 323.793 306.292 324.1C305.906 324.407 305.712 324.793 305.712 325.26C305.712 325.66 305.846 325.98 306.112 326.22C306.392 326.46 306.846 326.613 307.472 326.68L308.632 326.8C309.779 326.92 310.699 327.24 311.392 327.76C312.086 328.267 312.432 328.987 312.432 329.92C312.432 330.587 312.239 331.18 311.852 331.7C311.479 332.207 310.959 332.607 310.292 332.9C309.626 333.18 308.859 333.32 307.992 333.32ZM320.135 333.36C319.202 333.36 318.382 333.2 317.675 332.88C316.968 332.56 316.368 332.14 315.875 331.62C315.395 331.087 315.028 330.493 314.775 329.84C314.535 329.187 314.415 328.52 314.415 327.84V327.48C314.415 326.8 314.542 326.133 314.795 325.48C315.048 324.813 315.422 324.22 315.915 323.7C316.408 323.167 317.008 322.747 317.715 322.44C318.422 322.12 319.228 321.96 320.135 321.96C321.042 321.96 321.848 322.12 322.555 322.44C323.262 322.747 323.862 323.167 324.355 323.7C324.848 324.22 325.222 324.813 325.475 325.48C325.728 326.133 325.855 326.8 325.855 327.48V327.84C325.855 328.52 325.728 329.187 325.475 329.84C325.235 330.493 324.868 331.087 324.375 331.62C323.895 332.14 323.302 332.56 322.595 332.88C321.888 333.2 321.068 333.36 320.135 333.36ZM320.135 331.64C320.935 331.64 321.615 331.467 322.175 331.12C322.748 330.76 323.182 330.28 323.475 329.68C323.782 329.08 323.935 328.407 323.935 327.66C323.935 326.9 323.782 326.22 323.475 325.62C323.168 325.02 322.728 324.547 322.155 324.2C321.595 323.853 320.922 323.68 320.135 323.68C319.362 323.68 318.688 323.853 318.115 324.2C317.542 324.547 317.102 325.02 316.795 325.62C316.488 326.22 316.335 326.9 316.335 327.66C316.335 328.407 316.482 329.08 316.775 329.68C317.082 330.28 317.515 330.76 318.075 331.12C318.648 331.467 319.335 331.64 320.135 331.64ZM328.731 333V322.32H330.251V326.9H330.011C330.011 325.847 330.151 324.96 330.431 324.24C330.724 323.507 331.164 322.953 331.751 322.58C332.337 322.193 333.077 322 333.971 322H334.051C335.397 322 336.391 322.42 337.031 323.26C337.684 324.1 338.011 325.313 338.011 326.9V333H336.091V326.5C336.091 325.673 335.857 325.013 335.391 324.52C334.924 324.013 334.284 323.76 333.471 323.76C332.631 323.76 331.951 324.02 331.431 324.54C330.911 325.06 330.651 325.753 330.651 326.62V333H328.731ZM347.984 333V329.8H347.664V326.1C347.664 325.367 347.47 324.813 347.084 324.44C346.71 324.067 346.157 323.88 345.424 323.88C345.01 323.88 344.584 323.887 344.144 323.9C343.704 323.913 343.284 323.927 342.884 323.94C342.484 323.953 342.137 323.973 341.844 324V322.32C342.137 322.293 342.444 322.273 342.764 322.26C343.097 322.233 343.437 322.22 343.784 322.22C344.13 322.207 344.464 322.2 344.784 322.2C345.877 322.2 346.77 322.333 347.464 322.6C348.157 322.853 348.67 323.273 349.004 323.86C349.337 324.447 349.504 325.24 349.504 326.24V333H347.984ZM344.484 333.28C343.684 333.28 342.99 333.147 342.404 332.88C341.83 332.6 341.384 332.2 341.064 331.68C340.757 331.16 340.604 330.533 340.604 329.8C340.604 329.04 340.77 328.407 341.104 327.9C341.45 327.393 341.95 327.013 342.604 326.76C343.257 326.493 344.044 326.36 344.964 326.36H347.864V327.8H344.884C344.11 327.8 343.517 327.987 343.104 328.36C342.69 328.733 342.484 329.213 342.484 329.8C342.484 330.387 342.69 330.86 343.104 331.22C343.517 331.58 344.11 331.76 344.884 331.76C345.337 331.76 345.77 331.68 346.184 331.52C346.597 331.347 346.937 331.067 347.204 330.68C347.484 330.28 347.637 329.733 347.664 329.04L348.184 329.8C348.117 330.56 347.93 331.2 347.624 331.72C347.33 332.227 346.917 332.613 346.384 332.88C345.864 333.147 345.23 333.28 344.484 333.28ZM353.148 333V318.4H355.068V333H353.148ZM351.668 319.92V318.4H355.068V319.92H351.668ZM363.301 337V322.32H364.821V326.94L364.461 326.9C364.528 325.753 364.768 324.82 365.181 324.1C365.608 323.367 366.161 322.827 366.841 322.48C367.521 322.133 368.261 321.96 369.061 321.96C369.834 321.96 370.534 322.107 371.161 322.4C371.801 322.693 372.348 323.093 372.801 323.6C373.254 324.107 373.601 324.693 373.841 325.36C374.081 326.027 374.201 326.733 374.201 327.48V327.84C374.201 328.587 374.074 329.293 373.821 329.96C373.568 330.627 373.208 331.213 372.741 331.72C372.288 332.227 371.741 332.627 371.101 332.92C370.474 333.213 369.781 333.36 369.021 333.36C368.261 333.36 367.534 333.193 366.841 332.86C366.148 332.527 365.574 331.987 365.121 331.24C364.668 330.493 364.408 329.513 364.341 328.3L365.221 329.9V337H363.301ZM368.721 331.68C369.441 331.68 370.068 331.513 370.601 331.18C371.134 330.833 371.548 330.36 371.841 329.76C372.134 329.147 372.281 328.447 372.281 327.66C372.281 326.86 372.134 326.16 371.841 325.56C371.548 324.96 371.134 324.493 370.601 324.16C370.068 323.813 369.441 323.64 368.721 323.64C368.081 323.64 367.488 323.787 366.941 324.08C366.394 324.36 365.954 324.773 365.621 325.32C365.301 325.853 365.141 326.5 365.141 327.26V328.18C365.141 328.913 365.308 329.54 365.641 330.06C365.974 330.58 366.414 330.98 366.961 331.26C367.508 331.54 368.094 331.68 368.721 331.68ZM382.01 333.36C381.077 333.36 380.257 333.2 379.55 332.88C378.843 332.56 378.243 332.14 377.75 331.62C377.27 331.087 376.903 330.493 376.65 329.84C376.41 329.187 376.29 328.52 376.29 327.84V327.48C376.29 326.8 376.417 326.133 376.67 325.48C376.923 324.813 377.297 324.22 377.79 323.7C378.283 323.167 378.883 322.747 379.59 322.44C380.297 322.12 381.103 321.96 382.01 321.96C382.917 321.96 383.723 322.12 384.43 322.44C385.137 322.747 385.737 323.167 386.23 323.7C386.723 324.22 387.097 324.813 387.35 325.48C387.603 326.133 387.73 326.8 387.73 327.48V327.84C387.73 328.52 387.603 329.187 387.35 329.84C387.11 330.493 386.743 331.087 386.25 331.62C385.77 332.14 385.177 332.56 384.47 332.88C383.763 333.2 382.943 333.36 382.01 333.36ZM382.01 331.64C382.81 331.64 383.49 331.467 384.05 331.12C384.623 330.76 385.057 330.28 385.35 329.68C385.657 329.08 385.81 328.407 385.81 327.66C385.81 326.9 385.657 326.22 385.35 325.62C385.043 325.02 384.603 324.547 384.03 324.2C383.47 323.853 382.797 323.68 382.01 323.68C381.237 323.68 380.563 323.853 379.99 324.2C379.417 324.547 378.977 325.02 378.67 325.62C378.363 326.22 378.21 326.9 378.21 327.66C378.21 328.407 378.357 329.08 378.65 329.68C378.957 330.28 379.39 330.76 379.95 331.12C380.523 331.467 381.21 331.64 382.01 331.64ZM390.606 333V322.32H392.126V326.72H392.046C392.046 325.16 392.386 324.02 393.066 323.3C393.759 322.567 394.792 322.2 396.166 322.2H396.526V323.92H395.846C394.779 323.92 393.959 324.207 393.386 324.78C392.812 325.34 392.526 326.153 392.526 327.22V333H390.606ZM403.164 333.12C402.364 333.12 401.671 333.007 401.084 332.78C400.511 332.553 400.064 332.167 399.744 331.62C399.437 331.06 399.284 330.307 399.284 329.36V319.08H401.124V329.6C401.124 330.173 401.277 330.62 401.584 330.94C401.904 331.247 402.351 331.4 402.924 331.4H404.804V333.12H403.164ZM397.444 323.76V322.32H404.804V323.76H397.444ZM407.8 333V321.78C407.8 320.593 408.113 319.72 408.74 319.16C409.366 318.6 410.286 318.32 411.5 318.32H412.82V319.92H411.18C410.686 319.92 410.306 320.06 410.04 320.34C409.773 320.607 409.64 320.98 409.64 321.46V333H407.8ZM406.32 323.88V322.44H413.02V323.88H406.32ZM419.94 333.36C419.006 333.36 418.186 333.2 417.48 332.88C416.773 332.56 416.173 332.14 415.68 331.62C415.2 331.087 414.833 330.493 414.58 329.84C414.34 329.187 414.22 328.52 414.22 327.84V327.48C414.22 326.8 414.346 326.133 414.6 325.48C414.853 324.813 415.226 324.22 415.72 323.7C416.213 323.167 416.813 322.747 417.52 322.44C418.226 322.12 419.033 321.96 419.94 321.96C420.846 321.96 421.653 322.12 422.36 322.44C423.066 322.747 423.666 323.167 424.16 323.7C424.653 324.22 425.026 324.813 425.28 325.48C425.533 326.133 425.66 326.8 425.66 327.48V327.84C425.66 328.52 425.533 329.187 425.28 329.84C425.04 330.493 424.673 331.087 424.18 331.62C423.7 332.14 423.106 332.56 422.4 332.88C421.693 333.2 420.873 333.36 419.94 333.36ZM419.94 331.64C420.74 331.64 421.42 331.467 421.98 331.12C422.553 330.76 422.986 330.28 423.28 329.68C423.586 329.08 423.74 328.407 423.74 327.66C423.74 326.9 423.586 326.22 423.28 325.62C422.973 325.02 422.533 324.547 421.96 324.2C421.4 323.853 420.726 323.68 419.94 323.68C419.166 323.68 418.493 323.853 417.92 324.2C417.346 324.547 416.906 325.02 416.6 325.62C416.293 326.22 416.14 326.9 416.14 327.66C416.14 328.407 416.286 329.08 416.58 329.68C416.886 330.28 417.32 330.76 417.88 331.12C418.453 331.467 419.14 331.64 419.94 331.64ZM428.655 333V318.4H430.575V333H428.655ZM427.175 319.92V318.4H430.575V319.92H427.175ZM434.778 333V322.32H436.698V333H434.778ZM433.138 323.84V322.32H436.698V323.84H433.138ZM435.318 320.6C434.891 320.6 434.571 320.487 434.358 320.26C434.158 320.033 434.058 319.747 434.058 319.4C434.058 319.053 434.158 318.767 434.358 318.54C434.571 318.313 434.891 318.2 435.318 318.2C435.745 318.2 436.058 318.313 436.258 318.54C436.471 318.767 436.578 319.053 436.578 319.4C436.578 319.747 436.471 320.033 436.258 320.26C436.058 320.487 435.745 320.6 435.318 320.6ZM445.33 333.36C444.397 333.36 443.577 333.2 442.87 332.88C442.164 332.56 441.564 332.14 441.07 331.62C440.59 331.087 440.224 330.493 439.97 329.84C439.73 329.187 439.61 328.52 439.61 327.84V327.48C439.61 326.8 439.737 326.133 439.99 325.48C440.244 324.813 440.617 324.22 441.11 323.7C441.604 323.167 442.204 322.747 442.91 322.44C443.617 322.12 444.424 321.96 445.33 321.96C446.237 321.96 447.044 322.12 447.75 322.44C448.457 322.747 449.057 323.167 449.55 323.7C450.044 324.22 450.417 324.813 450.67 325.48C450.924 326.133 451.05 326.8 451.05 327.48V327.84C451.05 328.52 450.924 329.187 450.67 329.84C450.43 330.493 450.064 331.087 449.57 331.62C449.09 332.14 448.497 332.56 447.79 332.88C447.084 333.2 446.264 333.36 445.33 333.36ZM445.33 331.64C446.13 331.64 446.81 331.467 447.37 331.12C447.944 330.76 448.377 330.28 448.67 329.68C448.977 329.08 449.13 328.407 449.13 327.66C449.13 326.9 448.977 326.22 448.67 325.62C448.364 325.02 447.924 324.547 447.35 324.2C446.79 323.853 446.117 323.68 445.33 323.68C444.557 323.68 443.884 323.853 443.31 324.2C442.737 324.547 442.297 325.02 441.99 325.62C441.684 326.22 441.53 326.9 441.53 327.66C441.53 328.407 441.677 329.08 441.97 329.68C442.277 330.28 442.71 330.76 443.27 331.12C443.844 331.467 444.53 331.64 445.33 331.64Z" fill="#B8B7B7"/>
<g clip-path="url(#clip1_225_81)">
<path d="M344.56 117.979L326.439 100.624C325.876 100.084 324.879 100.084 324.315 100.624L320.387 104.386C319.8 104.948 319.8 105.859 320.387 106.421L333.517 118.995L320.388 131.572C319.801 132.134 319.801 133.045 320.388 133.607L324.316 137.369C324.598 137.639 324.98 137.791 325.378 137.791C325.776 137.791 326.159 137.639 326.441 137.369L344.56 120.015C345.146 119.452 345.146 118.541 344.56 117.979Z" fill="#F5E1FC"/>
<path d="M298.612 131.572L285.484 118.997L298.614 106.423C298.896 106.153 299.054 105.788 299.054 105.406C299.054 105.024 298.896 104.658 298.614 104.388L294.685 100.626C294.404 100.356 294.021 100.204 293.623 100.204C293.225 100.204 292.842 100.356 292.561 100.626L274.44 117.979C273.853 118.541 273.853 119.452 274.44 120.015L292.56 137.369C292.842 137.638 293.224 137.791 293.622 137.791C294.02 137.791 294.403 137.638 294.685 137.369L298.613 133.606C299.2 133.045 299.2 132.134 298.612 131.572Z" fill="#F5E1FC"/>
<path d="M319.804 94.7857C319.613 94.4504 319.292 94.2014 318.91 94.0935L315.725 93.1934C314.931 92.9674 314.094 93.4042 313.859 94.1662L299.075 142.119C298.962 142.485 299.005 142.879 299.196 143.213C299.386 143.549 299.708 143.798 300.09 143.906L303.274 144.806C303.416 144.847 303.56 144.866 303.7 144.866C304.349 144.866 304.947 144.46 305.141 143.834L319.925 95.8801C320.038 95.5139 319.995 95.1203 319.804 94.7857Z" fill="#F5E1FC"/>
</g>
<g filter="url(#filter0_f_225_81)">
<ellipse cx="21.5" cy="44.5" rx="95.5" ry="100.5" fill="#AE0CA8"/>
</g>
<g filter="url(#filter1_f_225_81)">
<ellipse cx="596.5" cy="-16.5" rx="87.5" ry="127.5" fill="#3A5960"/>
</g>
<g filter="url(#filter2_f_225_81)">
<ellipse cx="498.5" cy="440" rx="136.5" ry="120" fill="#6C43A2"/>
</g>
</g>
<defs>
<filter id="filter0_f_225_81" x="-324" y="-306" width="691" height="701" filterUnits="userSpaceOnUse" color-interpolation-filters="sRGB">
<feFlood flood-opacity="0" result="BackgroundImageFix"/>
<feBlend mode="normal" in="SourceGraphic" in2="BackgroundImageFix" result="shape"/>
<feGaussianBlur stdDeviation="125" result="effect1_foregroundBlur_225_81"/>
</filter>
<filter id="filter1_f_225_81" x="259" y="-394" width="675" height="755" filterUnits="userSpaceOnUse" color-interpolation-filters="sRGB">
<feFlood flood-opacity="0" result="BackgroundImageFix"/>
<feBlend mode="normal" in="SourceGraphic" in2="BackgroundImageFix" result="shape"/>
<feGaussianBlur stdDeviation="125" result="effect1_foregroundBlur_225_81"/>
</filter>
<filter id="filter2_f_225_81" x="112" y="70" width="773" height="740" filterUnits="userSpaceOnUse" color-interpolation-filters="sRGB">
<feFlood flood-opacity="0" result="BackgroundImageFix"/>
<feBlend mode="normal" in="SourceGraphic" in2="BackgroundImageFix" result="shape"/>
<feGaussianBlur stdDeviation="125" result="effect1_foregroundBlur_225_81"/>
</filter>
<linearGradient id="paint0_linear_225_81" x1="309.5" y1="153" x2="309.5" y2="235" gradientUnits="userSpaceOnUse">
<stop stop-color="white"/>
<stop offset="1" stop-color="#BEBEBE"/>
</linearGradient>
<clipPath id="clip0_225_81">
<rect width="616" height="440" rx="11" fill="white"/>
</clipPath>
<clipPath id="clip1_225_81">
<rect width="71" height="68" fill="white" transform="translate(274 85)"/>
</clipPath>
</defs>
</svg>
