<svg width="616" height="440" viewBox="0 0 616 440" fill="none" xmlns="http://www.w3.org/2000/svg">
<g clip-path="url(#clip0_221_7)">
<rect width="616" height="440" rx="11" fill="url(#paint0_linear_221_7)"/>
<g filter="url(#filter0_f_221_7)">
<ellipse cx="990.5" cy="38" rx="536.5" ry="86" fill="#E3B488"/>
</g>
<g filter="url(#filter1_f_221_7)">
<ellipse cx="24.5" cy="39" rx="94.5" ry="77" fill="#D161E3"/>
</g>
<g filter="url(#filter2_f_221_7)">
<path d="M565 522C565 629.143 450.161 716 308.5 716C166.839 716 52 629.143 52 522C52 414.857 166.839 328 308.5 328C450.161 328 565 414.857 565 522Z" fill="url(#paint1_linear_221_7)" fill-opacity="0.23"/>
</g>
<g filter="url(#filter3_b_221_7)">
<path d="M136.162 271V212.6H149.282V271H136.162ZM147.682 247.48V236.6H170.242V247.48H147.682ZM147.682 223.48V212.6H171.202V223.48H147.682ZM181.236 271V212.6H194.116V271H181.236ZM176.036 222.04V212.6H194.116V222.04H176.036ZM232.39 271V258.04H230.23V243.96C230.23 241.72 229.697 240.04 228.63 238.92C227.564 237.8 225.857 237.24 223.51 237.24C222.337 237.24 220.79 237.267 218.87 237.32C216.95 237.373 214.977 237.453 212.95 237.56C210.924 237.667 209.084 237.773 207.43 237.88V227.08C208.657 226.973 210.097 226.867 211.75 226.76C213.404 226.653 215.11 226.573 216.87 226.52C218.63 226.467 220.284 226.44 221.83 226.44C226.31 226.44 230.07 227.08 233.11 228.36C236.204 229.64 238.55 231.587 240.15 234.2C241.75 236.76 242.55 240.067 242.55 244.12V271H232.39ZM218.39 272.12C215.244 272.12 212.47 271.56 210.07 270.44C207.724 269.32 205.884 267.72 204.55 265.64C203.217 263.507 202.55 260.973 202.55 258.04C202.55 254.84 203.377 252.227 205.03 250.2C206.684 248.12 209.004 246.6 211.99 245.64C214.977 244.627 218.417 244.12 222.31 244.12H231.67V251.24H222.23C219.99 251.24 218.257 251.8 217.03 252.92C215.857 253.987 215.27 255.453 215.27 257.32C215.27 259.08 215.857 260.52 217.03 261.64C218.257 262.707 219.99 263.24 222.23 263.24C223.67 263.24 224.95 263 226.07 262.52C227.244 261.987 228.204 261.107 228.95 259.88C229.697 258.653 230.124 256.947 230.23 254.76L233.27 257.96C233.004 261 232.257 263.56 231.03 265.64C229.857 267.72 228.204 269.32 226.07 270.44C223.99 271.56 221.43 272.12 218.39 272.12ZM273.33 271.56C268.904 271.56 265.33 271.027 262.61 269.96C259.89 268.84 257.89 267 256.61 264.44C255.384 261.827 254.77 258.307 254.77 253.88V215.32H266.69V254.36C266.69 256.44 267.224 258.04 268.29 259.16C269.41 260.227 270.984 260.76 273.01 260.76H279.49V271.56H273.33ZM248.13 236.52V227.16H279.49V236.52H248.13ZM343.375 271V212.6H356.495V271H343.375ZM305.615 271V212.6H318.735V271H305.615ZM316.415 247.4V235.88H345.695V247.4H316.415ZM370.959 271V227.16H383.759V271H370.959ZM365.119 236.6V227.16H383.759V236.6H365.119ZM375.919 222.84C373.519 222.84 371.732 222.227 370.559 221C369.439 219.72 368.879 218.12 368.879 216.2C368.879 214.227 369.439 212.627 370.559 211.4C371.732 210.12 373.519 209.48 375.919 209.48C378.319 209.48 380.079 210.12 381.199 211.4C382.372 212.627 382.959 214.227 382.959 216.2C382.959 218.12 382.372 219.72 381.199 221C380.079 222.227 378.319 222.84 375.919 222.84ZM404.078 271L390.958 227.16H404.158L416.478 271H404.078ZM408.078 271V260.36H420.958V271H408.078ZM412.798 271L423.438 227.16H435.758L424.398 271H412.798ZM462.397 272.52C458.663 272.52 455.357 271.88 452.477 270.6C449.65 269.32 447.277 267.613 445.357 265.48C443.49 263.293 442.05 260.867 441.037 258.2C440.077 255.48 439.597 252.707 439.597 249.88V248.28C439.597 245.347 440.077 242.547 441.037 239.88C442.05 237.16 443.49 234.733 445.357 232.6C447.223 230.467 449.543 228.787 452.317 227.56C455.143 226.28 458.343 225.64 461.917 225.64C466.61 225.64 470.557 226.707 473.757 228.84C477.01 230.92 479.49 233.667 481.197 237.08C482.903 240.44 483.757 244.12 483.757 248.12V252.44H444.957V245.16H475.997L471.837 248.52C471.837 245.907 471.463 243.667 470.717 241.8C469.97 239.933 468.85 238.52 467.357 237.56C465.917 236.547 464.103 236.04 461.917 236.04C459.677 236.04 457.783 236.547 456.237 237.56C454.69 238.573 453.517 240.067 452.717 242.04C451.917 243.96 451.517 246.333 451.517 249.16C451.517 251.773 451.89 254.067 452.637 256.04C453.383 257.96 454.557 259.453 456.157 260.52C457.757 261.587 459.837 262.12 462.397 262.12C464.743 262.12 466.663 261.667 468.157 260.76C469.65 259.853 470.663 258.733 471.197 257.4H482.957C482.317 260.333 481.063 262.947 479.197 265.24C477.33 267.533 474.983 269.32 472.157 270.6C469.33 271.88 466.077 272.52 462.397 272.52Z" fill="url(#paint2_linear_221_7)"/>
</g>
<g filter="url(#filter4_f_221_7)">
<path d="M585 26C585 133.143 470.161 220 328.5 220C186.839 220 72 133.143 72 26C72 -81.1432 186.839 -168 328.5 -168C470.161 -168 585 -81.1432 585 26Z" fill="url(#paint3_linear_221_7)" fill-opacity="0.23"/>
</g>
<path d="M235.698 317V305.32H237.97V317H235.698ZM237.65 317V315H242.69V317H237.65ZM244.782 317V308.312H247.006V317H244.782ZM243.566 309.976V308.312H247.006V309.976H243.566ZM245.598 307.272C245.16 307.272 244.835 307.16 244.622 306.936C244.419 306.701 244.318 306.413 244.318 306.072C244.318 305.709 244.419 305.416 244.622 305.192C244.835 304.968 245.16 304.856 245.598 304.856C246.035 304.856 246.355 304.968 246.558 305.192C246.76 305.416 246.862 305.709 246.862 306.072C246.862 306.413 246.76 306.701 246.558 306.936C246.355 307.16 246.035 307.272 245.598 307.272ZM251.313 317L248.593 308.312H250.881L253.489 317H251.313ZM251.969 317V315.176H254.321V317H251.969ZM252.849 317L255.089 308.312H257.233L254.881 317H252.849ZM262.613 317.304C261.866 317.304 261.21 317.176 260.645 316.92C260.09 316.664 259.626 316.323 259.253 315.896C258.89 315.459 258.613 314.973 258.421 314.44C258.24 313.907 258.149 313.363 258.149 312.808V312.504C258.149 311.928 258.24 311.373 258.421 310.84C258.613 310.296 258.89 309.816 259.253 309.4C259.626 308.973 260.085 308.637 260.629 308.392C261.173 308.136 261.802 308.008 262.517 308.008C263.456 308.008 264.24 308.216 264.869 308.632C265.509 309.037 265.989 309.576 266.309 310.248C266.629 310.909 266.789 311.624 266.789 312.392V313.192H259.093V311.832H265.397L264.709 312.504C264.709 311.949 264.629 311.475 264.469 311.08C264.309 310.685 264.064 310.381 263.733 310.168C263.413 309.955 263.008 309.848 262.517 309.848C262.026 309.848 261.61 309.96 261.269 310.184C260.928 310.408 260.666 310.733 260.485 311.16C260.314 311.576 260.229 312.077 260.229 312.664C260.229 313.208 260.314 313.693 260.485 314.12C260.656 314.536 260.917 314.867 261.269 315.112C261.621 315.347 262.069 315.464 262.613 315.464C263.157 315.464 263.6 315.357 263.941 315.144C264.282 314.92 264.501 314.648 264.597 314.328H266.645C266.517 314.925 266.272 315.448 265.909 315.896C265.546 316.344 265.082 316.691 264.517 316.936C263.962 317.181 263.328 317.304 262.613 317.304ZM271.844 320.424V318.52H273.476C273.785 318.52 274.041 318.477 274.244 318.392C274.457 318.317 274.633 318.189 274.772 318.008C274.911 317.837 275.017 317.597 275.092 317.288L277.428 308.312H279.556L276.98 317.768C276.809 318.419 276.569 318.936 276.26 319.32C275.951 319.715 275.551 319.997 275.06 320.168C274.58 320.339 273.983 320.424 273.268 320.424H271.844ZM274.548 316.808V315.048H276.404V316.808H274.548ZM273.796 316.808L270.98 308.312H273.22L275.892 316.808H273.796ZM285.073 317.304C284.305 317.304 283.627 317.181 283.041 316.936C282.454 316.691 281.958 316.36 281.553 315.944C281.147 315.517 280.838 315.037 280.625 314.504C280.422 313.971 280.321 313.416 280.321 312.84V312.504C280.321 311.907 280.427 311.341 280.641 310.808C280.865 310.264 281.179 309.784 281.585 309.368C282.001 308.941 282.502 308.611 283.089 308.376C283.675 308.131 284.337 308.008 285.073 308.008C285.809 308.008 286.47 308.131 287.057 308.376C287.643 308.611 288.139 308.941 288.545 309.368C288.961 309.784 289.275 310.264 289.489 310.808C289.702 311.341 289.809 311.907 289.809 312.504V312.84C289.809 313.416 289.702 313.971 289.489 314.504C289.286 315.037 288.982 315.517 288.577 315.944C288.171 316.36 287.675 316.691 287.089 316.936C286.502 317.181 285.83 317.304 285.073 317.304ZM285.073 315.4C285.617 315.4 286.075 315.283 286.449 315.048C286.822 314.803 287.105 314.477 287.297 314.072C287.489 313.656 287.585 313.187 287.585 312.664C287.585 312.131 287.483 311.661 287.281 311.256C287.089 310.84 286.801 310.515 286.417 310.28C286.043 310.035 285.595 309.912 285.073 309.912C284.55 309.912 284.097 310.035 283.713 310.28C283.339 310.515 283.051 310.84 282.849 311.256C282.646 311.661 282.545 312.131 282.545 312.664C282.545 313.187 282.641 313.656 282.833 314.072C283.035 314.477 283.323 314.803 283.697 315.048C284.07 315.283 284.529 315.4 285.073 315.4ZM294.716 317.272C293.714 317.272 292.935 316.941 292.38 316.28C291.836 315.619 291.564 314.637 291.564 313.336V308.296H293.788V313.528C293.788 314.061 293.938 314.488 294.236 314.808C294.535 315.117 294.94 315.272 295.452 315.272C295.964 315.272 296.38 315.107 296.7 314.776C297.031 314.445 297.196 313.997 297.196 313.432V308.296H299.42V317H297.66V313.304H297.836C297.836 314.179 297.724 314.909 297.5 315.496C297.276 316.083 296.94 316.525 296.492 316.824C296.044 317.123 295.484 317.272 294.812 317.272H294.716ZM301.975 317V308.312H303.735V311.992H303.687C303.687 310.744 303.954 309.8 304.487 309.16C305.02 308.52 305.804 308.2 306.839 308.2H307.159V310.136H306.551C305.804 310.136 305.223 310.339 304.807 310.744C304.402 311.139 304.199 311.715 304.199 312.472V317H301.975ZM316.276 317.304C315.508 317.304 314.831 317.181 314.244 316.936C313.657 316.691 313.161 316.36 312.756 315.944C312.351 315.517 312.041 315.037 311.828 314.504C311.625 313.971 311.524 313.416 311.524 312.84V312.504C311.524 311.907 311.631 311.341 311.844 310.808C312.068 310.264 312.383 309.784 312.788 309.368C313.204 308.941 313.705 308.611 314.292 308.376C314.879 308.131 315.54 308.008 316.276 308.008C317.012 308.008 317.673 308.131 318.26 308.376C318.847 308.611 319.343 308.941 319.748 309.368C320.164 309.784 320.479 310.264 320.692 310.808C320.905 311.341 321.012 311.907 321.012 312.504V312.84C321.012 313.416 320.905 313.971 320.692 314.504C320.489 315.037 320.185 315.517 319.78 315.944C319.375 316.36 318.879 316.691 318.292 316.936C317.705 317.181 317.033 317.304 316.276 317.304ZM316.276 315.4C316.82 315.4 317.279 315.283 317.652 315.048C318.025 314.803 318.308 314.477 318.5 314.072C318.692 313.656 318.788 313.187 318.788 312.664C318.788 312.131 318.687 311.661 318.484 311.256C318.292 310.84 318.004 310.515 317.62 310.28C317.247 310.035 316.799 309.912 316.276 309.912C315.753 309.912 315.3 310.035 314.916 310.28C314.543 310.515 314.255 310.84 314.052 311.256C313.849 311.661 313.748 312.131 313.748 312.664C313.748 313.187 313.844 313.656 314.036 314.072C314.239 314.477 314.527 314.803 314.9 315.048C315.273 315.283 315.732 315.4 316.276 315.4ZM325.748 317L327.396 308.6H329.956L331.86 317H330.1L328.164 308.648H329.092L327.38 317H325.748ZM325.092 317L325.076 315.176H326.852V317H325.092ZM324.196 317L321.828 308.312H323.988L326.244 317H324.196ZM330.66 317V315.176H332.436L332.42 317H330.66ZM331.364 317L333.364 308.312H335.38L333.284 317H331.364ZM337.131 317V308.312H338.891V312.04H338.731C338.731 311.155 338.849 310.419 339.083 309.832C339.318 309.235 339.665 308.787 340.123 308.488C340.593 308.189 341.174 308.04 341.867 308.04H341.963C342.998 308.04 343.782 308.376 344.315 309.048C344.849 309.709 345.115 310.701 345.115 312.024V317H342.891V311.832C342.891 311.299 342.737 310.867 342.427 310.536C342.129 310.205 341.713 310.04 341.179 310.04C340.635 310.04 340.193 310.211 339.851 310.552C339.521 310.883 339.355 311.331 339.355 311.896V317H337.131ZM351.071 317V305.32H353.295V317H351.071ZM349.983 306.984V305.32H353.295V306.984H349.983ZM356.25 317V308.312H358.474V317H356.25ZM355.034 309.976V308.312H358.474V309.976H355.034ZM357.066 307.272C356.629 307.272 356.304 307.16 356.09 306.936C355.888 306.701 355.786 306.413 355.786 306.072C355.786 305.709 355.888 305.416 356.09 305.192C356.304 304.968 356.629 304.856 357.066 304.856C357.504 304.856 357.824 304.968 358.026 305.192C358.229 305.416 358.33 305.709 358.33 306.072C358.33 306.413 358.229 306.701 358.026 306.936C357.824 307.16 357.504 307.272 357.066 307.272ZM361.245 317V308.104C361.245 307.112 361.517 306.381 362.061 305.912C362.616 305.432 363.432 305.192 364.509 305.192H365.597V306.904H364.349C364.019 306.904 363.763 306.995 363.581 307.176C363.411 307.347 363.325 307.592 363.325 307.912V317H361.245ZM360.157 310.088V308.456H365.741V310.088H360.157ZM370.972 317.304C370.226 317.304 369.57 317.176 369.004 316.92C368.45 316.664 367.986 316.323 367.612 315.896C367.25 315.459 366.972 314.973 366.78 314.44C366.599 313.907 366.508 313.363 366.508 312.808V312.504C366.508 311.928 366.599 311.373 366.78 310.84C366.972 310.296 367.25 309.816 367.612 309.4C367.986 308.973 368.444 308.637 368.988 308.392C369.532 308.136 370.162 308.008 370.876 308.008C371.815 308.008 372.599 308.216 373.228 308.632C373.868 309.037 374.348 309.576 374.668 310.248C374.988 310.909 375.148 311.624 375.148 312.392V313.192H367.452V311.832H373.756L373.068 312.504C373.068 311.949 372.988 311.475 372.828 311.08C372.668 310.685 372.423 310.381 372.092 310.168C371.772 309.955 371.367 309.848 370.876 309.848C370.386 309.848 369.97 309.96 369.628 310.184C369.287 310.408 369.026 310.733 368.844 311.16C368.674 311.576 368.588 312.077 368.588 312.664C368.588 313.208 368.674 313.693 368.844 314.12C369.015 314.536 369.276 314.867 369.628 315.112C369.98 315.347 370.428 315.464 370.972 315.464C371.516 315.464 371.959 315.357 372.3 315.144C372.642 314.92 372.86 314.648 372.956 314.328H375.004C374.876 314.925 374.631 315.448 374.268 315.896C373.906 316.344 373.442 316.691 372.876 316.936C372.322 317.181 371.687 317.304 370.972 317.304Z" fill="white" fill-opacity="0.53"/>
<g filter="url(#filter5_d_221_7)">
<path d="M318.514 157.544H297.483V187.35H318.514V157.544Z" fill="#FEE187"/>
<path d="M307.999 133.591C314.253 133.591 319.323 128.429 319.323 122.062C319.323 115.694 314.253 110.532 307.999 110.532C301.745 110.532 296.675 115.694 296.675 122.062C296.675 128.429 301.745 133.591 307.999 133.591Z" fill="#FEE187"/>
<path d="M359.766 137.874H334.555V188.022H359.766V137.874Z" fill="#FEE187"/>
<path d="M281.446 137.874H256.235V188.022H281.446V137.874Z" fill="#FEE187"/>
<path d="M293.441 122.061C293.441 130.235 299.972 136.885 308 136.885C316.028 136.885 322.56 130.235 322.56 122.061C322.56 113.887 316.028 107.237 308 107.237C299.972 107.237 293.441 113.888 293.441 122.061ZM316.089 122.061C316.089 126.602 312.46 130.297 308 130.297C303.54 130.297 299.912 126.602 299.912 122.061C299.912 117.52 303.54 113.826 308 113.826C312.46 113.826 316.089 117.52 316.089 122.061Z" fill="#FFC61B"/>
<path d="M359.765 134.58H337.789V130.901C337.789 129.082 336.34 127.607 334.554 127.607C332.767 127.607 331.319 129.082 331.319 130.901V137.874V184.728H321.751V157.544C321.751 155.724 320.302 154.249 318.515 154.249H297.485C295.698 154.249 294.25 155.724 294.25 157.544V184.728H284.682V137.874V111.475C284.682 111.455 284.679 111.436 284.679 111.416L308 92.2148L344.477 122.247C345.076 122.74 345.795 122.98 346.51 122.98C347.453 122.98 348.388 122.562 349.027 121.757C350.151 120.343 349.935 118.268 348.546 117.124L310.034 85.4165C308.848 84.4393 307.152 84.4393 305.965 85.4165L267.454 117.124C266.065 118.268 265.849 120.342 266.972 121.757C268.096 123.172 270.133 123.391 271.523 122.247L278.21 116.741V134.579H256.235C254.449 134.579 253 136.054 253 137.874V188.022C253 189.841 254.449 191.316 256.235 191.316H359.764C361.551 191.316 363 189.841 363 188.022V137.874C363 136.055 361.552 134.58 359.765 134.58ZM300.72 160.838H315.28V184.057H300.72V160.838ZM259.471 141.168H278.211V184.728H259.471V141.168ZM356.529 184.728H337.789V141.168H356.529V184.728Z" fill="#FFC61B"/>
</g>
</g>
<defs>
<filter id="filter0_f_221_7" x="254" y="-248" width="1473" height="572" filterUnits="userSpaceOnUse" color-interpolation-filters="sRGB">
<feFlood flood-opacity="0" result="BackgroundImageFix"/>
<feBlend mode="normal" in="SourceGraphic" in2="BackgroundImageFix" result="shape"/>
<feGaussianBlur stdDeviation="100" result="effect1_foregroundBlur_221_7"/>
</filter>
<filter id="filter1_f_221_7" x="-320" y="-288" width="689" height="654" filterUnits="userSpaceOnUse" color-interpolation-filters="sRGB">
<feFlood flood-opacity="0" result="BackgroundImageFix"/>
<feBlend mode="normal" in="SourceGraphic" in2="BackgroundImageFix" result="shape"/>
<feGaussianBlur stdDeviation="125" result="effect1_foregroundBlur_221_7"/>
</filter>
<filter id="filter2_f_221_7" x="-209" y="67" width="1035" height="910" filterUnits="userSpaceOnUse" color-interpolation-filters="sRGB">
<feFlood flood-opacity="0" result="BackgroundImageFix"/>
<feBlend mode="normal" in="SourceGraphic" in2="BackgroundImageFix" result="shape"/>
<feGaussianBlur stdDeviation="130.5" result="effect1_foregroundBlur_221_7"/>
</filter>
<filter id="filter3_b_221_7" x="132.162" y="205.48" width="355.595" height="71.04" filterUnits="userSpaceOnUse" color-interpolation-filters="sRGB">
<feFlood flood-opacity="0" result="BackgroundImageFix"/>
<feGaussianBlur in="BackgroundImageFix" stdDeviation="2"/>
<feComposite in2="SourceAlpha" operator="in" result="effect1_backgroundBlur_221_7"/>
<feBlend mode="normal" in="SourceGraphic" in2="effect1_backgroundBlur_221_7" result="shape"/>
</filter>
<filter id="filter4_f_221_7" x="-189" y="-429" width="1035" height="910" filterUnits="userSpaceOnUse" color-interpolation-filters="sRGB">
<feFlood flood-opacity="0" result="BackgroundImageFix"/>
<feBlend mode="normal" in="SourceGraphic" in2="BackgroundImageFix" result="shape"/>
<feGaussianBlur stdDeviation="130.5" result="effect1_foregroundBlur_221_7"/>
</filter>
<filter id="filter5_d_221_7" x="213.4" y="46.4" width="189.2" height="191.2" filterUnits="userSpaceOnUse" color-interpolation-filters="sRGB">
<feFlood flood-opacity="0" result="BackgroundImageFix"/>
<feColorMatrix in="SourceAlpha" type="matrix" values="0 0 0 0 0 0 0 0 0 0 0 0 0 0 0 0 0 0 127 0" result="hardAlpha"/>
<feOffset dy="4"/>
<feGaussianBlur stdDeviation="19.8"/>
<feComposite in2="hardAlpha" operator="out"/>
<feColorMatrix type="matrix" values="0 0 0 0 0 0 0 0 0 0 0 0 0 0 0 0 0 0 0.25 0"/>
<feBlend mode="normal" in2="BackgroundImageFix" result="effect1_dropShadow_221_7"/>
<feBlend mode="normal" in="SourceGraphic" in2="effect1_dropShadow_221_7" result="shape"/>
</filter>
<linearGradient id="paint0_linear_221_7" x1="308" y1="0" x2="308" y2="440" gradientUnits="userSpaceOnUse">
<stop stop-color="#2B102E"/>
<stop offset="1" stop-color="#1F111D"/>
</linearGradient>
<linearGradient id="paint1_linear_221_7" x1="1195.94" y1="484.224" x2="79.1921" y2="1056.12" gradientUnits="userSpaceOnUse">
<stop stop-color="#C100D2"/>
<stop offset="1" stop-color="#580BFC"/>
</linearGradient>
<linearGradient id="paint2_linear_221_7" x1="308" y1="193" x2="308" y2="289" gradientUnits="userSpaceOnUse">
<stop stop-color="#FFFCFC"/>
<stop offset="1" stop-color="#939090"/>
</linearGradient>
<linearGradient id="paint3_linear_221_7" x1="1215.94" y1="-11.7756" x2="99.1921" y2="560.123" gradientUnits="userSpaceOnUse">
<stop stop-color="#E9CFEB"/>
<stop offset="1" stop-color="#A187D9"/>
</linearGradient>
<clipPath id="clip0_221_7">
<rect width="616" height="440" rx="11" fill="white"/>
</clipPath>
</defs>
</svg>
