<svg width="616" height="440" viewBox="0 0 616 440" fill="none" xmlns="http://www.w3.org/2000/svg">
<g clip-path="url(#clip0_223_9)">
<rect width="616" height="440" rx="11" fill="white"/>
<g filter="url(#filter0_f_223_9)">
<ellipse cx="11.5" cy="27.5" rx="125.5" ry="117.5" fill="#ED1DE5"/>
</g>
<path d="M151.611 278.24V269.06H159.771C161.811 269.06 163.651 268.76 165.291 268.16C166.931 267.52 168.331 266.64 169.491 265.52C170.651 264.36 171.531 262.98 172.131 261.38C172.731 259.74 173.031 257.94 173.031 255.98C173.031 253.94 172.731 252.12 172.131 250.52C171.531 248.92 170.651 247.56 169.491 246.44C168.331 245.32 166.931 244.48 165.291 243.92C163.651 243.32 161.811 243.02 159.771 243.02H151.611V233.84H159.231C163.191 233.84 166.651 234.42 169.611 235.58C172.571 236.74 175.051 238.32 177.051 240.32C179.051 242.32 180.531 244.62 181.491 247.22C182.491 249.78 182.991 252.48 182.991 255.32V256.64C182.991 259.28 182.491 261.9 181.491 264.5C180.531 267.06 179.051 269.38 177.051 271.46C175.051 273.5 172.571 275.14 169.611 276.38C166.651 277.62 163.191 278.24 159.231 278.24H151.611ZM142.971 278.24V233.84H152.811V278.24H142.971ZM209.166 278V268.28H207.546V257.72C207.546 256.04 207.146 254.78 206.346 253.94C205.546 253.1 204.266 252.68 202.506 252.68C201.626 252.68 200.466 252.7 199.026 252.74C197.586 252.78 196.106 252.84 194.586 252.92C193.066 253 191.686 253.08 190.446 253.16V245.06C191.366 244.98 192.446 244.9 193.686 244.82C194.926 244.74 196.206 244.68 197.526 244.64C198.846 244.6 200.086 244.58 201.246 244.58C204.606 244.58 207.426 245.06 209.706 246.02C212.026 246.98 213.786 248.44 214.986 250.4C216.186 252.32 216.786 254.8 216.786 257.84V278H209.166ZM198.666 278.84C196.306 278.84 194.226 278.42 192.426 277.58C190.666 276.74 189.286 275.54 188.286 273.98C187.286 272.38 186.786 270.48 186.786 268.28C186.786 265.88 187.406 263.92 188.646 262.4C189.886 260.84 191.626 259.7 193.866 258.98C196.106 258.22 198.686 257.84 201.606 257.84H208.626V263.18H201.546C199.866 263.18 198.566 263.6 197.646 264.44C196.766 265.24 196.326 266.34 196.326 267.74C196.326 269.06 196.766 270.14 197.646 270.98C198.566 271.78 199.866 272.18 201.546 272.18C202.626 272.18 203.586 272 204.426 271.64C205.306 271.24 206.026 270.58 206.586 269.66C207.146 268.74 207.466 267.46 207.546 265.82L209.826 268.22C209.626 270.5 209.066 272.42 208.146 273.98C207.266 275.54 206.026 276.74 204.426 277.58C202.866 278.42 200.946 278.84 198.666 278.84ZM237.411 279.02C232.731 279.02 229.071 278.06 226.431 276.14C223.791 274.22 222.391 271.52 222.231 268.04H230.751C230.911 269.08 231.531 270.02 232.611 270.86C233.731 271.66 235.391 272.06 237.591 272.06C239.271 272.06 240.651 271.78 241.731 271.22C242.851 270.62 243.411 269.78 243.411 268.7C243.411 267.74 242.991 266.98 242.151 266.42C241.311 265.82 239.811 265.4 237.651 265.16L235.071 264.92C231.111 264.52 228.131 263.42 226.131 261.62C224.171 259.82 223.191 257.52 223.191 254.72C223.191 252.4 223.771 250.46 224.931 248.9C226.091 247.34 227.691 246.16 229.731 245.36C231.811 244.56 234.171 244.16 236.811 244.16C241.051 244.16 244.471 245.1 247.071 246.98C249.671 248.82 251.031 251.5 251.151 255.02H242.631C242.471 253.94 241.911 253.04 240.951 252.32C239.991 251.56 238.571 251.18 236.691 251.18C235.211 251.18 234.031 251.46 233.151 252.02C232.271 252.58 231.831 253.34 231.831 254.3C231.831 255.22 232.211 255.92 232.971 256.4C233.731 256.88 234.971 257.22 236.691 257.42L239.271 257.66C243.311 258.1 246.451 259.22 248.691 261.02C250.931 262.82 252.051 265.24 252.051 268.28C252.051 270.48 251.451 272.4 250.251 274.04C249.051 275.64 247.351 276.88 245.151 277.76C242.951 278.6 240.371 279.02 237.411 279.02ZM258.271 278V234.2H267.871V259.46H266.431C266.431 256.14 266.851 253.34 267.691 251.06C268.531 248.78 269.771 247.06 271.411 245.9C273.051 244.7 275.111 244.1 277.591 244.1H278.011C281.651 244.1 284.431 245.4 286.351 248C288.271 250.56 289.231 254.32 289.231 259.28V278H279.631V258.68C279.631 256.88 279.091 255.44 278.011 254.36C276.971 253.24 275.591 252.68 273.871 252.68C272.071 252.68 270.611 253.26 269.491 254.42C268.411 255.58 267.871 257.12 267.871 259.04V278H258.271ZM317.631 279.08C314.951 279.08 312.591 278.52 310.551 277.4C308.511 276.24 306.911 274.58 305.751 272.42C304.591 270.26 303.971 267.62 303.891 264.5H305.031V278H297.411V234.2H307.011V256.46L304.731 259.34C304.851 256.02 305.471 253.24 306.591 251C307.751 248.72 309.331 247.02 311.331 245.9C313.331 244.74 315.611 244.16 318.171 244.16C320.411 244.16 322.431 244.58 324.231 245.42C326.071 246.22 327.631 247.38 328.911 248.9C330.191 250.38 331.171 252.14 331.851 254.18C332.571 256.22 332.931 258.44 332.931 260.84V262.16C332.931 264.56 332.571 266.78 331.851 268.82C331.171 270.86 330.151 272.66 328.791 274.22C327.471 275.74 325.871 276.94 323.991 277.82C322.111 278.66 319.991 279.08 317.631 279.08ZM315.111 271.04C316.751 271.04 318.171 270.64 319.371 269.84C320.611 269.04 321.571 267.92 322.251 266.48C322.931 265 323.271 263.34 323.271 261.5C323.271 259.62 322.931 257.98 322.251 256.58C321.571 255.18 320.611 254.1 319.371 253.34C318.171 252.54 316.751 252.14 315.111 252.14C313.671 252.14 312.311 252.48 311.031 253.16C309.751 253.84 308.711 254.82 307.911 256.1C307.151 257.34 306.771 258.86 306.771 260.66V262.88C306.771 264.6 307.171 266.08 307.971 267.32C308.811 268.52 309.871 269.44 311.151 270.08C312.431 270.72 313.751 271.04 315.111 271.04ZM355.619 279.14C352.739 279.14 350.179 278.7 347.939 277.82C345.699 276.9 343.799 275.66 342.239 274.1C340.719 272.54 339.559 270.76 338.759 268.76C337.959 266.72 337.559 264.58 337.559 262.34V260.96C337.559 258.68 337.959 256.52 338.759 254.48C339.599 252.4 340.799 250.58 342.359 249.02C343.959 247.46 345.879 246.24 348.119 245.36C350.359 244.44 352.859 243.98 355.619 243.98C358.459 243.98 360.979 244.44 363.179 245.36C365.419 246.24 367.319 247.46 368.879 249.02C370.439 250.58 371.639 252.4 372.479 254.48C373.319 256.52 373.739 258.68 373.739 260.96V262.34C373.739 264.58 373.339 266.72 372.539 268.76C371.739 270.76 370.559 272.54 368.999 274.1C367.479 275.66 365.599 276.9 363.359 277.82C361.119 278.7 358.539 279.14 355.619 279.14ZM355.619 271.04C357.499 271.04 359.059 270.64 360.299 269.84C361.539 269.04 362.479 267.92 363.119 266.48C363.799 265.04 364.139 263.44 364.139 261.68C364.139 259.8 363.799 258.16 363.119 256.76C362.439 255.32 361.459 254.18 360.179 253.34C358.939 252.5 357.419 252.08 355.619 252.08C353.859 252.08 352.339 252.5 351.059 253.34C349.779 254.18 348.799 255.32 348.119 256.76C347.479 258.16 347.159 259.8 347.159 261.68C347.159 263.44 347.479 265.04 348.119 266.48C348.759 267.92 349.719 269.04 350.999 269.84C352.279 270.64 353.819 271.04 355.619 271.04ZM400.299 278V268.28H398.679V257.72C398.679 256.04 398.279 254.78 397.479 253.94C396.679 253.1 395.399 252.68 393.639 252.68C392.759 252.68 391.599 252.7 390.159 252.74C388.719 252.78 387.239 252.84 385.719 252.92C384.199 253 382.819 253.08 381.579 253.16V245.06C382.499 244.98 383.579 244.9 384.819 244.82C386.059 244.74 387.339 244.68 388.659 244.64C389.979 244.6 391.219 244.58 392.379 244.58C395.739 244.58 398.559 245.06 400.839 246.02C403.159 246.98 404.919 248.44 406.119 250.4C407.319 252.32 407.919 254.8 407.919 257.84V278H400.299ZM389.799 278.84C387.439 278.84 385.359 278.42 383.559 277.58C381.799 276.74 380.419 275.54 379.419 273.98C378.419 272.38 377.919 270.48 377.919 268.28C377.919 265.88 378.539 263.92 379.779 262.4C381.019 260.84 382.759 259.7 384.999 258.98C387.239 258.22 389.819 257.84 392.739 257.84H399.759V263.18H392.679C390.999 263.18 389.699 263.6 388.779 264.44C387.899 265.24 387.459 266.34 387.459 267.74C387.459 269.06 387.899 270.14 388.779 270.98C389.699 271.78 390.999 272.18 392.679 272.18C393.759 272.18 394.719 272 395.559 271.64C396.439 271.24 397.159 270.58 397.719 269.66C398.279 268.74 398.599 267.46 398.679 265.82L400.959 268.22C400.759 270.5 400.199 272.42 399.279 273.98C398.399 275.54 397.159 276.74 395.559 277.58C393.999 278.42 392.079 278.84 389.799 278.84ZM416.064 278V245.12H423.684V259.22H423.504C423.504 254.58 424.484 251 426.444 248.48C428.444 245.96 431.324 244.7 435.084 244.7H436.344V252.98H433.944C431.304 252.98 429.264 253.7 427.824 255.14C426.384 256.54 425.664 258.58 425.664 261.26V278H416.064ZM454.702 279.08C452.382 279.08 450.262 278.66 448.342 277.82C446.462 276.98 444.822 275.82 443.422 274.34C442.022 272.82 440.942 271.04 440.182 269C439.462 266.96 439.102 264.76 439.102 262.4V261.02C439.102 258.66 439.442 256.46 440.122 254.42C440.842 252.38 441.862 250.6 443.182 249.08C444.542 247.52 446.162 246.32 448.042 245.48C449.922 244.6 452.022 244.16 454.342 244.16C456.982 244.16 459.262 244.74 461.182 245.9C463.102 247.02 464.602 248.7 465.682 250.94C466.762 253.14 467.362 255.86 467.482 259.1L464.962 256.76V234.2H474.622V278H467.002V264.38H468.322C468.202 267.5 467.542 270.16 466.342 272.36C465.182 274.56 463.602 276.24 461.602 277.4C459.602 278.52 457.302 279.08 454.702 279.08ZM457.102 271.04C458.582 271.04 459.922 270.72 461.122 270.08C462.362 269.4 463.342 268.42 464.062 267.14C464.822 265.86 465.202 264.32 465.202 262.52V260.3C465.202 258.54 464.822 257.06 464.062 255.86C463.302 254.66 462.302 253.74 461.062 253.1C459.822 252.46 458.482 252.14 457.042 252.14C455.442 252.14 454.002 252.56 452.722 253.4C451.482 254.2 450.502 255.32 449.782 256.76C449.062 258.16 448.702 259.8 448.702 261.68C448.702 263.6 449.062 265.26 449.782 266.66C450.502 268.06 451.502 269.14 452.782 269.9C454.062 270.66 455.502 271.04 457.102 271.04Z" fill="#AD04D7"/>
<path d="M189.978 306.024L186.73 299.78H188.158L190.902 305.128L190.37 304.974H192.022L191.462 305.128L194.038 299.78H195.382L192.33 306.024H189.978ZM190.482 310V305.744H191.826V310H190.482ZM199.591 310.252C198.938 310.252 198.364 310.14 197.869 309.916C197.375 309.692 196.955 309.398 196.609 309.034C196.273 308.661 196.017 308.245 195.839 307.788C195.671 307.331 195.587 306.864 195.587 306.388V306.136C195.587 305.66 195.676 305.193 195.853 304.736C196.031 304.269 196.292 303.854 196.637 303.49C196.983 303.117 197.403 302.823 197.897 302.608C198.392 302.384 198.957 302.272 199.591 302.272C200.226 302.272 200.791 302.384 201.285 302.608C201.78 302.823 202.2 303.117 202.545 303.49C202.891 303.854 203.152 304.269 203.329 304.736C203.507 305.193 203.595 305.66 203.595 306.136V306.388C203.595 306.864 203.507 307.331 203.329 307.788C203.161 308.245 202.905 308.661 202.559 309.034C202.223 309.398 201.808 309.692 201.313 309.916C200.819 310.14 200.245 310.252 199.591 310.252ZM199.591 309.048C200.151 309.048 200.627 308.927 201.019 308.684C201.421 308.432 201.724 308.096 201.929 307.676C202.144 307.256 202.251 306.785 202.251 306.262C202.251 305.73 202.144 305.254 201.929 304.834C201.715 304.414 201.407 304.083 201.005 303.84C200.613 303.597 200.142 303.476 199.591 303.476C199.05 303.476 198.579 303.597 198.177 303.84C197.776 304.083 197.468 304.414 197.253 304.834C197.039 305.254 196.931 305.73 196.931 306.262C196.931 306.785 197.034 307.256 197.239 307.676C197.454 308.096 197.757 308.432 198.149 308.684C198.551 308.927 199.031 309.048 199.591 309.048ZM208.198 310.224C207.312 310.224 206.63 309.935 206.154 309.356C205.678 308.777 205.44 307.942 205.44 306.85V302.51H206.784V307.116C206.784 307.704 206.943 308.166 207.26 308.502C207.578 308.829 208.007 308.992 208.548 308.992C209.108 308.992 209.566 308.815 209.92 308.46C210.275 308.096 210.452 307.601 210.452 306.976V302.51H211.796V310H210.732V306.794H210.9C210.9 307.531 210.802 308.157 210.606 308.67C210.41 309.174 210.116 309.561 209.724 309.832C209.342 310.093 208.852 310.224 208.254 310.224H208.198ZM220.791 310.252C220.147 310.252 219.587 310.14 219.111 309.916C218.644 309.692 218.257 309.393 217.949 309.02C217.641 308.637 217.408 308.217 217.249 307.76C217.1 307.303 217.025 306.845 217.025 306.388V306.136C217.025 305.66 217.1 305.193 217.249 304.736C217.408 304.279 217.641 303.868 217.949 303.504C218.266 303.131 218.658 302.832 219.125 302.608C219.592 302.384 220.138 302.272 220.763 302.272C221.388 302.272 221.948 302.389 222.443 302.622C222.947 302.855 223.348 303.187 223.647 303.616C223.955 304.036 224.128 304.535 224.165 305.114H222.877C222.812 304.647 222.597 304.26 222.233 303.952C221.869 303.635 221.379 303.476 220.763 303.476C220.231 303.476 219.788 303.597 219.433 303.84C219.078 304.083 218.812 304.414 218.635 304.834C218.458 305.254 218.369 305.73 218.369 306.262C218.369 306.775 218.458 307.247 218.635 307.676C218.812 308.096 219.078 308.432 219.433 308.684C219.797 308.927 220.25 309.048 220.791 309.048C221.211 309.048 221.575 308.973 221.883 308.824C222.191 308.675 222.438 308.474 222.625 308.222C222.812 307.97 222.924 307.685 222.961 307.368H224.249C224.221 307.956 224.048 308.465 223.731 308.894C223.423 309.323 223.012 309.659 222.499 309.902C221.995 310.135 221.426 310.252 220.791 310.252ZM230.597 310V307.76H230.373V305.17C230.373 304.657 230.238 304.269 229.967 304.008C229.706 303.747 229.318 303.616 228.805 303.616C228.516 303.616 228.217 303.621 227.909 303.63C227.601 303.639 227.307 303.649 227.027 303.658C226.747 303.667 226.504 303.681 226.299 303.7V302.524C226.504 302.505 226.719 302.491 226.943 302.482C227.176 302.463 227.414 302.454 227.657 302.454C227.9 302.445 228.133 302.44 228.357 302.44C229.122 302.44 229.748 302.533 230.233 302.72C230.718 302.897 231.078 303.191 231.311 303.602C231.544 304.013 231.661 304.568 231.661 305.268V310H230.597ZM228.147 310.196C227.587 310.196 227.102 310.103 226.691 309.916C226.29 309.72 225.977 309.44 225.753 309.076C225.538 308.712 225.431 308.273 225.431 307.76C225.431 307.228 225.548 306.785 225.781 306.43C226.024 306.075 226.374 305.809 226.831 305.632C227.288 305.445 227.839 305.352 228.483 305.352H230.513V306.36H228.427C227.886 306.36 227.47 306.491 227.181 306.752C226.892 307.013 226.747 307.349 226.747 307.76C226.747 308.171 226.892 308.502 227.181 308.754C227.47 309.006 227.886 309.132 228.427 309.132C228.744 309.132 229.048 309.076 229.337 308.964C229.626 308.843 229.864 308.647 230.051 308.376C230.247 308.096 230.354 307.713 230.373 307.228L230.737 307.76C230.69 308.292 230.56 308.74 230.345 309.104C230.14 309.459 229.85 309.729 229.477 309.916C229.113 310.103 228.67 310.196 228.147 310.196ZM234.128 310V302.524H235.192V305.73H235.024C235.024 304.993 235.122 304.372 235.318 303.868C235.523 303.355 235.831 302.967 236.242 302.706C236.653 302.435 237.171 302.3 237.796 302.3H237.852C238.795 302.3 239.49 302.594 239.938 303.182C240.395 303.77 240.624 304.619 240.624 305.73V310H239.28V305.45C239.28 304.871 239.117 304.409 238.79 304.064C238.463 303.709 238.015 303.532 237.446 303.532C236.858 303.532 236.382 303.714 236.018 304.078C235.654 304.442 235.472 304.927 235.472 305.534V310H234.128ZM246.268 310V302.524H247.332V305.73H247.164C247.164 305.002 247.258 304.386 247.444 303.882C247.64 303.369 247.93 302.977 248.312 302.706C248.695 302.435 249.18 302.3 249.768 302.3H249.824C250.412 302.3 250.898 302.435 251.28 302.706C251.672 302.977 251.962 303.369 252.148 303.882C252.335 304.386 252.428 305.002 252.428 305.73H252.036C252.036 305.002 252.134 304.386 252.33 303.882C252.526 303.369 252.816 302.977 253.198 302.706C253.59 302.435 254.08 302.3 254.668 302.3H254.724C255.312 302.3 255.802 302.435 256.194 302.706C256.586 302.977 256.876 303.369 257.062 303.882C257.258 304.386 257.356 305.002 257.356 305.73V310H256.012V305.436C256.012 304.829 255.863 304.363 255.564 304.036C255.266 303.7 254.85 303.532 254.318 303.532C253.768 303.532 253.324 303.709 252.988 304.064C252.652 304.409 252.484 304.895 252.484 305.52V310H251.14V305.436C251.14 304.829 250.991 304.363 250.692 304.036C250.394 303.7 249.978 303.532 249.446 303.532C248.896 303.532 248.452 303.709 248.116 304.064C247.78 304.409 247.612 304.895 247.612 305.52V310H246.268ZM264.339 310V307.76H264.115V305.17C264.115 304.657 263.98 304.269 263.709 304.008C263.448 303.747 263.061 303.616 262.547 303.616C262.258 303.616 261.959 303.621 261.651 303.63C261.343 303.639 261.049 303.649 260.769 303.658C260.489 303.667 260.247 303.681 260.041 303.7V302.524C260.247 302.505 260.461 302.491 260.685 302.482C260.919 302.463 261.157 302.454 261.399 302.454C261.642 302.445 261.875 302.44 262.099 302.44C262.865 302.44 263.49 302.533 263.975 302.72C264.461 302.897 264.82 303.191 265.053 303.602C265.287 304.013 265.403 304.568 265.403 305.268V310H264.339ZM261.889 310.196C261.329 310.196 260.844 310.103 260.433 309.916C260.032 309.72 259.719 309.44 259.495 309.076C259.281 308.712 259.173 308.273 259.173 307.76C259.173 307.228 259.29 306.785 259.523 306.43C259.766 306.075 260.116 305.809 260.573 305.632C261.031 305.445 261.581 305.352 262.225 305.352H264.255V306.36H262.169C261.628 306.36 261.213 306.491 260.923 306.752C260.634 307.013 260.489 307.349 260.489 307.76C260.489 308.171 260.634 308.502 260.923 308.754C261.213 309.006 261.628 309.132 262.169 309.132C262.487 309.132 262.79 309.076 263.079 308.964C263.369 308.843 263.607 308.647 263.793 308.376C263.989 308.096 264.097 307.713 264.115 307.228L264.479 307.76C264.433 308.292 264.302 308.74 264.087 309.104C263.882 309.459 263.593 309.729 263.219 309.916C262.855 310.103 262.412 310.196 261.889 310.196ZM267.87 310V302.524H268.934V305.73H268.766C268.766 304.993 268.864 304.372 269.06 303.868C269.265 303.355 269.573 302.967 269.984 302.706C270.395 302.435 270.913 302.3 271.538 302.3H271.594C272.537 302.3 273.232 302.594 273.68 303.182C274.137 303.77 274.366 304.619 274.366 305.73V310H273.022V305.45C273.022 304.871 272.859 304.409 272.532 304.064C272.205 303.709 271.757 303.532 271.188 303.532C270.6 303.532 270.124 303.714 269.76 304.078C269.396 304.442 269.214 304.927 269.214 305.534V310H267.87ZM281.347 310V307.76H281.123V305.17C281.123 304.657 280.988 304.269 280.717 304.008C280.456 303.747 280.068 303.616 279.555 303.616C279.266 303.616 278.967 303.621 278.659 303.63C278.351 303.639 278.057 303.649 277.777 303.658C277.497 303.667 277.254 303.681 277.049 303.7V302.524C277.254 302.505 277.469 302.491 277.693 302.482C277.926 302.463 278.164 302.454 278.407 302.454C278.65 302.445 278.883 302.44 279.107 302.44C279.872 302.44 280.498 302.533 280.983 302.72C281.468 302.897 281.828 303.191 282.061 303.602C282.294 304.013 282.411 304.568 282.411 305.268V310H281.347ZM278.897 310.196C278.337 310.196 277.852 310.103 277.441 309.916C277.04 309.72 276.727 309.44 276.503 309.076C276.288 308.712 276.181 308.273 276.181 307.76C276.181 307.228 276.298 306.785 276.531 306.43C276.774 306.075 277.124 305.809 277.581 305.632C278.038 305.445 278.589 305.352 279.233 305.352H281.263V306.36H279.177C278.636 306.36 278.22 306.491 277.931 306.752C277.642 307.013 277.497 307.349 277.497 307.76C277.497 308.171 277.642 308.502 277.931 308.754C278.22 309.006 278.636 309.132 279.177 309.132C279.494 309.132 279.798 309.076 280.087 308.964C280.376 308.843 280.614 308.647 280.801 308.376C280.997 308.096 281.104 307.713 281.123 307.228L281.487 307.76C281.44 308.292 281.31 308.74 281.095 309.104C280.89 309.459 280.6 309.729 280.227 309.916C279.863 310.103 279.42 310.196 278.897 310.196ZM287.706 312.912C287.361 312.912 287.011 312.898 286.656 312.87C286.311 312.842 285.979 312.805 285.662 312.758V311.624C285.998 311.671 286.348 311.708 286.712 311.736C287.085 311.773 287.435 311.792 287.762 311.792C288.443 311.792 288.985 311.699 289.386 311.512C289.797 311.335 290.091 311.05 290.268 310.658C290.455 310.275 290.548 309.781 290.548 309.174V307.746L290.996 306.682C290.968 307.438 290.809 308.068 290.52 308.572C290.231 309.067 289.853 309.44 289.386 309.692C288.929 309.935 288.42 310.056 287.86 310.056C287.337 310.056 286.857 309.958 286.418 309.762C285.989 309.557 285.615 309.277 285.298 308.922C284.99 308.567 284.747 308.161 284.57 307.704C284.402 307.237 284.318 306.747 284.318 306.234V305.982C284.318 305.459 284.407 304.974 284.584 304.526C284.761 304.069 285.009 303.672 285.326 303.336C285.643 303 286.021 302.739 286.46 302.552C286.908 302.365 287.398 302.272 287.93 302.272C288.555 302.272 289.106 302.407 289.582 302.678C290.058 302.939 290.431 303.327 290.702 303.84C290.982 304.344 291.136 304.965 291.164 305.702L290.772 305.716V302.524H291.836V309.118C291.836 310.014 291.696 310.737 291.416 311.288C291.145 311.848 290.707 312.259 290.1 312.52C289.503 312.781 288.705 312.912 287.706 312.912ZM288.112 308.824C288.56 308.824 288.966 308.726 289.33 308.53C289.703 308.334 289.997 308.054 290.212 307.69C290.436 307.317 290.548 306.873 290.548 306.36V305.716C290.548 305.212 290.431 304.787 290.198 304.442C289.974 304.097 289.68 303.835 289.316 303.658C288.952 303.481 288.555 303.392 288.126 303.392C287.641 303.392 287.211 303.504 286.838 303.728C286.465 303.952 286.175 304.269 285.97 304.68C285.765 305.081 285.662 305.557 285.662 306.108C285.662 306.659 285.765 307.139 285.97 307.55C286.185 307.961 286.474 308.278 286.838 308.502C287.211 308.717 287.636 308.824 288.112 308.824ZM297.503 310.252C296.85 310.252 296.285 310.14 295.809 309.916C295.333 309.692 294.946 309.398 294.647 309.034C294.348 308.661 294.124 308.245 293.975 307.788C293.835 307.331 293.765 306.864 293.765 306.388V306.136C293.765 305.651 293.835 305.179 293.975 304.722C294.124 304.265 294.348 303.854 294.647 303.49C294.946 303.117 295.324 302.823 295.781 302.608C296.248 302.384 296.794 302.272 297.419 302.272C298.231 302.272 298.898 302.449 299.421 302.804C299.953 303.149 300.345 303.597 300.597 304.148C300.858 304.699 300.989 305.287 300.989 305.912V306.514H294.353V305.506H300.009L299.701 306.052C299.701 305.52 299.617 305.063 299.449 304.68C299.281 304.288 299.029 303.985 298.693 303.77C298.357 303.555 297.932 303.448 297.419 303.448C296.887 303.448 296.444 303.569 296.089 303.812C295.744 304.055 295.482 304.386 295.305 304.806C295.137 305.226 295.053 305.711 295.053 306.262C295.053 306.794 295.137 307.275 295.305 307.704C295.482 308.124 295.753 308.46 296.117 308.712C296.481 308.955 296.943 309.076 297.503 309.076C298.091 309.076 298.567 308.945 298.931 308.684C299.304 308.423 299.528 308.119 299.603 307.774H300.863C300.76 308.287 300.555 308.731 300.247 309.104C299.939 309.477 299.552 309.762 299.085 309.958C298.618 310.154 298.091 310.252 297.503 310.252ZM305.579 312.912V311.708H306.657C306.974 311.708 307.24 311.666 307.455 311.582C307.679 311.507 307.861 311.377 308.001 311.19C308.15 311.003 308.272 310.756 308.365 310.448L310.717 302.524H312.033L309.541 310.798C309.392 311.293 309.182 311.694 308.911 312.002C308.64 312.319 308.309 312.548 307.917 312.688C307.534 312.837 307.086 312.912 306.573 312.912H305.579ZM307.861 309.832V308.712H309.485V309.832H307.861ZM307.721 309.832L305.047 302.524H306.419L308.981 309.832H307.721ZM317.046 310.252C316.393 310.252 315.819 310.14 315.324 309.916C314.83 309.692 314.41 309.398 314.064 309.034C313.728 308.661 313.472 308.245 313.294 307.788C313.126 307.331 313.042 306.864 313.042 306.388V306.136C313.042 305.66 313.131 305.193 313.308 304.736C313.486 304.269 313.747 303.854 314.092 303.49C314.438 303.117 314.858 302.823 315.352 302.608C315.847 302.384 316.412 302.272 317.046 302.272C317.681 302.272 318.246 302.384 318.74 302.608C319.235 302.823 319.655 303.117 320 303.49C320.346 303.854 320.607 304.269 320.784 304.736C320.962 305.193 321.05 305.66 321.05 306.136V306.388C321.05 306.864 320.962 307.331 320.784 307.788C320.616 308.245 320.36 308.661 320.014 309.034C319.678 309.398 319.263 309.692 318.768 309.916C318.274 310.14 317.7 310.252 317.046 310.252ZM317.046 309.048C317.606 309.048 318.082 308.927 318.474 308.684C318.876 308.432 319.179 308.096 319.384 307.676C319.599 307.256 319.706 306.785 319.706 306.262C319.706 305.73 319.599 305.254 319.384 304.834C319.17 304.414 318.862 304.083 318.46 303.84C318.068 303.597 317.597 303.476 317.046 303.476C316.505 303.476 316.034 303.597 315.632 303.84C315.231 304.083 314.923 304.414 314.708 304.834C314.494 305.254 314.386 305.73 314.386 306.262C314.386 306.785 314.489 307.256 314.694 307.676C314.909 308.096 315.212 308.432 315.604 308.684C316.006 308.927 316.486 309.048 317.046 309.048ZM325.653 310.224C324.767 310.224 324.085 309.935 323.609 309.356C323.133 308.777 322.895 307.942 322.895 306.85V302.51H324.239V307.116C324.239 307.704 324.398 308.166 324.715 308.502C325.033 308.829 325.462 308.992 326.003 308.992C326.563 308.992 327.021 308.815 327.375 308.46C327.73 308.096 327.907 307.601 327.907 306.976V302.51H329.251V310H328.187V306.794H328.355C328.355 307.531 328.257 308.157 328.061 308.67C327.865 309.174 327.571 309.561 327.179 309.832C326.797 310.093 326.307 310.224 325.709 310.224H325.653ZM331.854 310V302.524H332.918V305.604H332.862C332.862 304.512 333.1 303.714 333.576 303.21C334.062 302.697 334.785 302.44 335.746 302.44H335.998V303.644H335.522C334.776 303.644 334.202 303.845 333.8 304.246C333.399 304.638 333.198 305.207 333.198 305.954V310H331.854ZM344.226 310.252C343.573 310.252 342.999 310.14 342.504 309.916C342.009 309.692 341.589 309.398 341.244 309.034C340.908 308.661 340.651 308.245 340.474 307.788C340.306 307.331 340.222 306.864 340.222 306.388V306.136C340.222 305.66 340.311 305.193 340.488 304.736C340.665 304.269 340.927 303.854 341.272 303.49C341.617 303.117 342.037 302.823 342.532 302.608C343.027 302.384 343.591 302.272 344.226 302.272C344.861 302.272 345.425 302.384 345.92 302.608C346.415 302.823 346.835 303.117 347.18 303.49C347.525 303.854 347.787 304.269 347.964 304.736C348.141 305.193 348.23 305.66 348.23 306.136V306.388C348.23 306.864 348.141 307.331 347.964 307.788C347.796 308.245 347.539 308.661 347.194 309.034C346.858 309.398 346.443 309.692 345.948 309.916C345.453 310.14 344.879 310.252 344.226 310.252ZM344.226 309.048C344.786 309.048 345.262 308.927 345.654 308.684C346.055 308.432 346.359 308.096 346.564 307.676C346.779 307.256 346.886 306.785 346.886 306.262C346.886 305.73 346.779 305.254 346.564 304.834C346.349 304.414 346.041 304.083 345.64 303.84C345.248 303.597 344.777 303.476 344.226 303.476C343.685 303.476 343.213 303.597 342.812 303.84C342.411 304.083 342.103 304.414 341.888 304.834C341.673 305.254 341.566 305.73 341.566 306.262C341.566 306.785 341.669 307.256 341.874 307.676C342.089 308.096 342.392 308.432 342.784 308.684C343.185 308.927 343.666 309.048 344.226 309.048ZM352.29 310L353.802 302.776H355.622L357.386 310H356.238L354.474 302.804H354.922L353.396 310H352.29ZM351.604 310V308.936H353.158V310H351.604ZM351.296 310L349.182 302.524H350.47L352.528 310H351.296ZM356.518 310V308.936H358.072V310H356.518ZM357.148 310L358.94 302.524H360.158L358.324 310H357.148ZM361.974 310V302.524H363.038V305.73H362.87C362.87 304.993 362.968 304.372 363.164 303.868C363.369 303.355 363.677 302.967 364.088 302.706C364.498 302.435 365.016 302.3 365.642 302.3H365.698C366.64 302.3 367.336 302.594 367.784 303.182C368.241 303.77 368.47 304.619 368.47 305.73V310H367.126V305.45C367.126 304.871 366.962 304.409 366.636 304.064C366.309 303.709 365.861 303.532 365.292 303.532C364.704 303.532 364.228 303.714 363.864 304.078C363.5 304.442 363.318 304.927 363.318 305.534V310H361.974ZM374.114 312.8V302.524H375.178V305.758L374.926 305.73C374.973 304.927 375.141 304.274 375.43 303.77C375.729 303.257 376.116 302.879 376.592 302.636C377.068 302.393 377.586 302.272 378.146 302.272C378.688 302.272 379.178 302.375 379.616 302.58C380.064 302.785 380.447 303.065 380.764 303.42C381.082 303.775 381.324 304.185 381.492 304.652C381.66 305.119 381.744 305.613 381.744 306.136V306.388C381.744 306.911 381.656 307.405 381.478 307.872C381.301 308.339 381.049 308.749 380.722 309.104C380.405 309.459 380.022 309.739 379.574 309.944C379.136 310.149 378.65 310.252 378.118 310.252C377.586 310.252 377.078 310.135 376.592 309.902C376.107 309.669 375.706 309.291 375.388 308.768C375.071 308.245 374.889 307.559 374.842 306.71L375.458 307.83V312.8H374.114ZM377.908 309.076C378.412 309.076 378.851 308.959 379.224 308.726C379.598 308.483 379.887 308.152 380.092 307.732C380.298 307.303 380.4 306.813 380.4 306.262C380.4 305.702 380.298 305.212 380.092 304.792C379.887 304.372 379.598 304.045 379.224 303.812C378.851 303.569 378.412 303.448 377.908 303.448C377.46 303.448 377.045 303.551 376.662 303.756C376.28 303.952 375.972 304.241 375.738 304.624C375.514 304.997 375.402 305.45 375.402 305.982V306.626C375.402 307.139 375.519 307.578 375.752 307.942C375.986 308.306 376.294 308.586 376.676 308.782C377.059 308.978 377.47 309.076 377.908 309.076ZM383.767 310V302.524H384.831V305.604H384.775C384.775 304.512 385.013 303.714 385.489 303.21C385.974 302.697 386.697 302.44 387.659 302.44H387.911V303.644H387.435C386.688 303.644 386.114 303.845 385.713 304.246C385.311 304.638 385.111 305.207 385.111 305.954V310H383.767ZM392.871 310.252C392.217 310.252 391.643 310.14 391.149 309.916C390.654 309.692 390.234 309.398 389.889 309.034C389.553 308.661 389.296 308.245 389.119 307.788C388.951 307.331 388.867 306.864 388.867 306.388V306.136C388.867 305.66 388.955 305.193 389.133 304.736C389.31 304.269 389.571 303.854 389.917 303.49C390.262 303.117 390.682 302.823 391.177 302.608C391.671 302.384 392.236 302.272 392.871 302.272C393.505 302.272 394.07 302.384 394.565 302.608C395.059 302.823 395.479 303.117 395.825 303.49C396.17 303.854 396.431 304.269 396.609 304.736C396.786 305.193 396.875 305.66 396.875 306.136V306.388C396.875 306.864 396.786 307.331 396.609 307.788C396.441 308.245 396.184 308.661 395.839 309.034C395.503 309.398 395.087 309.692 394.593 309.916C394.098 310.14 393.524 310.252 392.871 310.252ZM392.871 309.048C393.431 309.048 393.907 308.927 394.299 308.684C394.7 308.432 395.003 308.096 395.209 307.676C395.423 307.256 395.531 306.785 395.531 306.262C395.531 305.73 395.423 305.254 395.209 304.834C394.994 304.414 394.686 304.083 394.285 303.84C393.893 303.597 393.421 303.476 392.871 303.476C392.329 303.476 391.858 303.597 391.457 303.84C391.055 304.083 390.747 304.414 390.533 304.834C390.318 305.254 390.211 305.73 390.211 306.262C390.211 306.785 390.313 307.256 390.519 307.676C390.733 308.096 391.037 308.432 391.429 308.684C391.83 308.927 392.311 309.048 392.871 309.048ZM402.01 310.252C401.478 310.252 400.988 310.154 400.54 309.958C400.092 309.762 399.7 309.487 399.364 309.132C399.037 308.777 398.78 308.367 398.594 307.9C398.416 307.433 398.328 306.929 398.328 306.388V306.136C398.328 305.604 398.416 305.105 398.594 304.638C398.771 304.171 399.018 303.761 399.336 303.406C399.662 303.051 400.045 302.776 400.484 302.58C400.932 302.375 401.426 302.272 401.968 302.272C402.537 302.272 403.055 302.393 403.522 302.636C403.988 302.869 404.371 303.238 404.67 303.742C404.968 304.246 405.136 304.899 405.174 305.702L404.614 304.806V299.78H405.958V310H404.894V306.682H405.286C405.248 307.531 405.071 308.222 404.754 308.754C404.436 309.277 404.035 309.659 403.55 309.902C403.074 310.135 402.56 310.252 402.01 310.252ZM402.192 309.076C402.649 309.076 403.064 308.973 403.438 308.768C403.811 308.563 404.11 308.269 404.334 307.886C404.558 307.494 404.67 307.037 404.67 306.514V305.87C404.67 305.357 404.553 304.923 404.32 304.568C404.096 304.204 403.792 303.929 403.41 303.742C403.036 303.546 402.626 303.448 402.178 303.448C401.683 303.448 401.244 303.565 400.862 303.798C400.488 304.031 400.194 304.358 399.98 304.778C399.774 305.198 399.672 305.693 399.672 306.262C399.672 306.831 399.779 307.331 399.994 307.76C400.208 308.18 400.507 308.507 400.89 308.74C401.272 308.964 401.706 309.076 402.192 309.076ZM411.13 310.224C410.243 310.224 409.562 309.935 409.086 309.356C408.61 308.777 408.372 307.942 408.372 306.85V302.51H409.716V307.116C409.716 307.704 409.875 308.166 410.192 308.502C410.509 308.829 410.939 308.992 411.48 308.992C412.04 308.992 412.497 308.815 412.852 308.46C413.207 308.096 413.384 307.601 413.384 306.976V302.51H414.728V310H413.664V306.794H413.832C413.832 307.531 413.734 308.157 413.538 308.67C413.342 309.174 413.048 309.561 412.656 309.832C412.273 310.093 411.783 310.224 411.186 310.224H411.13ZM420.537 310.252C419.893 310.252 419.333 310.14 418.857 309.916C418.39 309.692 418.003 309.393 417.695 309.02C417.387 308.637 417.154 308.217 416.995 307.76C416.846 307.303 416.771 306.845 416.771 306.388V306.136C416.771 305.66 416.846 305.193 416.995 304.736C417.154 304.279 417.387 303.868 417.695 303.504C418.012 303.131 418.404 302.832 418.871 302.608C419.338 302.384 419.884 302.272 420.509 302.272C421.134 302.272 421.694 302.389 422.189 302.622C422.693 302.855 423.094 303.187 423.393 303.616C423.701 304.036 423.874 304.535 423.911 305.114H422.623C422.558 304.647 422.343 304.26 421.979 303.952C421.615 303.635 421.125 303.476 420.509 303.476C419.977 303.476 419.534 303.597 419.179 303.84C418.824 304.083 418.558 304.414 418.381 304.834C418.204 305.254 418.115 305.73 418.115 306.262C418.115 306.775 418.204 307.247 418.381 307.676C418.558 308.096 418.824 308.432 419.179 308.684C419.543 308.927 419.996 309.048 420.537 309.048C420.957 309.048 421.321 308.973 421.629 308.824C421.937 308.675 422.184 308.474 422.371 308.222C422.558 307.97 422.67 307.685 422.707 307.368H423.995C423.967 307.956 423.794 308.465 423.477 308.894C423.169 309.323 422.758 309.659 422.245 309.902C421.741 310.135 421.172 310.252 420.537 310.252ZM428.733 310.084C428.173 310.084 427.688 310.005 427.277 309.846C426.876 309.687 426.563 309.417 426.339 309.034C426.125 308.642 426.017 308.115 426.017 307.452V300.256H427.305V307.62C427.305 308.021 427.413 308.334 427.627 308.558C427.851 308.773 428.164 308.88 428.565 308.88H429.881V310.084H428.733ZM424.729 303.532V302.524H429.881V303.532H424.729Z" fill="#535353"/>
<g filter="url(#filter1_f_223_9)">
<ellipse cx="578" cy="0.5" rx="132" ry="127.5" fill="#E31FC4" fill-opacity="0.71"/>
</g>
<g filter="url(#filter2_f_223_9)">
<path d="M809 665.5C809 828.976 688.565 961.5 540 961.5C391.435 961.5 271 828.976 271 665.5C271 502.024 391.435 369.5 540 369.5C688.565 369.5 809 502.024 809 665.5Z" fill="#6D0BEB"/>
</g>
<path d="M66.9732 200.595V194.205H72.8682C74.0082 194.205 74.9832 193.98 75.7932 193.53C76.6332 193.08 77.2782 192.45 77.7282 191.64C78.1782 190.8 78.4032 189.84 78.4032 188.76C78.4032 187.62 78.1782 186.645 77.7282 185.835C77.2782 184.995 76.6332 184.365 75.7932 183.945C74.9832 183.495 74.0082 183.27 72.8682 183.27H66.9732V176.88H72.5082C75.2982 176.88 77.6832 177.345 79.6632 178.275C81.6732 179.205 83.2032 180.525 84.2532 182.235C85.3332 183.945 85.8732 186 85.8732 188.4V189.12C85.8732 191.46 85.3332 193.5 84.2532 195.24C83.2032 196.95 81.6732 198.27 79.6632 199.2C77.6832 200.13 75.2982 200.595 72.5082 200.595H66.9732ZM60.4932 210V176.88H67.8732V210H60.4932ZM90.3226 210V185.34H96.0376V195.915H95.9026C95.9026 192.435 96.6376 189.75 98.1076 187.86C99.6076 185.97 101.768 185.025 104.588 185.025H105.533V191.235H103.733C101.753 191.235 100.223 191.775 99.1426 192.855C98.0626 193.905 97.5226 195.435 97.5226 197.445V210H90.3226ZM121.146 210.855C118.986 210.855 117.066 210.525 115.386 209.865C113.706 209.175 112.281 208.245 111.111 207.075C109.971 205.905 109.101 204.57 108.501 203.07C107.901 201.54 107.601 199.935 107.601 198.255V197.22C107.601 195.51 107.901 193.89 108.501 192.36C109.131 190.8 110.031 189.435 111.201 188.265C112.401 187.095 113.841 186.18 115.521 185.52C117.201 184.83 119.076 184.485 121.146 184.485C123.276 184.485 125.166 184.83 126.816 185.52C128.496 186.18 129.921 187.095 131.091 188.265C132.261 189.435 133.161 190.8 133.791 192.36C134.421 193.89 134.736 195.51 134.736 197.22V198.255C134.736 199.935 134.436 201.54 133.836 203.07C133.236 204.57 132.351 205.905 131.181 207.075C130.041 208.245 128.631 209.175 126.951 209.865C125.271 210.525 123.336 210.855 121.146 210.855ZM121.146 204.78C122.556 204.78 123.726 204.48 124.656 203.88C125.586 203.28 126.291 202.44 126.771 201.36C127.281 200.28 127.536 199.08 127.536 197.76C127.536 196.35 127.281 195.12 126.771 194.07C126.261 192.99 125.526 192.135 124.566 191.505C123.636 190.875 122.496 190.56 121.146 190.56C119.826 190.56 118.686 190.875 117.726 191.505C116.766 192.135 116.031 192.99 115.521 194.07C115.041 195.12 114.801 196.35 114.801 197.76C114.801 199.08 115.041 200.28 115.521 201.36C116.001 202.44 116.721 203.28 117.681 203.88C118.641 204.48 119.796 204.78 121.146 204.78ZM149.931 210.81C148.191 210.81 146.601 210.495 145.161 209.865C143.751 209.235 142.521 208.365 141.471 207.255C140.421 206.115 139.611 204.78 139.041 203.25C138.501 201.72 138.231 200.07 138.231 198.3V197.265C138.231 195.495 138.486 193.845 138.996 192.315C139.536 190.785 140.301 189.45 141.291 188.31C142.311 187.14 143.526 186.24 144.936 185.61C146.346 184.95 147.921 184.62 149.661 184.62C151.641 184.62 153.351 185.055 154.791 185.925C156.231 186.765 157.356 188.025 158.166 189.705C158.976 191.355 159.426 193.395 159.516 195.825L157.626 194.07V177.15H164.871V210H159.156V199.785H160.146C160.056 202.125 159.561 204.12 158.661 205.77C157.791 207.42 156.606 208.68 155.106 209.55C153.606 210.39 151.881 210.81 149.931 210.81ZM151.731 204.78C152.841 204.78 153.846 204.54 154.746 204.06C155.676 203.55 156.411 202.815 156.951 201.855C157.521 200.895 157.806 199.74 157.806 198.39V196.725C157.806 195.405 157.521 194.295 156.951 193.395C156.381 192.495 155.631 191.805 154.701 191.325C153.771 190.845 152.766 190.605 151.686 190.605C150.486 190.605 149.406 190.92 148.446 191.55C147.516 192.15 146.781 192.99 146.241 194.07C145.701 195.12 145.431 196.35 145.431 197.76C145.431 199.2 145.701 200.445 146.241 201.495C146.781 202.545 147.531 203.355 148.491 203.925C149.451 204.495 150.531 204.78 151.731 204.78ZM179.727 210.765C176.877 210.765 174.687 209.85 173.157 208.02C171.627 206.16 170.862 203.37 170.862 199.65V185.34H178.062V200.01C178.062 201.33 178.437 202.38 179.187 203.16C179.937 203.94 180.942 204.33 182.202 204.33C183.492 204.33 184.542 203.925 185.352 203.115C186.162 202.305 186.567 201.21 186.567 199.83V185.34H193.767V210H188.052V199.605H188.547C188.547 202.095 188.217 204.18 187.557 205.86C186.927 207.51 185.982 208.74 184.722 209.55C183.462 210.36 181.902 210.765 180.042 210.765H179.727ZM211.476 210.855C209.346 210.855 207.486 210.51 205.896 209.82C204.336 209.1 203.031 208.14 201.981 206.94C200.931 205.74 200.151 204.39 199.641 202.89C199.131 201.36 198.876 199.785 198.876 198.165V197.31C198.876 195.63 199.146 194.025 199.686 192.495C200.226 190.935 201.021 189.555 202.071 188.355C203.121 187.155 204.426 186.21 205.986 185.52C207.576 184.83 209.391 184.485 211.431 184.485C213.651 184.485 215.616 184.92 217.326 185.79C219.036 186.63 220.401 187.815 221.421 189.345C222.441 190.875 223.011 192.63 223.131 194.61H216.066C215.946 193.5 215.496 192.57 214.716 191.82C213.966 191.04 212.871 190.65 211.431 190.65C210.231 190.65 209.226 190.95 208.416 191.55C207.636 192.15 207.051 192.975 206.661 194.025C206.271 195.075 206.076 196.32 206.076 197.76C206.076 199.08 206.256 200.28 206.616 201.36C206.976 202.41 207.546 203.235 208.326 203.835C209.136 204.405 210.186 204.69 211.476 204.69C212.436 204.69 213.246 204.525 213.906 204.195C214.596 203.835 215.136 203.355 215.526 202.755C215.946 202.125 216.201 201.405 216.291 200.595H223.311C223.221 202.635 222.651 204.435 221.601 205.995C220.551 207.525 219.156 208.725 217.416 209.595C215.676 210.435 213.696 210.855 211.476 210.855ZM239.12 210.315C236.63 210.315 234.62 210.015 233.09 209.415C231.56 208.785 230.435 207.75 229.715 206.31C229.025 204.84 228.68 202.86 228.68 200.37V178.68H235.385V200.64C235.385 201.81 235.685 202.71 236.285 203.34C236.915 203.94 237.8 204.24 238.94 204.24H242.585V210.315H239.12ZM224.945 190.605V185.34H242.585V190.605H224.945ZM257.28 210V177.15H267.45L274.965 195.6H275.82L283.245 177.15H293.595V210H286.305V181.965L287.34 182.055L278.655 203.34H271.635L262.905 182.055L264.03 181.965V210H257.28ZM315.452 210V202.71H314.237V194.79C314.237 193.53 313.937 192.585 313.337 191.955C312.737 191.325 311.777 191.01 310.457 191.01C309.797 191.01 308.927 191.025 307.847 191.055C306.767 191.085 305.657 191.13 304.517 191.19C303.377 191.25 302.342 191.31 301.412 191.37V185.295C302.102 185.235 302.912 185.175 303.842 185.115C304.772 185.055 305.732 185.01 306.722 184.98C307.712 184.95 308.642 184.935 309.512 184.935C312.032 184.935 314.147 185.295 315.857 186.015C317.597 186.735 318.917 187.83 319.817 189.3C320.717 190.74 321.167 192.6 321.167 194.88V210H315.452ZM307.577 210.63C305.807 210.63 304.247 210.315 302.897 209.685C301.577 209.055 300.542 208.155 299.792 206.985C299.042 205.785 298.667 204.36 298.667 202.71C298.667 200.91 299.132 199.44 300.062 198.3C300.992 197.13 302.297 196.275 303.977 195.735C305.657 195.165 307.592 194.88 309.782 194.88H315.047V198.885H309.737C308.477 198.885 307.502 199.2 306.812 199.83C306.152 200.43 305.822 201.255 305.822 202.305C305.822 203.295 306.152 204.105 306.812 204.735C307.502 205.335 308.477 205.635 309.737 205.635C310.547 205.635 311.267 205.5 311.897 205.23C312.557 204.93 313.097 204.435 313.517 203.745C313.937 203.055 314.177 202.095 314.237 200.865L315.947 202.665C315.797 204.375 315.377 205.815 314.687 206.985C314.027 208.155 313.097 209.055 311.897 209.685C310.727 210.315 309.287 210.63 307.577 210.63ZM327.276 210V185.34H332.991V195.915H332.586C332.586 193.395 332.901 191.295 333.531 189.615C334.191 187.935 335.181 186.675 336.501 185.835C337.821 184.995 339.426 184.575 341.316 184.575H341.631C344.511 184.575 346.701 185.52 348.201 187.41C349.731 189.27 350.496 192.105 350.496 195.915V210H343.296V195.51C343.296 194.19 342.906 193.11 342.126 192.27C341.346 191.43 340.296 191.01 338.976 191.01C337.626 191.01 336.531 191.445 335.691 192.315C334.881 193.155 334.476 194.265 334.476 195.645V210H327.276ZM371.526 210V202.71H370.311V194.79C370.311 193.53 370.011 192.585 369.411 191.955C368.811 191.325 367.851 191.01 366.531 191.01C365.871 191.01 365.001 191.025 363.921 191.055C362.841 191.085 361.731 191.13 360.591 191.19C359.451 191.25 358.416 191.31 357.486 191.37V185.295C358.176 185.235 358.986 185.175 359.916 185.115C360.846 185.055 361.806 185.01 362.796 184.98C363.786 184.95 364.716 184.935 365.586 184.935C368.106 184.935 370.221 185.295 371.931 186.015C373.671 186.735 374.991 187.83 375.891 189.3C376.791 190.74 377.241 192.6 377.241 194.88V210H371.526ZM363.651 210.63C361.881 210.63 360.321 210.315 358.971 209.685C357.651 209.055 356.616 208.155 355.866 206.985C355.116 205.785 354.741 204.36 354.741 202.71C354.741 200.91 355.206 199.44 356.136 198.3C357.066 197.13 358.371 196.275 360.051 195.735C361.731 195.165 363.666 194.88 365.856 194.88H371.121V198.885H365.811C364.551 198.885 363.576 199.2 362.886 199.83C362.226 200.43 361.896 201.255 361.896 202.305C361.896 203.295 362.226 204.105 362.886 204.735C363.576 205.335 364.551 205.635 365.811 205.635C366.621 205.635 367.341 205.5 367.971 205.23C368.631 204.93 369.171 204.435 369.591 203.745C370.011 203.055 370.251 202.095 370.311 200.865L372.021 202.665C371.871 204.375 371.451 205.815 370.761 206.985C370.101 208.155 369.171 209.055 367.971 209.685C366.801 210.315 365.361 210.63 363.651 210.63ZM393.07 219.81C391.87 219.81 390.64 219.765 389.38 219.675C388.12 219.585 386.965 219.465 385.915 219.315V213.24C386.965 213.39 388.12 213.51 389.38 213.6C390.67 213.72 391.84 213.78 392.89 213.78C394.84 213.78 396.415 213.555 397.615 213.105C398.845 212.655 399.745 211.965 400.315 211.035C400.885 210.135 401.17 208.965 401.17 207.525V202.62L402.475 199.74C402.415 201.93 401.98 203.805 401.17 205.365C400.39 206.925 399.295 208.125 397.885 208.965C396.475 209.775 394.795 210.18 392.845 210.18C391.165 210.18 389.635 209.88 388.255 209.28C386.905 208.65 385.75 207.78 384.79 206.67C383.83 205.56 383.095 204.27 382.585 202.8C382.075 201.3 381.82 199.68 381.82 197.94V196.905C381.82 195.165 382.09 193.545 382.63 192.045C383.17 190.545 383.95 189.24 384.97 188.13C385.99 187.02 387.205 186.165 388.615 185.565C390.025 184.935 391.585 184.62 393.295 184.62C395.275 184.62 396.985 185.055 398.425 185.925C399.895 186.795 401.05 188.07 401.89 189.75C402.73 191.43 403.18 193.455 403.24 195.825L402.25 196.095V185.34H407.965V207.075C407.965 210.105 407.425 212.55 406.345 214.41C405.265 216.27 403.615 217.635 401.395 218.505C399.205 219.375 396.43 219.81 393.07 219.81ZM395.095 204.105C396.205 204.105 397.21 203.865 398.11 203.385C399.01 202.875 399.715 202.155 400.225 201.225C400.765 200.295 401.035 199.17 401.035 197.85V196.545C401.035 195.255 400.75 194.175 400.18 193.305C399.64 192.405 398.92 191.73 398.02 191.28C397.12 190.8 396.16 190.56 395.14 190.56C393.94 190.56 392.875 190.845 391.945 191.415C391.015 191.985 390.295 192.78 389.785 193.8C389.275 194.82 389.02 196.02 389.02 197.4C389.02 198.81 389.275 200.025 389.785 201.045C390.325 202.035 391.045 202.8 391.945 203.34C392.875 203.85 393.925 204.105 395.095 204.105ZM425.495 210.855C423.395 210.855 421.535 210.495 419.915 209.775C418.325 209.055 416.99 208.095 415.91 206.895C414.86 205.665 414.05 204.3 413.48 202.8C412.94 201.27 412.67 199.71 412.67 198.12V197.22C412.67 195.57 412.94 193.995 413.48 192.495C414.05 190.965 414.86 189.6 415.91 188.4C416.96 187.2 418.265 186.255 419.825 185.565C421.415 184.845 423.215 184.485 425.225 184.485C427.865 184.485 430.085 185.085 431.885 186.285C433.715 187.455 435.11 189 436.07 190.92C437.03 192.81 437.51 194.88 437.51 197.13V199.56H415.685V195.465H433.145L430.805 197.355C430.805 195.885 430.595 194.625 430.175 193.575C429.755 192.525 429.125 191.73 428.285 191.19C427.475 190.62 426.455 190.335 425.225 190.335C423.965 190.335 422.9 190.62 422.03 191.19C421.16 191.76 420.5 192.6 420.05 193.71C419.6 194.79 419.375 196.125 419.375 197.715C419.375 199.185 419.585 200.475 420.005 201.585C420.425 202.665 421.085 203.505 421.985 204.105C422.885 204.705 424.055 205.005 425.495 205.005C426.815 205.005 427.895 204.75 428.735 204.24C429.575 203.73 430.145 203.1 430.445 202.35H437.06C436.7 204 435.995 205.47 434.945 206.76C433.895 208.05 432.575 209.055 430.985 209.775C429.395 210.495 427.565 210.855 425.495 210.855ZM442.281 210V185.34H447.996V195.96H447.591C447.591 193.44 447.906 191.34 448.536 189.66C449.166 187.98 450.111 186.72 451.371 185.88C452.631 185.01 454.176 184.575 456.006 184.575H456.321C458.181 184.575 459.726 185.01 460.956 185.88C462.216 186.72 463.161 187.98 463.791 189.66C464.451 191.34 464.781 193.44 464.781 195.96H463.026C463.026 193.44 463.341 191.34 463.971 189.66C464.631 187.98 465.591 186.72 466.851 185.88C468.111 185.01 469.656 184.575 471.486 184.575H471.801C473.661 184.575 475.221 185.01 476.481 185.88C477.771 186.72 478.746 187.98 479.406 189.66C480.066 191.34 480.396 193.44 480.396 195.96V210H473.196V195.555C473.196 194.205 472.836 193.11 472.116 192.27C471.426 191.43 470.436 191.01 469.146 191.01C467.856 191.01 466.836 191.445 466.086 192.315C465.336 193.155 464.961 194.28 464.961 195.69V210H457.716V195.555C457.716 194.205 457.356 193.11 456.636 192.27C455.946 191.43 454.971 191.01 453.711 191.01C452.391 191.01 451.356 191.445 450.606 192.315C449.856 193.155 449.481 194.28 449.481 195.69V210H442.281ZM497.829 210.855C495.729 210.855 493.869 210.495 492.249 209.775C490.659 209.055 489.324 208.095 488.244 206.895C487.194 205.665 486.384 204.3 485.814 202.8C485.274 201.27 485.004 199.71 485.004 198.12V197.22C485.004 195.57 485.274 193.995 485.814 192.495C486.384 190.965 487.194 189.6 488.244 188.4C489.294 187.2 490.599 186.255 492.159 185.565C493.749 184.845 495.549 184.485 497.559 184.485C500.199 184.485 502.419 185.085 504.219 186.285C506.049 187.455 507.444 189 508.404 190.92C509.364 192.81 509.844 194.88 509.844 197.13V199.56H488.019V195.465H505.479L503.139 197.355C503.139 195.885 502.929 194.625 502.509 193.575C502.089 192.525 501.459 191.73 500.619 191.19C499.809 190.62 498.789 190.335 497.559 190.335C496.299 190.335 495.234 190.62 494.364 191.19C493.494 191.76 492.834 192.6 492.384 193.71C491.934 194.79 491.709 196.125 491.709 197.715C491.709 199.185 491.919 200.475 492.339 201.585C492.759 202.665 493.419 203.505 494.319 204.105C495.219 204.705 496.389 205.005 497.829 205.005C499.149 205.005 500.229 204.75 501.069 204.24C501.909 203.73 502.479 203.1 502.779 202.35H509.394C509.034 204 508.329 205.47 507.279 206.76C506.229 208.05 504.909 209.055 503.319 209.775C501.729 210.495 499.899 210.855 497.829 210.855ZM514.615 210V185.34H520.33V195.915H519.925C519.925 193.395 520.24 191.295 520.87 189.615C521.53 187.935 522.52 186.675 523.84 185.835C525.16 184.995 526.765 184.575 528.655 184.575H528.97C531.85 184.575 534.04 185.52 535.54 187.41C537.07 189.27 537.835 192.105 537.835 195.915V210H530.635V195.51C530.635 194.19 530.245 193.11 529.465 192.27C528.685 191.43 527.635 191.01 526.315 191.01C524.965 191.01 523.87 191.445 523.03 192.315C522.22 193.155 521.815 194.265 521.815 195.645V210H514.615ZM555.175 210.315C552.685 210.315 550.675 210.015 549.145 209.415C547.615 208.785 546.49 207.75 545.77 206.31C545.08 204.84 544.735 202.86 544.735 200.37V178.68H551.44V200.64C551.44 201.81 551.74 202.71 552.34 203.34C552.97 203.94 553.855 204.24 554.995 204.24H558.64V210.315H555.175ZM541 190.605V185.34H558.64V190.605H541Z" fill="url(#paint0_linear_223_9)"/>
<path d="M334 89L326.889 113.5H285.562M330.444 127.5H287.778L280.667 82H270M298.444 92.5L305.556 99.5L319.778 85.5M291.333 141.5C291.333 143.433 289.741 145 287.778 145C285.814 145 284.222 143.433 284.222 141.5C284.222 139.567 285.814 138 287.778 138C289.741 138 291.333 139.567 291.333 141.5ZM330.444 141.5C330.444 143.433 328.853 145 326.889 145C324.925 145 323.333 143.433 323.333 141.5C323.333 139.567 324.925 138 326.889 138C328.853 138 330.444 139.567 330.444 141.5Z" stroke="#616161" stroke-width="5" stroke-linecap="round" stroke-linejoin="round"/>
</g>
<defs>
<filter id="filter0_f_223_9" x="-364" y="-340" width="751" height="735" filterUnits="userSpaceOnUse" color-interpolation-filters="sRGB">
<feFlood flood-opacity="0" result="BackgroundImageFix"/>
<feBlend mode="normal" in="SourceGraphic" in2="BackgroundImageFix" result="shape"/>
<feGaussianBlur stdDeviation="125" result="effect1_foregroundBlur_223_9"/>
</filter>
<filter id="filter1_f_223_9" x="196" y="-377" width="764" height="755" filterUnits="userSpaceOnUse" color-interpolation-filters="sRGB">
<feFlood flood-opacity="0" result="BackgroundImageFix"/>
<feBlend mode="normal" in="SourceGraphic" in2="BackgroundImageFix" result="shape"/>
<feGaussianBlur stdDeviation="125" result="effect1_foregroundBlur_223_9"/>
</filter>
<filter id="filter2_f_223_9" x="21" y="119.5" width="1038" height="1092" filterUnits="userSpaceOnUse" color-interpolation-filters="sRGB">
<feFlood flood-opacity="0" result="BackgroundImageFix"/>
<feBlend mode="normal" in="SourceGraphic" in2="BackgroundImageFix" result="shape"/>
<feGaussianBlur stdDeviation="125" result="effect1_foregroundBlur_223_9"/>
</filter>
<linearGradient id="paint0_linear_223_9" x1="308.5" y1="166" x2="308.5" y2="219" gradientUnits="userSpaceOnUse">
<stop/>
<stop offset="1" stop-color="#4D4D4D"/>
</linearGradient>
<clipPath id="clip0_223_9">
<rect width="616" height="440" rx="11" fill="white"/>
</clipPath>
</defs>
</svg>
