<svg width="616" height="440" viewBox="0 0 616 440" fill="none" xmlns="http://www.w3.org/2000/svg">
<g clip-path="url(#clip0_225_97)">
<rect width="616" height="440" rx="11" fill="black"/>
<g filter="url(#filter0_f_225_97)">
<ellipse cx="308.5" cy="236" rx="118.5" ry="97" fill="#2D6A6D"/>
</g>
<path d="M157.992 210.37V200.43H167.162C168.935 200.43 170.452 200.08 171.712 199.38C173.019 198.68 174.022 197.7 174.722 196.44C175.422 195.133 175.772 193.64 175.772 191.96C175.772 190.187 175.422 188.67 174.722 187.41C174.022 186.103 173.019 185.123 171.712 184.47C170.452 183.77 168.935 183.42 167.162 183.42H157.992V173.48H166.602C170.942 173.48 174.652 174.203 177.732 175.65C180.859 177.097 183.239 179.15 184.872 181.81C186.552 184.47 187.392 187.667 187.392 191.4V192.52C187.392 196.16 186.552 199.333 184.872 202.04C183.239 204.7 180.859 206.753 177.732 208.2C174.652 209.647 170.942 210.37 166.602 210.37H157.992ZM147.912 225V173.48H159.392V225H147.912ZM194.313 225V186.64H203.203V203.09H202.993C202.993 197.677 204.136 193.5 206.423 190.56C208.756 187.62 212.116 186.15 216.503 186.15H217.973V195.81H215.173C212.093 195.81 209.713 196.65 208.033 198.33C206.353 199.963 205.513 202.343 205.513 205.47V225H194.313ZM242.261 226.33C238.901 226.33 235.914 225.817 233.301 224.79C230.688 223.717 228.471 222.27 226.651 220.45C224.878 218.63 223.524 216.553 222.591 214.22C221.658 211.84 221.191 209.343 221.191 206.73V205.12C221.191 202.46 221.658 199.94 222.591 197.56C223.571 195.133 224.971 193.01 226.791 191.19C228.658 189.37 230.898 187.947 233.511 186.92C236.124 185.847 239.041 185.31 242.261 185.31C245.574 185.31 248.514 185.847 251.081 186.92C253.694 187.947 255.911 189.37 257.731 191.19C259.551 193.01 260.951 195.133 261.931 197.56C262.911 199.94 263.401 202.46 263.401 205.12V206.73C263.401 209.343 262.934 211.84 262.001 214.22C261.068 216.553 259.691 218.63 257.871 220.45C256.098 222.27 253.904 223.717 251.291 224.79C248.678 225.817 245.668 226.33 242.261 226.33ZM242.261 216.88C244.454 216.88 246.274 216.413 247.721 215.48C249.168 214.547 250.264 213.24 251.011 211.56C251.804 209.88 252.201 208.013 252.201 205.96C252.201 203.767 251.804 201.853 251.011 200.22C250.218 198.54 249.074 197.21 247.581 196.23C246.134 195.25 244.361 194.76 242.261 194.76C240.208 194.76 238.434 195.25 236.941 196.23C235.448 197.21 234.304 198.54 233.511 200.22C232.764 201.853 232.391 203.767 232.391 205.96C232.391 208.013 232.764 209.88 233.511 211.56C234.258 213.24 235.378 214.547 236.871 215.48C238.364 216.413 240.161 216.88 242.261 216.88ZM286.337 240.26C284.471 240.26 282.557 240.19 280.597 240.05C278.637 239.91 276.841 239.723 275.207 239.49V230.04C276.841 230.273 278.637 230.46 280.597 230.6C282.604 230.787 284.424 230.88 286.057 230.88C289.091 230.88 291.541 230.53 293.407 229.83C295.321 229.13 296.721 228.057 297.607 226.61C298.494 225.21 298.937 223.39 298.937 221.15V213.52L300.967 209.04C300.874 212.447 300.197 215.363 298.937 217.79C297.724 220.217 296.021 222.083 293.827 223.39C291.634 224.65 289.021 225.28 285.987 225.28C283.374 225.28 280.994 224.813 278.847 223.88C276.747 222.9 274.951 221.547 273.457 219.82C271.964 218.093 270.821 216.087 270.027 213.8C269.234 211.467 268.837 208.947 268.837 206.24V204.63C268.837 201.923 269.257 199.403 270.097 197.07C270.937 194.737 272.151 192.707 273.737 190.98C275.324 189.253 277.214 187.923 279.407 186.99C281.601 186.01 284.027 185.52 286.687 185.52C289.767 185.52 292.427 186.197 294.667 187.55C296.954 188.903 298.751 190.887 300.057 193.5C301.364 196.113 302.064 199.263 302.157 202.95L300.617 203.37V186.64H309.507V220.45C309.507 225.163 308.667 228.967 306.987 231.86C305.307 234.753 302.741 236.877 299.287 238.23C295.881 239.583 291.564 240.26 286.337 240.26ZM289.487 215.83C291.214 215.83 292.777 215.457 294.177 214.71C295.577 213.917 296.674 212.797 297.467 211.35C298.307 209.903 298.727 208.153 298.727 206.1V204.07C298.727 202.063 298.284 200.383 297.397 199.03C296.557 197.63 295.437 196.58 294.037 195.88C292.637 195.133 291.144 194.76 289.557 194.76C287.691 194.76 286.034 195.203 284.587 196.09C283.141 196.977 282.021 198.213 281.227 199.8C280.434 201.387 280.037 203.253 280.037 205.4C280.037 207.593 280.434 209.483 281.227 211.07C282.067 212.61 283.187 213.8 284.587 214.64C286.034 215.433 287.667 215.83 289.487 215.83ZM319.206 225V186.64H328.096V203.09H327.886C327.886 197.677 329.029 193.5 331.316 190.56C333.649 187.62 337.009 186.15 341.396 186.15H342.866V195.81H340.066C336.986 195.81 334.606 196.65 332.926 198.33C331.246 199.963 330.406 202.343 330.406 205.47V225H319.206ZM366.034 226.33C362.767 226.33 359.874 225.77 357.354 224.65C354.88 223.53 352.804 222.037 351.124 220.17C349.49 218.257 348.23 216.133 347.344 213.8C346.504 211.42 346.084 208.993 346.084 206.52V205.12C346.084 202.553 346.504 200.103 347.344 197.77C348.23 195.39 349.49 193.267 351.124 191.4C352.757 189.533 354.787 188.063 357.214 186.99C359.687 185.87 362.487 185.31 365.614 185.31C369.72 185.31 373.174 186.243 375.974 188.11C378.82 189.93 380.99 192.333 382.484 195.32C383.977 198.26 384.724 201.48 384.724 204.98V208.76H350.774V202.39H377.934L374.294 205.33C374.294 203.043 373.967 201.083 373.314 199.45C372.66 197.817 371.68 196.58 370.374 195.74C369.114 194.853 367.527 194.41 365.614 194.41C363.654 194.41 361.997 194.853 360.644 195.74C359.29 196.627 358.264 197.933 357.564 199.66C356.864 201.34 356.514 203.417 356.514 205.89C356.514 208.177 356.84 210.183 357.494 211.91C358.147 213.59 359.174 214.897 360.574 215.83C361.974 216.763 363.794 217.23 366.034 217.23C368.087 217.23 369.767 216.833 371.074 216.04C372.38 215.247 373.267 214.267 373.734 213.1H384.024C383.464 215.667 382.367 217.953 380.734 219.96C379.1 221.967 377.047 223.53 374.574 224.65C372.1 225.77 369.254 226.33 366.034 226.33ZM406.705 226.19C401.245 226.19 396.975 225.07 393.895 222.83C390.815 220.59 389.182 217.44 388.995 213.38H398.935C399.122 214.593 399.845 215.69 401.105 216.67C402.412 217.603 404.348 218.07 406.915 218.07C408.875 218.07 410.485 217.743 411.745 217.09C413.052 216.39 413.705 215.41 413.705 214.15C413.705 213.03 413.215 212.143 412.235 211.49C411.255 210.79 409.505 210.3 406.985 210.02L403.975 209.74C399.355 209.273 395.878 207.99 393.545 205.89C391.258 203.79 390.115 201.107 390.115 197.84C390.115 195.133 390.792 192.87 392.145 191.05C393.498 189.23 395.365 187.853 397.745 186.92C400.172 185.987 402.925 185.52 406.005 185.52C410.952 185.52 414.942 186.617 417.975 188.81C421.008 190.957 422.595 194.083 422.735 198.19H412.795C412.608 196.93 411.955 195.88 410.835 195.04C409.715 194.153 408.058 193.71 405.865 193.71C404.138 193.71 402.762 194.037 401.735 194.69C400.708 195.343 400.195 196.23 400.195 197.35C400.195 198.423 400.638 199.24 401.525 199.8C402.412 200.36 403.858 200.757 405.865 200.99L408.875 201.27C413.588 201.783 417.252 203.09 419.865 205.19C422.478 207.29 423.785 210.113 423.785 213.66C423.785 216.227 423.085 218.467 421.685 220.38C420.285 222.247 418.302 223.693 415.735 224.72C413.168 225.7 410.158 226.19 406.705 226.19ZM445.602 226.19C440.142 226.19 435.872 225.07 432.792 222.83C429.712 220.59 428.078 217.44 427.892 213.38H437.832C438.018 214.593 438.742 215.69 440.002 216.67C441.308 217.603 443.245 218.07 445.812 218.07C447.772 218.07 449.382 217.743 450.642 217.09C451.948 216.39 452.602 215.41 452.602 214.15C452.602 213.03 452.112 212.143 451.132 211.49C450.152 210.79 448.402 210.3 445.882 210.02L442.872 209.74C438.252 209.273 434.775 207.99 432.442 205.89C430.155 203.79 429.012 201.107 429.012 197.84C429.012 195.133 429.688 192.87 431.042 191.05C432.395 189.23 434.262 187.853 436.642 186.92C439.068 185.987 441.822 185.52 444.902 185.52C449.848 185.52 453.838 186.617 456.872 188.81C459.905 190.957 461.492 194.083 461.632 198.19H451.692C451.505 196.93 450.852 195.88 449.732 195.04C448.612 194.153 446.955 193.71 444.762 193.71C443.035 193.71 441.658 194.037 440.632 194.69C439.605 195.343 439.092 196.23 439.092 197.35C439.092 198.423 439.535 199.24 440.422 199.8C441.308 200.36 442.755 200.757 444.762 200.99L447.772 201.27C452.485 201.783 456.148 203.09 458.762 205.19C461.375 207.29 462.682 210.113 462.682 213.66C462.682 216.227 461.982 218.467 460.582 220.38C459.182 222.247 457.198 223.693 454.632 224.72C452.065 225.7 449.055 226.19 445.602 226.19Z" fill="url(#paint0_linear_225_97)"/>
<path d="M229.572 297L218.772 253.2H228.912L237.372 290.4L235.272 289.02H240.732L238.392 290.4L244.932 254.82H253.092L244.512 297H229.572ZM255.672 297L246.432 254.82H255.012L262.572 290.4L260.292 289.02H265.512L263.532 290.4L270.912 253.2H280.512L270.912 297H255.672ZM305.209 297V287.28H303.589V276.72C303.589 275.04 303.189 273.78 302.389 272.94C301.589 272.1 300.309 271.68 298.549 271.68C297.669 271.68 296.509 271.7 295.069 271.74C293.629 271.78 292.149 271.84 290.629 271.92C289.109 272 287.729 272.08 286.489 272.16V264.06C287.409 263.98 288.489 263.9 289.729 263.82C290.969 263.74 292.249 263.68 293.569 263.64C294.889 263.6 296.129 263.58 297.289 263.58C300.649 263.58 303.469 264.06 305.749 265.02C308.069 265.98 309.829 267.44 311.029 269.4C312.229 271.32 312.829 273.8 312.829 276.84V297H305.209ZM294.709 297.84C292.349 297.84 290.269 297.42 288.469 296.58C286.709 295.74 285.329 294.54 284.329 292.98C283.329 291.38 282.829 289.48 282.829 287.28C282.829 284.88 283.449 282.92 284.689 281.4C285.929 279.84 287.669 278.7 289.909 277.98C292.149 277.22 294.729 276.84 297.649 276.84H304.669V282.18H297.589C295.909 282.18 294.609 282.6 293.689 283.44C292.809 284.24 292.369 285.34 292.369 286.74C292.369 288.06 292.809 289.14 293.689 289.98C294.609 290.78 295.909 291.18 297.589 291.18C298.669 291.18 299.629 291 300.469 290.64C301.349 290.24 302.069 289.58 302.629 288.66C303.189 287.74 303.509 286.46 303.589 284.82L305.869 287.22C305.669 289.5 305.109 291.42 304.189 292.98C303.309 294.54 302.069 295.74 300.469 296.58C298.909 297.42 296.989 297.84 294.709 297.84ZM326.748 297L316.908 264.12H326.808L336.048 297H326.748ZM329.748 297V289.02H339.408V297H329.748ZM333.288 297L341.268 264.12H350.508L341.988 297H333.288ZM370.487 298.14C367.687 298.14 365.207 297.66 363.047 296.7C360.927 295.74 359.147 294.46 357.707 292.86C356.307 291.22 355.227 289.4 354.467 287.4C353.747 285.36 353.387 283.28 353.387 281.16V279.96C353.387 277.76 353.747 275.66 354.467 273.66C355.227 271.62 356.307 269.8 357.707 268.2C359.107 266.6 360.847 265.34 362.927 264.42C365.047 263.46 367.447 262.98 370.127 262.98C373.647 262.98 376.607 263.78 379.007 265.38C381.447 266.94 383.307 269 384.587 271.56C385.867 274.08 386.507 276.84 386.507 279.84V283.08H357.407V277.62H380.687L377.567 280.14C377.567 278.18 377.287 276.5 376.727 275.1C376.167 273.7 375.327 272.64 374.207 271.92C373.127 271.16 371.767 270.78 370.127 270.78C368.447 270.78 367.027 271.16 365.867 271.92C364.707 272.68 363.827 273.8 363.227 275.28C362.627 276.72 362.327 278.5 362.327 280.62C362.327 282.58 362.607 284.3 363.167 285.78C363.727 287.22 364.607 288.34 365.807 289.14C367.007 289.94 368.567 290.34 370.487 290.34C372.247 290.34 373.687 290 374.807 289.32C375.927 288.64 376.687 287.8 377.087 286.8H385.907C385.427 289 384.487 290.96 383.087 292.68C381.687 294.4 379.927 295.74 377.807 296.7C375.687 297.66 373.247 298.14 370.487 298.14Z" fill="white"/>
<path d="M168.011 342V327.4H170.611L174.931 337.14H175.251L179.551 327.4H182.171V342H180.211V329.54L180.351 329.58L176.211 338.98H173.811L169.651 329.58L169.811 329.54V342H168.011ZM192.589 342V338.8H192.269V335.1C192.269 334.367 192.076 333.813 191.689 333.44C191.316 333.067 190.762 332.88 190.029 332.88C189.616 332.88 189.189 332.887 188.749 332.9C188.309 332.913 187.889 332.927 187.489 332.94C187.089 332.953 186.742 332.973 186.449 333V331.32C186.742 331.293 187.049 331.273 187.369 331.26C187.702 331.233 188.042 331.22 188.389 331.22C188.736 331.207 189.069 331.2 189.389 331.2C190.482 331.2 191.376 331.333 192.069 331.6C192.762 331.853 193.276 332.273 193.609 332.86C193.942 333.447 194.109 334.24 194.109 335.24V342H192.589ZM189.089 342.28C188.289 342.28 187.596 342.147 187.009 341.88C186.436 341.6 185.989 341.2 185.669 340.68C185.362 340.16 185.209 339.533 185.209 338.8C185.209 338.04 185.376 337.407 185.709 336.9C186.056 336.393 186.556 336.013 187.209 335.76C187.862 335.493 188.649 335.36 189.569 335.36H192.469V336.8H189.489C188.716 336.8 188.122 336.987 187.709 337.36C187.296 337.733 187.089 338.213 187.089 338.8C187.089 339.387 187.296 339.86 187.709 340.22C188.122 340.58 188.716 340.76 189.489 340.76C189.942 340.76 190.376 340.68 190.789 340.52C191.202 340.347 191.542 340.067 191.809 339.68C192.089 339.28 192.242 338.733 192.269 338.04L192.789 338.8C192.722 339.56 192.536 340.2 192.229 340.72C191.936 341.227 191.522 341.613 190.989 341.88C190.469 342.147 189.836 342.28 189.089 342.28ZM197.633 342V331.32H199.153V335.9H198.913C198.913 334.847 199.053 333.96 199.333 333.24C199.626 332.507 200.066 331.953 200.653 331.58C201.24 331.193 201.98 331 202.873 331H202.953C204.3 331 205.293 331.42 205.933 332.26C206.586 333.1 206.913 334.313 206.913 335.9V342H204.993V335.5C204.993 334.673 204.76 334.013 204.293 333.52C203.826 333.013 203.186 332.76 202.373 332.76C201.533 332.76 200.853 333.02 200.333 333.54C199.813 334.06 199.553 334.753 199.553 335.62V342H197.633ZM216.886 342V338.8H216.566V335.1C216.566 334.367 216.373 333.813 215.986 333.44C215.613 333.067 215.059 332.88 214.326 332.88C213.913 332.88 213.486 332.887 213.046 332.9C212.606 332.913 212.186 332.927 211.786 332.94C211.386 332.953 211.039 332.973 210.746 333V331.32C211.039 331.293 211.346 331.273 211.666 331.26C211.999 331.233 212.339 331.22 212.686 331.22C213.033 331.207 213.366 331.2 213.686 331.2C214.779 331.2 215.673 331.333 216.366 331.6C217.059 331.853 217.573 332.273 217.906 332.86C218.239 333.447 218.406 334.24 218.406 335.24V342H216.886ZM213.386 342.28C212.586 342.28 211.893 342.147 211.306 341.88C210.733 341.6 210.286 341.2 209.966 340.68C209.659 340.16 209.506 339.533 209.506 338.8C209.506 338.04 209.673 337.407 210.006 336.9C210.353 336.393 210.853 336.013 211.506 335.76C212.159 335.493 212.946 335.36 213.866 335.36H216.766V336.8H213.786C213.013 336.8 212.419 336.987 212.006 337.36C211.593 337.733 211.386 338.213 211.386 338.8C211.386 339.387 211.593 339.86 212.006 340.22C212.419 340.58 213.013 340.76 213.786 340.76C214.239 340.76 214.673 340.68 215.086 340.52C215.499 340.347 215.839 340.067 216.106 339.68C216.386 339.28 216.539 338.733 216.566 338.04L217.086 338.8C217.019 339.56 216.833 340.2 216.526 340.72C216.233 341.227 215.819 341.613 215.286 341.88C214.766 342.147 214.133 342.28 213.386 342.28ZM225.97 346.16C225.477 346.16 224.977 346.14 224.47 346.1C223.977 346.06 223.503 346.007 223.05 345.94V344.32C223.53 344.387 224.03 344.44 224.55 344.48C225.083 344.533 225.583 344.56 226.05 344.56C227.023 344.56 227.797 344.427 228.37 344.16C228.957 343.907 229.377 343.5 229.63 342.94C229.897 342.393 230.03 341.687 230.03 340.82V338.78L230.67 337.26C230.63 338.34 230.403 339.24 229.99 339.96C229.577 340.667 229.037 341.2 228.37 341.56C227.717 341.907 226.99 342.08 226.19 342.08C225.443 342.08 224.757 341.94 224.13 341.66C223.517 341.367 222.983 340.967 222.53 340.46C222.09 339.953 221.743 339.373 221.49 338.72C221.25 338.053 221.13 337.353 221.13 336.62V336.26C221.13 335.513 221.257 334.82 221.51 334.18C221.763 333.527 222.117 332.96 222.57 332.48C223.023 332 223.563 331.627 224.19 331.36C224.83 331.093 225.53 330.96 226.29 330.96C227.183 330.96 227.97 331.153 228.65 331.54C229.33 331.913 229.863 332.467 230.25 333.2C230.65 333.92 230.87 334.807 230.91 335.86L230.35 335.88V331.32H231.87V340.74C231.87 342.02 231.67 343.053 231.27 343.84C230.883 344.64 230.257 345.227 229.39 345.6C228.537 345.973 227.397 346.16 225.97 346.16ZM226.55 340.32C227.19 340.32 227.77 340.18 228.29 339.9C228.823 339.62 229.243 339.22 229.55 338.7C229.87 338.167 230.03 337.533 230.03 336.8V335.88C230.03 335.16 229.863 334.553 229.53 334.06C229.21 333.567 228.79 333.193 228.27 332.94C227.75 332.687 227.183 332.56 226.57 332.56C225.877 332.56 225.263 332.72 224.73 333.04C224.197 333.36 223.783 333.813 223.49 334.4C223.197 334.973 223.05 335.653 223.05 336.44C223.05 337.227 223.197 337.913 223.49 338.5C223.797 339.087 224.21 339.54 224.73 339.86C225.263 340.167 225.87 340.32 226.55 340.32ZM239.966 342.36C239.033 342.36 238.226 342.2 237.546 341.88C236.866 341.56 236.313 341.14 235.886 340.62C235.459 340.087 235.139 339.493 234.926 338.84C234.726 338.187 234.626 337.52 234.626 336.84V336.48C234.626 335.787 234.726 335.113 234.926 334.46C235.139 333.807 235.459 333.22 235.886 332.7C236.313 332.167 236.853 331.747 237.506 331.44C238.173 331.12 238.953 330.96 239.846 330.96C241.006 330.96 241.959 331.213 242.706 331.72C243.466 332.213 244.026 332.853 244.386 333.64C244.759 334.427 244.946 335.267 244.946 336.16V337.02H235.466V335.58H243.546L243.106 336.36C243.106 335.6 242.986 334.947 242.746 334.4C242.506 333.84 242.146 333.407 241.666 333.1C241.186 332.793 240.579 332.64 239.846 332.64C239.086 332.64 238.453 332.813 237.946 333.16C237.453 333.507 237.079 333.98 236.826 334.58C236.586 335.18 236.466 335.873 236.466 336.66C236.466 337.42 236.586 338.107 236.826 338.72C237.079 339.32 237.466 339.8 237.986 340.16C238.506 340.507 239.166 340.68 239.966 340.68C240.806 340.68 241.486 340.493 242.006 340.12C242.539 339.747 242.859 339.313 242.966 338.82H244.766C244.619 339.553 244.326 340.187 243.886 340.72C243.446 341.253 242.893 341.66 242.226 341.94C241.559 342.22 240.806 342.36 239.966 342.36ZM251.503 346.16V344.44H253.043C253.496 344.44 253.876 344.38 254.183 344.26C254.503 344.153 254.763 343.967 254.963 343.7C255.176 343.433 255.349 343.08 255.483 342.64L258.843 331.32H260.723L257.163 343.14C256.949 343.847 256.649 344.42 256.263 344.86C255.876 345.313 255.403 345.64 254.843 345.84C254.296 346.053 253.656 346.16 252.923 346.16H251.503ZM254.763 341.76V340.16H257.083V341.76H254.763ZM254.563 341.76L250.743 331.32H252.703L256.363 341.76H254.563ZM267.885 342.36C266.952 342.36 266.132 342.2 265.425 341.88C264.718 341.56 264.118 341.14 263.625 340.62C263.145 340.087 262.778 339.493 262.525 338.84C262.285 338.187 262.165 337.52 262.165 336.84V336.48C262.165 335.8 262.292 335.133 262.545 334.48C262.798 333.813 263.172 333.22 263.665 332.7C264.158 332.167 264.758 331.747 265.465 331.44C266.172 331.12 266.978 330.96 267.885 330.96C268.792 330.96 269.598 331.12 270.305 331.44C271.012 331.747 271.612 332.167 272.105 332.7C272.598 333.22 272.972 333.813 273.225 334.48C273.478 335.133 273.605 335.8 273.605 336.48V336.84C273.605 337.52 273.478 338.187 273.225 338.84C272.985 339.493 272.618 340.087 272.125 340.62C271.645 341.14 271.052 341.56 270.345 341.88C269.638 342.2 268.818 342.36 267.885 342.36ZM267.885 340.64C268.685 340.64 269.365 340.467 269.925 340.12C270.498 339.76 270.932 339.28 271.225 338.68C271.532 338.08 271.685 337.407 271.685 336.66C271.685 335.9 271.532 335.22 271.225 334.62C270.918 334.02 270.478 333.547 269.905 333.2C269.345 332.853 268.672 332.68 267.885 332.68C267.112 332.68 266.438 332.853 265.865 333.2C265.292 333.547 264.852 334.02 264.545 334.62C264.238 335.22 264.085 335.9 264.085 336.66C264.085 337.407 264.232 338.08 264.525 338.68C264.832 339.28 265.265 339.76 265.825 340.12C266.398 340.467 267.085 340.64 267.885 340.64ZM280.181 342.32C278.914 342.32 277.941 341.907 277.261 341.08C276.581 340.253 276.241 339.06 276.241 337.5V331.3H278.161V337.88C278.161 338.72 278.387 339.38 278.841 339.86C279.294 340.327 279.907 340.56 280.681 340.56C281.481 340.56 282.134 340.307 282.641 339.8C283.147 339.28 283.401 338.573 283.401 337.68V331.3H285.321V342H283.801V337.42H284.041C284.041 338.473 283.901 339.367 283.621 340.1C283.341 340.82 282.921 341.373 282.361 341.76C281.814 342.133 281.114 342.32 280.261 342.32H280.181ZM289.039 342V331.32H290.559V335.72H290.479C290.479 334.16 290.819 333.02 291.499 332.3C292.193 331.567 293.226 331.2 294.599 331.2H294.959V332.92H294.279C293.213 332.92 292.393 333.207 291.819 333.78C291.246 334.34 290.959 335.153 290.959 336.22V342H289.039ZM304.073 342L300.433 331.32H302.433L305.993 342H304.073ZM304.553 342V340.48H306.873V342H304.553ZM305.473 342L308.573 331.32H310.453L307.293 342H305.473ZM319.347 342V338.8H319.027V335.1C319.027 334.367 318.834 333.813 318.447 333.44C318.074 333.067 317.52 332.88 316.787 332.88C316.374 332.88 315.947 332.887 315.507 332.9C315.067 332.913 314.647 332.927 314.247 332.94C313.847 332.953 313.5 332.973 313.207 333V331.32C313.5 331.293 313.807 331.273 314.127 331.26C314.46 331.233 314.8 331.22 315.147 331.22C315.494 331.207 315.827 331.2 316.147 331.2C317.24 331.2 318.134 331.333 318.827 331.6C319.52 331.853 320.034 332.273 320.367 332.86C320.7 333.447 320.867 334.24 320.867 335.24V342H319.347ZM315.847 342.28C315.047 342.28 314.354 342.147 313.767 341.88C313.194 341.6 312.747 341.2 312.427 340.68C312.12 340.16 311.967 339.533 311.967 338.8C311.967 338.04 312.134 337.407 312.467 336.9C312.814 336.393 313.314 336.013 313.967 335.76C314.62 335.493 315.407 335.36 316.327 335.36H319.227V336.8H316.247C315.474 336.8 314.88 336.987 314.467 337.36C314.054 337.733 313.847 338.213 313.847 338.8C313.847 339.387 314.054 339.86 314.467 340.22C314.88 340.58 315.474 340.76 316.247 340.76C316.7 340.76 317.134 340.68 317.547 340.52C317.96 340.347 318.3 340.067 318.567 339.68C318.847 339.28 319 338.733 319.027 338.04L319.547 338.8C319.48 339.56 319.294 340.2 318.987 340.72C318.694 341.227 318.28 341.613 317.747 341.88C317.227 342.147 316.594 342.28 315.847 342.28ZM324.511 342V327.4H326.431V342H324.511ZM323.031 328.92V327.4H326.431V328.92H323.031ZM333.813 342.32C332.547 342.32 331.573 341.907 330.893 341.08C330.213 340.253 329.873 339.06 329.873 337.5V331.3H331.793V337.88C331.793 338.72 332.02 339.38 332.473 339.86C332.927 340.327 333.54 340.56 334.313 340.56C335.113 340.56 335.767 340.307 336.273 339.8C336.78 339.28 337.033 338.573 337.033 337.68V331.3H338.953V342H337.433V337.42H337.673C337.673 338.473 337.533 339.367 337.253 340.1C336.973 340.82 336.553 341.373 335.993 341.76C335.447 342.133 334.747 342.32 333.893 342.32H333.813ZM349.132 342V338.8H348.812V335.1C348.812 334.367 348.619 333.813 348.232 333.44C347.859 333.067 347.305 332.88 346.572 332.88C346.159 332.88 345.732 332.887 345.292 332.9C344.852 332.913 344.432 332.927 344.032 332.94C343.632 332.953 343.285 332.973 342.992 333V331.32C343.285 331.293 343.592 331.273 343.912 331.26C344.245 331.233 344.585 331.22 344.932 331.22C345.279 331.207 345.612 331.2 345.932 331.2C347.025 331.2 347.919 331.333 348.612 331.6C349.305 331.853 349.819 332.273 350.152 332.86C350.485 333.447 350.652 334.24 350.652 335.24V342H349.132ZM345.632 342.28C344.832 342.28 344.139 342.147 343.552 341.88C342.979 341.6 342.532 341.2 342.212 340.68C341.905 340.16 341.752 339.533 341.752 338.8C341.752 338.04 341.919 337.407 342.252 336.9C342.599 336.393 343.099 336.013 343.752 335.76C344.405 335.493 345.192 335.36 346.112 335.36H349.012V336.8H346.032C345.259 336.8 344.665 336.987 344.252 337.36C343.839 337.733 343.632 338.213 343.632 338.8C343.632 339.387 343.839 339.86 344.252 340.22C344.665 340.58 345.259 340.76 346.032 340.76C346.485 340.76 346.919 340.68 347.332 340.52C347.745 340.347 348.085 340.067 348.352 339.68C348.632 339.28 348.785 338.733 348.812 338.04L349.332 338.8C349.265 339.56 349.079 340.2 348.772 340.72C348.479 341.227 348.065 341.613 347.532 341.88C347.012 342.147 346.379 342.28 345.632 342.28ZM359.816 342.36C358.936 342.36 358.149 342.167 357.456 341.78C356.776 341.393 356.236 340.833 355.836 340.1C355.436 339.353 355.216 338.46 355.176 337.42H355.696V342H354.176V327.4H356.096V334.5L355.416 335.96C355.469 334.8 355.703 333.853 356.116 333.12C356.529 332.387 357.069 331.847 357.736 331.5C358.416 331.14 359.163 330.96 359.976 330.96C360.736 330.96 361.429 331.107 362.056 331.4C362.683 331.68 363.223 332.073 363.676 332.58C364.129 333.073 364.476 333.653 364.716 334.32C364.956 334.973 365.076 335.68 365.076 336.44V336.8C365.076 337.56 364.949 338.273 364.696 338.94C364.456 339.607 364.103 340.2 363.636 340.72C363.169 341.227 362.609 341.627 361.956 341.92C361.316 342.213 360.603 342.36 359.816 342.36ZM359.596 340.68C360.316 340.68 360.943 340.507 361.476 340.16C362.009 339.813 362.423 339.34 362.716 338.74C363.009 338.127 363.156 337.42 363.156 336.62C363.156 335.82 363.003 335.12 362.696 334.52C362.403 333.92 361.989 333.46 361.456 333.14C360.923 332.807 360.303 332.64 359.596 332.64C358.956 332.64 358.363 332.787 357.816 333.08C357.269 333.36 356.829 333.773 356.496 334.32C356.176 334.853 356.016 335.5 356.016 336.26V337.18C356.016 337.913 356.183 338.54 356.516 339.06C356.849 339.58 357.289 339.98 357.836 340.26C358.383 340.54 358.969 340.68 359.596 340.68ZM368.085 342V327.4H370.005V342H368.085ZM366.605 328.92V327.4H370.005V328.92H366.605ZM378.228 342.36C377.294 342.36 376.488 342.2 375.808 341.88C375.128 341.56 374.574 341.14 374.148 340.62C373.721 340.087 373.401 339.493 373.188 338.84C372.988 338.187 372.888 337.52 372.888 336.84V336.48C372.888 335.787 372.988 335.113 373.188 334.46C373.401 333.807 373.721 333.22 374.148 332.7C374.574 332.167 375.114 331.747 375.768 331.44C376.434 331.12 377.214 330.96 378.108 330.96C379.268 330.96 380.221 331.213 380.968 331.72C381.728 332.213 382.288 332.853 382.648 333.64C383.021 334.427 383.208 335.267 383.208 336.16V337.02H373.728V335.58H381.808L381.368 336.36C381.368 335.6 381.248 334.947 381.008 334.4C380.768 333.84 380.408 333.407 379.928 333.1C379.448 332.793 378.841 332.64 378.108 332.64C377.348 332.64 376.714 332.813 376.208 333.16C375.714 333.507 375.341 333.98 375.088 334.58C374.848 335.18 374.728 335.873 374.728 336.66C374.728 337.42 374.848 338.107 375.088 338.72C375.341 339.32 375.728 339.8 376.248 340.16C376.768 340.507 377.428 340.68 378.228 340.68C379.068 340.68 379.748 340.493 380.268 340.12C380.801 339.747 381.121 339.313 381.228 338.82H383.028C382.881 339.553 382.588 340.187 382.148 340.72C381.708 341.253 381.154 341.66 380.488 341.94C379.821 342.22 379.068 342.36 378.228 342.36ZM394.645 342.12C393.845 342.12 393.151 342.007 392.565 341.78C391.991 341.553 391.545 341.167 391.225 340.62C390.918 340.06 390.765 339.307 390.765 338.36V328.08H392.605V338.6C392.605 339.173 392.758 339.62 393.065 339.94C393.385 340.247 393.831 340.4 394.405 340.4H396.285V342.12H394.645ZM388.925 332.76V331.32H396.285V332.76H388.925ZM399.52 342V331.32H401.44V342H399.52ZM397.88 332.84V331.32H401.44V332.84H397.88ZM400.06 329.6C399.633 329.6 399.313 329.487 399.1 329.26C398.9 329.033 398.8 328.747 398.8 328.4C398.8 328.053 398.9 327.767 399.1 327.54C399.313 327.313 399.633 327.2 400.06 327.2C400.487 327.2 400.8 327.313 401 327.54C401.213 327.767 401.32 328.053 401.32 328.4C401.32 328.747 401.213 329.033 401 329.26C400.8 329.487 400.487 329.6 400.06 329.6ZM405.153 342V331.32H406.673V335.9H406.433C406.433 334.86 406.566 333.98 406.833 333.26C407.113 332.527 407.526 331.967 408.073 331.58C408.619 331.193 409.313 331 410.153 331H410.233C411.073 331 411.766 331.193 412.313 331.58C412.873 331.967 413.286 332.527 413.553 333.26C413.819 333.98 413.953 334.86 413.953 335.9H413.393C413.393 334.86 413.533 333.98 413.813 333.26C414.093 332.527 414.506 331.967 415.053 331.58C415.613 331.193 416.313 331 417.153 331H417.233C418.073 331 418.773 331.193 419.333 331.58C419.893 331.967 420.306 332.527 420.573 333.26C420.853 333.98 420.993 334.86 420.993 335.9V342H419.073V335.48C419.073 334.613 418.859 333.947 418.433 333.48C418.006 333 417.413 332.76 416.653 332.76C415.866 332.76 415.233 333.013 414.753 333.52C414.273 334.013 414.033 334.707 414.033 335.6V342H412.113V335.48C412.113 334.613 411.899 333.947 411.473 333.48C411.046 333 410.453 332.76 409.693 332.76C408.906 332.76 408.273 333.013 407.793 333.52C407.313 334.013 407.073 334.707 407.073 335.6V342H405.153ZM425.028 342V331.32H426.948V342H425.028ZM423.388 332.84V331.32H426.948V332.84H423.388ZM425.568 329.6C425.141 329.6 424.821 329.487 424.608 329.26C424.408 329.033 424.308 328.747 424.308 328.4C424.308 328.053 424.408 327.767 424.608 327.54C424.821 327.313 425.141 327.2 425.568 327.2C425.995 327.2 426.308 327.313 426.508 327.54C426.721 327.767 426.828 328.053 426.828 328.4C426.828 328.747 426.721 329.033 426.508 329.26C426.308 329.487 425.995 329.6 425.568 329.6ZM430.66 342V331.32H432.18V335.9H431.94C431.94 334.847 432.08 333.96 432.36 333.24C432.654 332.507 433.094 331.953 433.68 331.58C434.267 331.193 435.007 331 435.9 331H435.98C437.327 331 438.32 331.42 438.96 332.26C439.614 333.1 439.94 334.313 439.94 335.9V342H438.02V335.5C438.02 334.673 437.787 334.013 437.32 333.52C436.854 333.013 436.214 332.76 435.4 332.76C434.56 332.76 433.88 333.02 433.36 333.54C432.84 334.06 432.58 334.753 432.58 335.62V342H430.66ZM447.493 346.16C447 346.16 446.5 346.14 445.993 346.1C445.5 346.06 445.027 346.007 444.573 345.94V344.32C445.053 344.387 445.553 344.44 446.073 344.48C446.607 344.533 447.107 344.56 447.573 344.56C448.547 344.56 449.32 344.427 449.893 344.16C450.48 343.907 450.9 343.5 451.153 342.94C451.42 342.393 451.553 341.687 451.553 340.82V338.78L452.193 337.26C452.153 338.34 451.927 339.24 451.513 339.96C451.1 340.667 450.56 341.2 449.893 341.56C449.24 341.907 448.513 342.08 447.713 342.08C446.967 342.08 446.28 341.94 445.653 341.66C445.04 341.367 444.507 340.967 444.053 340.46C443.613 339.953 443.267 339.373 443.013 338.72C442.773 338.053 442.653 337.353 442.653 336.62V336.26C442.653 335.513 442.78 334.82 443.033 334.18C443.287 333.527 443.64 332.96 444.093 332.48C444.547 332 445.087 331.627 445.713 331.36C446.353 331.093 447.053 330.96 447.813 330.96C448.707 330.96 449.493 331.153 450.173 331.54C450.853 331.913 451.387 332.467 451.773 333.2C452.173 333.92 452.393 334.807 452.433 335.86L451.873 335.88V331.32H453.393V340.74C453.393 342.02 453.193 343.053 452.793 343.84C452.407 344.64 451.78 345.227 450.913 345.6C450.06 345.973 448.92 346.16 447.493 346.16ZM448.073 340.32C448.713 340.32 449.293 340.18 449.813 339.9C450.347 339.62 450.767 339.22 451.073 338.7C451.393 338.167 451.553 337.533 451.553 336.8V335.88C451.553 335.16 451.387 334.553 451.053 334.06C450.733 333.567 450.313 333.193 449.793 332.94C449.273 332.687 448.707 332.56 448.093 332.56C447.4 332.56 446.787 332.72 446.253 333.04C445.72 333.36 445.307 333.813 445.013 334.4C444.72 334.973 444.573 335.653 444.573 336.44C444.573 337.227 444.72 337.913 445.013 338.5C445.32 339.087 445.733 339.54 446.253 339.86C446.787 340.167 447.393 340.32 448.073 340.32Z" fill="#D8D8D8"/>
<g filter="url(#filter1_f_225_97)">
<ellipse cx="316.5" cy="13.5" rx="259.5" ry="100.5" fill="#855192"/>
</g>
<g filter="url(#filter2_f_225_97)">
<ellipse cx="86.5" cy="453" rx="136.5" ry="120" fill="#865FB8"/>
</g>
<g filter="url(#filter3_f_225_97)">
<ellipse cx="567.5" cy="437.5" rx="152.5" ry="135.5" fill="#642D6D"/>
</g>
<g clip-path="url(#clip1_225_97)">
<path d="M292.386 101.333L302.319 108.742C302.701 111.73 305.305 114.053 308.5 114.053C311.957 114.053 314.759 111.342 314.759 108C314.759 107.871 314.728 107.751 314.719 107.622L329.276 90.9684C330.293 89.8662 330.311 88.2784 329.32 87.4271C328.329 86.5732 326.702 86.7779 325.688 87.88L311.383 102.658C310.517 102.219 309.545 101.948 308.5 101.948C307.38 101.948 306.345 102.255 305.436 102.753L296.083 96.4546C294.877 95.5953 293.068 95.9935 292.045 97.3413C291.026 98.6861 291.175 100.474 292.386 101.333Z" fill="#C2C2C2"/>
<path d="M308.5 64C306.505 64 304.889 65.5634 304.889 67.4922C304.889 69.4209 306.506 70.9841 308.5 70.9841C319.082 70.9855 328.628 75.1215 335.566 81.8258C342.5 88.5345 346.777 97.7666 346.778 108C346.777 118.233 342.5 127.464 335.566 134.174C328.628 140.879 319.082 145.014 308.5 145.016C297.918 145.014 288.371 140.878 281.434 134.174C274.501 127.464 270.224 118.233 270.222 108C270.224 100.564 272.492 93.6594 276.389 87.8648L279.741 90.2873C280.104 90.5492 280.583 90.6147 281.008 90.4591C281.431 90.3038 281.747 89.9531 281.84 89.5221L284.095 79.2056C284.498 78.5384 284.67 77.7718 284.572 77.0188L285.592 72.3564C285.701 71.8655 285.502 71.3605 285.088 71.0591C284.672 70.7604 284.115 70.7195 283.658 70.9596L267.7 79.3024C267.299 79.5138 267.038 79.9039 267.006 80.3417C266.972 80.7783 267.172 81.2038 267.536 81.4671L270.589 83.6728C265.799 90.6434 262.999 99.012 263 108C263.003 132.302 283.369 151.997 308.5 152C333.631 151.997 353.997 132.302 354 108C353.997 83.6976 333.631 64.0028 308.5 64Z" fill="#C2C2C2"/>
</g>
</g>
<defs>
<filter id="filter0_f_225_97" x="-60" y="-111" width="737" height="694" filterUnits="userSpaceOnUse" color-interpolation-filters="sRGB">
<feFlood flood-opacity="0" result="BackgroundImageFix"/>
<feBlend mode="normal" in="SourceGraphic" in2="BackgroundImageFix" result="shape"/>
<feGaussianBlur stdDeviation="125" result="effect1_foregroundBlur_225_97"/>
</filter>
<filter id="filter1_f_225_97" x="-193" y="-337" width="1019" height="701" filterUnits="userSpaceOnUse" color-interpolation-filters="sRGB">
<feFlood flood-opacity="0" result="BackgroundImageFix"/>
<feBlend mode="normal" in="SourceGraphic" in2="BackgroundImageFix" result="shape"/>
<feGaussianBlur stdDeviation="125" result="effect1_foregroundBlur_225_97"/>
</filter>
<filter id="filter2_f_225_97" x="-300" y="83" width="773" height="740" filterUnits="userSpaceOnUse" color-interpolation-filters="sRGB">
<feFlood flood-opacity="0" result="BackgroundImageFix"/>
<feBlend mode="normal" in="SourceGraphic" in2="BackgroundImageFix" result="shape"/>
<feGaussianBlur stdDeviation="125" result="effect1_foregroundBlur_225_97"/>
</filter>
<filter id="filter3_f_225_97" x="165" y="52" width="805" height="771" filterUnits="userSpaceOnUse" color-interpolation-filters="sRGB">
<feFlood flood-opacity="0" result="BackgroundImageFix"/>
<feBlend mode="normal" in="SourceGraphic" in2="BackgroundImageFix" result="shape"/>
<feGaussianBlur stdDeviation="125" result="effect1_foregroundBlur_225_97"/>
</filter>
<linearGradient id="paint0_linear_225_97" x1="303.5" y1="157" x2="303.5" y2="239" gradientUnits="userSpaceOnUse">
<stop stop-color="white"/>
<stop offset="1" stop-color="#E4E4E4"/>
</linearGradient>
<clipPath id="clip0_225_97">
<rect width="616" height="440" rx="11" fill="white"/>
</clipPath>
<clipPath id="clip1_225_97">
<rect width="91" height="88" fill="white" transform="translate(263 64)"/>
</clipPath>
</defs>
</svg>
