<svg width="616" height="440" viewBox="0 0 616 440" fill="none" xmlns="http://www.w3.org/2000/svg">
<g clip-path="url(#clip0_225_63)">
<rect width="616" height="440" rx="11" fill="#D3EDEF"/>
<g filter="url(#filter0_f_225_63)">
<ellipse cx="308.5" cy="219" rx="120.5" ry="115" fill="#CFB1E1" fill-opacity="0.74"/>
</g>
<g filter="url(#filter1_f_225_63)">
<ellipse cx="-15" cy="468.5" rx="135" ry="132.5" fill="#ED1D81"/>
</g>
<g filter="url(#filter2_f_225_63)">
<ellipse cx="20.5" cy="-14.5" rx="117.5" ry="112.5" fill="#ED1D1D"/>
</g>
<path d="M164.19 298L146.43 239.6H159.95L174.03 288.88L170.99 287.36H179.15L175.95 288.88L188.99 239.6H202.11L185.55 298H164.19ZM226.451 299.52C222.718 299.52 219.411 298.88 216.531 297.6C213.705 296.32 211.331 294.613 209.411 292.48C207.545 290.293 206.105 287.867 205.091 285.2C204.131 282.48 203.651 279.707 203.651 276.88V275.28C203.651 272.347 204.131 269.547 205.091 266.88C206.105 264.16 207.545 261.733 209.411 259.6C211.278 257.467 213.598 255.787 216.371 254.56C219.198 253.28 222.398 252.64 225.971 252.64C230.665 252.64 234.611 253.707 237.811 255.84C241.065 257.92 243.545 260.667 245.251 264.08C246.958 267.44 247.811 271.12 247.811 275.12V279.44H209.011V272.16H240.051L235.891 275.52C235.891 272.907 235.518 270.667 234.771 268.8C234.025 266.933 232.905 265.52 231.411 264.56C229.971 263.547 228.158 263.04 225.971 263.04C223.731 263.04 221.838 263.547 220.291 264.56C218.745 265.573 217.571 267.067 216.771 269.04C215.971 270.96 215.571 273.333 215.571 276.16C215.571 278.773 215.945 281.067 216.691 283.04C217.438 284.96 218.611 286.453 220.211 287.52C221.811 288.587 223.891 289.12 226.451 289.12C228.798 289.12 230.718 288.667 232.211 287.76C233.705 286.853 234.718 285.733 235.251 284.4H247.011C246.371 287.333 245.118 289.947 243.251 292.24C241.385 294.533 239.038 296.32 236.211 297.6C233.385 298.88 230.131 299.52 226.451 299.52ZM256.293 298V254.16H266.453V272.96H265.733C265.733 268.48 266.293 264.747 267.413 261.76C268.586 258.773 270.346 256.533 272.693 255.04C275.04 253.547 277.893 252.8 281.253 252.8H281.813C286.933 252.8 290.826 254.48 293.493 257.84C296.213 261.147 297.573 266.187 297.573 272.96V298H284.773V272.24C284.773 269.893 284.08 267.973 282.693 266.48C281.306 264.987 279.44 264.24 277.093 264.24C274.693 264.24 272.746 265.013 271.253 266.56C269.813 268.053 269.093 270.027 269.093 272.48V298H256.293ZM328.401 298.56C323.974 298.56 320.401 298.027 317.681 296.96C314.961 295.84 312.961 294 311.681 291.44C310.454 288.827 309.841 285.307 309.841 280.88V242.32H321.761V281.36C321.761 283.44 322.294 285.04 323.361 286.16C324.481 287.227 326.054 287.76 328.081 287.76H334.561V298.56H328.401ZM303.201 263.52V254.16H334.561V263.52H303.201ZM357.968 299.36C352.901 299.36 349.008 297.733 346.288 294.48C343.568 291.173 342.208 286.213 342.208 279.6V254.16H355.008V280.24C355.008 282.587 355.675 284.453 357.008 285.84C358.341 287.227 360.128 287.92 362.368 287.92C364.661 287.92 366.528 287.2 367.968 285.76C369.408 284.32 370.128 282.373 370.128 279.92V254.16H382.928V298H372.768V279.52H373.648C373.648 283.947 373.061 287.653 371.888 290.64C370.768 293.573 369.088 295.76 366.848 297.2C364.608 298.64 361.835 299.36 358.528 299.36H357.968ZM394.731 298V254.16H404.891V272.96H404.651C404.651 266.773 405.957 262 408.571 258.64C411.237 255.28 415.077 253.6 420.091 253.6H421.771V264.64H418.571C415.051 264.64 412.331 265.6 410.411 267.52C408.491 269.387 407.531 272.107 407.531 275.68V298H394.731ZM448.248 299.52C444.515 299.52 441.208 298.88 438.328 297.6C435.501 296.32 433.128 294.613 431.208 292.48C429.341 290.293 427.901 287.867 426.888 285.2C425.928 282.48 425.448 279.707 425.448 276.88V275.28C425.448 272.347 425.928 269.547 426.888 266.88C427.901 264.16 429.341 261.733 431.208 259.6C433.075 257.467 435.395 255.787 438.168 254.56C440.995 253.28 444.195 252.64 447.768 252.64C452.461 252.64 456.408 253.707 459.608 255.84C462.861 257.92 465.341 260.667 467.048 264.08C468.755 267.44 469.608 271.12 469.608 275.12V279.44H430.808V272.16H461.848L457.688 275.52C457.688 272.907 457.315 270.667 456.568 268.8C455.821 266.933 454.701 265.52 453.208 264.56C451.768 263.547 449.955 263.04 447.768 263.04C445.528 263.04 443.635 263.547 442.088 264.56C440.541 265.573 439.368 267.067 438.568 269.04C437.768 270.96 437.368 273.333 437.368 276.16C437.368 278.773 437.741 281.067 438.488 283.04C439.235 284.96 440.408 286.453 442.008 287.52C443.608 288.587 445.688 289.12 448.248 289.12C450.595 289.12 452.515 288.667 454.008 287.76C455.501 286.853 456.515 285.733 457.048 284.4H468.808C468.168 287.333 466.915 289.947 465.048 292.24C463.181 294.533 460.835 296.32 458.008 297.6C455.181 298.88 451.928 299.52 448.248 299.52Z" fill="#301736" fill-opacity="0.99"/>
<path d="M182.202 336.056V334.796H184.75C185.366 334.796 185.912 334.698 186.388 334.502C186.873 334.297 187.284 334.017 187.62 333.662C187.965 333.307 188.227 332.892 188.404 332.416C188.581 331.94 188.67 331.427 188.67 330.876C188.67 330.297 188.581 329.775 188.404 329.308C188.227 328.832 187.965 328.421 187.62 328.076C187.284 327.721 186.873 327.451 186.388 327.264C185.912 327.077 185.366 326.984 184.75 326.984H182.202V325.724H184.61C185.534 325.724 186.337 325.869 187.018 326.158C187.699 326.438 188.264 326.821 188.712 327.306C189.169 327.782 189.51 328.319 189.734 328.916C189.958 329.504 190.07 330.106 190.07 330.722V331.03C190.07 331.627 189.958 332.225 189.734 332.822C189.51 333.419 189.169 333.961 188.712 334.446C188.264 334.931 187.699 335.323 187.018 335.622C186.337 335.911 185.534 336.056 184.61 336.056H182.202ZM181.11 336.056V325.724H182.482V336.056H181.11ZM192.352 336V328.524H193.696V336H192.352ZM191.204 329.588V328.524H193.696V329.588H191.204ZM192.73 327.32C192.432 327.32 192.208 327.241 192.058 327.082C191.918 326.923 191.848 326.723 191.848 326.48C191.848 326.237 191.918 326.037 192.058 325.878C192.208 325.719 192.432 325.64 192.73 325.64C193.029 325.64 193.248 325.719 193.388 325.878C193.538 326.037 193.612 326.237 193.612 326.48C193.612 326.723 193.538 326.923 193.388 327.082C193.248 327.241 193.029 327.32 192.73 327.32ZM197.891 336L195.343 328.524H196.743L199.235 336H197.891ZM198.227 336V334.936H199.851V336H198.227ZM198.871 336L201.041 328.524H202.357L200.145 336H198.871ZM207.156 336.252C206.503 336.252 205.938 336.14 205.462 335.916C204.986 335.692 204.599 335.398 204.3 335.034C204.002 334.661 203.778 334.245 203.628 333.788C203.488 333.331 203.418 332.864 203.418 332.388V332.136C203.418 331.651 203.488 331.179 203.628 330.722C203.778 330.265 204.002 329.854 204.3 329.49C204.599 329.117 204.977 328.823 205.434 328.608C205.901 328.384 206.447 328.272 207.072 328.272C207.884 328.272 208.552 328.449 209.074 328.804C209.606 329.149 209.998 329.597 210.25 330.148C210.512 330.699 210.642 331.287 210.642 331.912V332.514H204.006V331.506H209.662L209.354 332.052C209.354 331.52 209.27 331.063 209.102 330.68C208.934 330.288 208.682 329.985 208.346 329.77C208.01 329.555 207.586 329.448 207.072 329.448C206.54 329.448 206.097 329.569 205.742 329.812C205.397 330.055 205.136 330.386 204.958 330.806C204.79 331.226 204.706 331.711 204.706 332.262C204.706 332.794 204.79 333.275 204.958 333.704C205.136 334.124 205.406 334.46 205.77 334.712C206.134 334.955 206.596 335.076 207.156 335.076C207.744 335.076 208.22 334.945 208.584 334.684C208.958 334.423 209.182 334.119 209.256 333.774H210.516C210.414 334.287 210.208 334.731 209.9 335.104C209.592 335.477 209.205 335.762 208.738 335.958C208.272 336.154 207.744 336.252 207.156 336.252ZM216.1 336V328.524H217.444V336H216.1ZM214.952 329.588V328.524H217.444V329.588H214.952ZM216.478 327.32C216.18 327.32 215.956 327.241 215.806 327.082C215.666 326.923 215.596 326.723 215.596 326.48C215.596 326.237 215.666 326.037 215.806 325.878C215.956 325.719 216.18 325.64 216.478 325.64C216.777 325.64 216.996 325.719 217.136 325.878C217.286 326.037 217.36 326.237 217.36 326.48C217.36 326.723 217.286 326.923 217.136 327.082C216.996 327.241 216.777 327.32 216.478 327.32ZM220.043 336V328.524H221.107V331.73H220.939C220.939 330.993 221.037 330.372 221.233 329.868C221.438 329.355 221.746 328.967 222.157 328.706C222.568 328.435 223.086 328.3 223.711 328.3H223.767C224.71 328.3 225.405 328.594 225.853 329.182C226.31 329.77 226.539 330.619 226.539 331.73V336H225.195V331.45C225.195 330.871 225.032 330.409 224.705 330.064C224.378 329.709 223.93 329.532 223.361 329.532C222.773 329.532 222.297 329.714 221.933 330.078C221.569 330.442 221.387 330.927 221.387 331.534V336H220.043ZM231.91 336.084C231.35 336.084 230.865 336.005 230.454 335.846C230.053 335.687 229.74 335.417 229.516 335.034C229.301 334.642 229.194 334.115 229.194 333.452V326.256H230.482V333.62C230.482 334.021 230.589 334.334 230.804 334.558C231.028 334.773 231.341 334.88 231.742 334.88H233.058V336.084H231.91ZM227.906 329.532V328.524H233.058V329.532H227.906ZM238.348 336.252C237.695 336.252 237.121 336.14 236.626 335.916C236.132 335.692 235.712 335.398 235.366 335.034C235.03 334.661 234.774 334.245 234.596 333.788C234.428 333.331 234.344 332.864 234.344 332.388V332.136C234.344 331.66 234.433 331.193 234.61 330.736C234.788 330.269 235.049 329.854 235.394 329.49C235.74 329.117 236.16 328.823 236.654 328.608C237.149 328.384 237.714 328.272 238.348 328.272C238.983 328.272 239.548 328.384 240.042 328.608C240.537 328.823 240.957 329.117 241.302 329.49C241.648 329.854 241.909 330.269 242.086 330.736C242.264 331.193 242.352 331.66 242.352 332.136V332.388C242.352 332.864 242.264 333.331 242.086 333.788C241.918 334.245 241.662 334.661 241.316 335.034C240.98 335.398 240.565 335.692 240.07 335.916C239.576 336.14 239.002 336.252 238.348 336.252ZM238.348 335.048C238.908 335.048 239.384 334.927 239.776 334.684C240.178 334.432 240.481 334.096 240.686 333.676C240.901 333.256 241.008 332.785 241.008 332.262C241.008 331.73 240.901 331.254 240.686 330.834C240.472 330.414 240.164 330.083 239.762 329.84C239.37 329.597 238.899 329.476 238.348 329.476C237.807 329.476 237.336 329.597 236.934 329.84C236.533 330.083 236.225 330.414 236.01 330.834C235.796 331.254 235.688 331.73 235.688 332.262C235.688 332.785 235.791 333.256 235.996 333.676C236.211 334.096 236.514 334.432 236.906 334.684C237.308 334.927 237.788 335.048 238.348 335.048ZM250.463 336.084C249.903 336.084 249.417 336.005 249.007 335.846C248.605 335.687 248.293 335.417 248.069 335.034C247.854 334.642 247.747 334.115 247.747 333.452V326.256H249.035V333.62C249.035 334.021 249.142 334.334 249.357 334.558C249.581 334.773 249.893 334.88 250.295 334.88H251.611V336.084H250.463ZM246.459 329.532V328.524H251.611V329.532H246.459ZM253.512 336V325.78H254.856V331.884H254.52C254.52 331.147 254.613 330.512 254.8 329.98C254.996 329.439 255.294 329.023 255.696 328.734C256.097 328.445 256.61 328.3 257.236 328.3H257.292C258.188 328.3 258.864 328.599 259.322 329.196C259.779 329.784 260.008 330.629 260.008 331.73V336H258.664V331.45C258.664 330.843 258.491 330.372 258.146 330.036C257.81 329.7 257.371 329.532 256.83 329.532C256.232 329.532 255.752 329.733 255.388 330.134C255.033 330.526 254.856 331.044 254.856 331.688V336H253.512ZM265.645 336.252C264.991 336.252 264.427 336.14 263.951 335.916C263.475 335.692 263.087 335.398 262.789 335.034C262.49 334.661 262.266 334.245 262.117 333.788C261.977 333.331 261.907 332.864 261.907 332.388V332.136C261.907 331.651 261.977 331.179 262.117 330.722C262.266 330.265 262.49 329.854 262.789 329.49C263.087 329.117 263.465 328.823 263.923 328.608C264.389 328.384 264.935 328.272 265.561 328.272C266.373 328.272 267.04 328.449 267.563 328.804C268.095 329.149 268.487 329.597 268.739 330.148C269 330.699 269.131 331.287 269.131 331.912V332.514H262.495V331.506H268.151L267.843 332.052C267.843 331.52 267.759 331.063 267.591 330.68C267.423 330.288 267.171 329.985 266.835 329.77C266.499 329.555 266.074 329.448 265.561 329.448C265.029 329.448 264.585 329.569 264.231 329.812C263.885 330.055 263.624 330.386 263.447 330.806C263.279 331.226 263.195 331.711 263.195 332.262C263.195 332.794 263.279 333.275 263.447 333.704C263.624 334.124 263.895 334.46 264.259 334.712C264.623 334.955 265.085 335.076 265.645 335.076C266.233 335.076 266.709 334.945 267.073 334.684C267.446 334.423 267.67 334.119 267.745 333.774H269.005C268.902 334.287 268.697 334.731 268.389 335.104C268.081 335.477 267.693 335.762 267.227 335.958C266.76 336.154 266.233 336.252 265.645 336.252ZM277.137 336.084C276.577 336.084 276.091 336.005 275.681 335.846C275.279 335.687 274.967 335.417 274.743 335.034C274.528 334.642 274.421 334.115 274.421 333.452V326.256H275.709V333.62C275.709 334.021 275.816 334.334 276.031 334.558C276.255 334.773 276.567 334.88 276.969 334.88H278.285V336.084H277.137ZM273.133 329.532V328.524H278.285V329.532H273.133ZM283.575 336.252C282.921 336.252 282.347 336.14 281.853 335.916C281.358 335.692 280.938 335.398 280.593 335.034C280.257 334.661 280 334.245 279.823 333.788C279.655 333.331 279.571 332.864 279.571 332.388V332.136C279.571 331.66 279.659 331.193 279.837 330.736C280.014 330.269 280.275 329.854 280.621 329.49C280.966 329.117 281.386 328.823 281.881 328.608C282.375 328.384 282.94 328.272 283.575 328.272C284.209 328.272 284.774 328.384 285.269 328.608C285.763 328.823 286.183 329.117 286.529 329.49C286.874 329.854 287.135 330.269 287.313 330.736C287.49 331.193 287.579 331.66 287.579 332.136V332.388C287.579 332.864 287.49 333.331 287.313 333.788C287.145 334.245 286.888 334.661 286.543 335.034C286.207 335.398 285.791 335.692 285.297 335.916C284.802 336.14 284.228 336.252 283.575 336.252ZM283.575 335.048C284.135 335.048 284.611 334.927 285.003 334.684C285.404 334.432 285.707 334.096 285.913 333.676C286.127 333.256 286.235 332.785 286.235 332.262C286.235 331.73 286.127 331.254 285.913 330.834C285.698 330.414 285.39 330.083 284.989 329.84C284.597 329.597 284.125 329.476 283.575 329.476C283.033 329.476 282.562 329.597 282.161 329.84C281.759 330.083 281.451 330.414 281.237 330.834C281.022 331.254 280.915 331.73 280.915 332.262C280.915 332.785 281.017 333.256 281.223 333.676C281.437 334.096 281.741 334.432 282.133 334.684C282.534 334.927 283.015 335.048 283.575 335.048ZM288.951 338.912V337.708H290.029C290.346 337.708 290.612 337.666 290.827 337.582C291.051 337.507 291.233 337.377 291.373 337.19C291.522 337.003 291.644 336.756 291.737 336.448L294.089 328.524H295.405L292.913 336.798C292.764 337.293 292.554 337.694 292.283 338.002C292.012 338.319 291.681 338.548 291.289 338.688C290.906 338.837 290.458 338.912 289.945 338.912H288.951ZM291.233 335.832V334.712H292.857V335.832H291.233ZM291.093 335.832L288.419 328.524H289.791L292.353 335.832H291.093ZM295.877 338.856V337.652H296.661C297.016 337.652 297.287 337.554 297.473 337.358C297.669 337.162 297.767 336.891 297.767 336.546V328.524H299.055V336.35C299.055 336.975 298.967 337.47 298.789 337.834C298.621 338.198 298.346 338.459 297.963 338.618C297.59 338.777 297.091 338.856 296.465 338.856H295.877ZM296.591 329.588V328.524H299.055V329.588H296.591ZM298.089 327.208C297.791 327.208 297.567 327.129 297.417 326.97C297.277 326.811 297.207 326.611 297.207 326.368C297.207 326.125 297.277 325.925 297.417 325.766C297.567 325.607 297.791 325.528 298.089 325.528C298.388 325.528 298.607 325.607 298.747 325.766C298.897 325.925 298.971 326.125 298.971 326.368C298.971 326.611 298.897 326.811 298.747 326.97C298.607 327.129 298.388 327.208 298.089 327.208ZM305.081 336.252C304.427 336.252 303.853 336.14 303.359 335.916C302.864 335.692 302.444 335.398 302.099 335.034C301.763 334.661 301.506 334.245 301.329 333.788C301.161 333.331 301.077 332.864 301.077 332.388V332.136C301.077 331.66 301.165 331.193 301.343 330.736C301.52 330.269 301.781 329.854 302.127 329.49C302.472 329.117 302.892 328.823 303.387 328.608C303.881 328.384 304.446 328.272 305.081 328.272C305.715 328.272 306.28 328.384 306.775 328.608C307.269 328.823 307.689 329.117 308.035 329.49C308.38 329.854 308.641 330.269 308.819 330.736C308.996 331.193 309.085 331.66 309.085 332.136V332.388C309.085 332.864 308.996 333.331 308.819 333.788C308.651 334.245 308.394 334.661 308.049 335.034C307.713 335.398 307.297 335.692 306.803 335.916C306.308 336.14 305.734 336.252 305.081 336.252ZM305.081 335.048C305.641 335.048 306.117 334.927 306.509 334.684C306.91 334.432 307.213 334.096 307.419 333.676C307.633 333.256 307.741 332.785 307.741 332.262C307.741 331.73 307.633 331.254 307.419 330.834C307.204 330.414 306.896 330.083 306.495 329.84C306.103 329.597 305.631 329.476 305.081 329.476C304.539 329.476 304.068 329.597 303.667 329.84C303.265 330.083 302.957 330.414 302.743 330.834C302.528 331.254 302.421 331.73 302.421 332.262C302.421 332.785 302.523 333.256 302.729 333.676C302.943 334.096 303.247 334.432 303.639 334.684C304.04 334.927 304.521 335.048 305.081 335.048ZM310.457 338.912V337.708H311.535C311.852 337.708 312.118 337.666 312.333 337.582C312.557 337.507 312.739 337.377 312.879 337.19C313.028 337.003 313.15 336.756 313.243 336.448L315.595 328.524H316.911L314.419 336.798C314.27 337.293 314.06 337.694 313.789 338.002C313.518 338.319 313.187 338.548 312.795 338.688C312.412 338.837 311.964 338.912 311.451 338.912H310.457ZM312.739 335.832V334.712H314.363V335.832H312.739ZM312.599 335.832L309.925 328.524H311.297L313.859 335.832H312.599ZM323.987 336L325.499 328.776H327.319L329.083 336H327.935L326.171 328.804H326.619L325.093 336H323.987ZM323.301 336V334.936H324.855V336H323.301ZM322.993 336L320.879 328.524H322.167L324.225 336H322.993ZM328.215 336V334.936H329.769V336H328.215ZM328.845 336L330.637 328.524H331.855L330.021 336H328.845ZM336.977 336.252C336.324 336.252 335.75 336.14 335.255 335.916C334.76 335.692 334.34 335.398 333.995 335.034C333.659 334.661 333.402 334.245 333.225 333.788C333.057 333.331 332.973 332.864 332.973 332.388V332.136C332.973 331.66 333.062 331.193 333.239 330.736C333.416 330.269 333.678 329.854 334.023 329.49C334.368 329.117 334.788 328.823 335.283 328.608C335.778 328.384 336.342 328.272 336.977 328.272C337.612 328.272 338.176 328.384 338.671 328.608C339.166 328.823 339.586 329.117 339.931 329.49C340.276 329.854 340.538 330.269 340.715 330.736C340.892 331.193 340.981 331.66 340.981 332.136V332.388C340.981 332.864 340.892 333.331 340.715 333.788C340.547 334.245 340.29 334.661 339.945 335.034C339.609 335.398 339.194 335.692 338.699 335.916C338.204 336.14 337.63 336.252 336.977 336.252ZM336.977 335.048C337.537 335.048 338.013 334.927 338.405 334.684C338.806 334.432 339.11 334.096 339.315 333.676C339.53 333.256 339.637 332.785 339.637 332.262C339.637 331.73 339.53 331.254 339.315 330.834C339.1 330.414 338.792 330.083 338.391 329.84C337.999 329.597 337.528 329.476 336.977 329.476C336.436 329.476 335.964 329.597 335.563 329.84C335.162 330.083 334.854 330.414 334.639 330.834C334.424 331.254 334.317 331.73 334.317 332.262C334.317 332.785 334.42 333.256 334.625 333.676C334.84 334.096 335.143 334.432 335.535 334.684C335.936 334.927 336.417 335.048 336.977 335.048ZM342.994 336V328.524H344.058V331.604H344.002C344.002 330.512 344.24 329.714 344.716 329.21C345.201 328.697 345.925 328.44 346.886 328.44H347.138V329.644H346.662C345.915 329.644 345.341 329.845 344.94 330.246C344.539 330.638 344.338 331.207 344.338 331.954V336H342.994ZM348.82 336V325.78H350.164V336H348.82ZM347.784 326.844V325.78H350.164V326.844H347.784ZM355.864 336.252C355.332 336.252 354.842 336.154 354.394 335.958C353.946 335.762 353.554 335.487 353.218 335.132C352.891 334.777 352.635 334.367 352.448 333.9C352.271 333.433 352.182 332.929 352.182 332.388V332.136C352.182 331.604 352.271 331.105 352.448 330.638C352.625 330.171 352.873 329.761 353.19 329.406C353.517 329.051 353.899 328.776 354.338 328.58C354.786 328.375 355.281 328.272 355.822 328.272C356.391 328.272 356.909 328.393 357.376 328.636C357.843 328.869 358.225 329.238 358.524 329.742C358.823 330.246 358.991 330.899 359.028 331.702L358.468 330.806V325.78H359.812V336H358.748V332.682H359.14C359.103 333.531 358.925 334.222 358.608 334.754C358.291 335.277 357.889 335.659 357.404 335.902C356.928 336.135 356.415 336.252 355.864 336.252ZM356.046 335.076C356.503 335.076 356.919 334.973 357.292 334.768C357.665 334.563 357.964 334.269 358.188 333.886C358.412 333.494 358.524 333.037 358.524 332.514V331.87C358.524 331.357 358.407 330.923 358.174 330.568C357.95 330.204 357.647 329.929 357.264 329.742C356.891 329.546 356.48 329.448 356.032 329.448C355.537 329.448 355.099 329.565 354.716 329.798C354.343 330.031 354.049 330.358 353.834 330.778C353.629 331.198 353.526 331.693 353.526 332.262C353.526 332.831 353.633 333.331 353.848 333.76C354.063 334.18 354.361 334.507 354.744 334.74C355.127 334.964 355.561 335.076 356.046 335.076ZM369.024 336.252C368.371 336.252 367.797 336.14 367.302 335.916C366.807 335.692 366.387 335.398 366.042 335.034C365.706 334.661 365.449 334.245 365.272 333.788C365.104 333.331 365.02 332.864 365.02 332.388V332.136C365.02 331.66 365.109 331.193 365.286 330.736C365.463 330.269 365.725 329.854 366.07 329.49C366.415 329.117 366.835 328.823 367.33 328.608C367.825 328.384 368.389 328.272 369.024 328.272C369.659 328.272 370.223 328.384 370.718 328.608C371.213 328.823 371.633 329.117 371.978 329.49C372.323 329.854 372.585 330.269 372.762 330.736C372.939 331.193 373.028 331.66 373.028 332.136V332.388C373.028 332.864 372.939 333.331 372.762 333.788C372.594 334.245 372.337 334.661 371.992 335.034C371.656 335.398 371.241 335.692 370.746 335.916C370.251 336.14 369.677 336.252 369.024 336.252ZM369.024 335.048C369.584 335.048 370.06 334.927 370.452 334.684C370.853 334.432 371.157 334.096 371.362 333.676C371.577 333.256 371.684 332.785 371.684 332.262C371.684 331.73 371.577 331.254 371.362 330.834C371.147 330.414 370.839 330.083 370.438 329.84C370.046 329.597 369.575 329.476 369.024 329.476C368.483 329.476 368.011 329.597 367.61 329.84C367.209 330.083 366.901 330.414 366.686 330.834C366.471 331.254 366.364 331.73 366.364 332.262C366.364 332.785 366.467 333.256 366.672 333.676C366.887 334.096 367.19 334.432 367.582 334.684C367.983 334.927 368.464 335.048 369.024 335.048ZM375.237 336V328.146C375.237 327.315 375.456 326.704 375.895 326.312C376.334 325.92 376.978 325.724 377.827 325.724H378.751V326.844H377.603C377.258 326.844 376.992 326.942 376.805 327.138C376.618 327.325 376.525 327.586 376.525 327.922V336H375.237ZM374.201 329.616V328.608H378.891V329.616H374.201ZM386.443 336.084C385.883 336.084 385.398 336.005 384.987 335.846C384.586 335.687 384.273 335.417 384.049 335.034C383.834 334.642 383.727 334.115 383.727 333.452V326.256H385.015V333.62C385.015 334.021 385.122 334.334 385.337 334.558C385.561 334.773 385.874 334.88 386.275 334.88H387.591V336.084H386.443ZM382.439 329.532V328.524H387.591V329.532H382.439ZM389.492 336V325.78H390.836V331.884H390.5C390.5 331.147 390.593 330.512 390.78 329.98C390.976 329.439 391.275 329.023 391.676 328.734C392.077 328.445 392.591 328.3 393.216 328.3H393.272C394.168 328.3 394.845 328.599 395.302 329.196C395.759 329.784 395.988 330.629 395.988 331.73V336H394.644V331.45C394.644 330.843 394.471 330.372 394.126 330.036C393.79 329.7 393.351 329.532 392.81 329.532C392.213 329.532 391.732 329.733 391.368 330.134C391.013 330.526 390.836 331.044 390.836 331.688V336H389.492ZM398.811 336V328.524H400.155V336H398.811ZM397.663 329.588V328.524H400.155V329.588H397.663ZM399.189 327.32C398.891 327.32 398.667 327.241 398.517 327.082C398.377 326.923 398.307 326.723 398.307 326.48C398.307 326.237 398.377 326.037 398.517 325.878C398.667 325.719 398.891 325.64 399.189 325.64C399.488 325.64 399.707 325.719 399.847 325.878C399.997 326.037 400.071 326.237 400.071 326.48C400.071 326.723 399.997 326.923 399.847 327.082C399.707 327.241 399.488 327.32 399.189 327.32ZM402.754 336V328.524H403.818V331.73H403.65C403.65 330.993 403.748 330.372 403.944 329.868C404.149 329.355 404.457 328.967 404.868 328.706C405.278 328.435 405.796 328.3 406.422 328.3H406.478C407.42 328.3 408.116 328.594 408.564 329.182C409.021 329.77 409.25 330.619 409.25 331.73V336H407.906V331.45C407.906 330.871 407.742 330.409 407.416 330.064C407.089 329.709 406.641 329.532 406.072 329.532C405.484 329.532 405.008 329.714 404.644 330.078C404.28 330.442 404.098 330.927 404.098 331.534V336H402.754ZM414.537 338.912C414.192 338.912 413.842 338.898 413.487 338.87C413.142 338.842 412.81 338.805 412.493 338.758V337.624C412.829 337.671 413.179 337.708 413.543 337.736C413.916 337.773 414.266 337.792 414.593 337.792C415.274 337.792 415.816 337.699 416.217 337.512C416.628 337.335 416.922 337.05 417.099 336.658C417.286 336.275 417.379 335.781 417.379 335.174V333.746L417.827 332.682C417.799 333.438 417.64 334.068 417.351 334.572C417.062 335.067 416.684 335.44 416.217 335.692C415.76 335.935 415.251 336.056 414.691 336.056C414.168 336.056 413.688 335.958 413.249 335.762C412.82 335.557 412.446 335.277 412.129 334.922C411.821 334.567 411.578 334.161 411.401 333.704C411.233 333.237 411.149 332.747 411.149 332.234V331.982C411.149 331.459 411.238 330.974 411.415 330.526C411.592 330.069 411.84 329.672 412.157 329.336C412.474 329 412.852 328.739 413.291 328.552C413.739 328.365 414.229 328.272 414.761 328.272C415.386 328.272 415.937 328.407 416.413 328.678C416.889 328.939 417.262 329.327 417.533 329.84C417.813 330.344 417.967 330.965 417.995 331.702L417.603 331.716V328.524H418.667V335.118C418.667 336.014 418.527 336.737 418.247 337.288C417.976 337.848 417.538 338.259 416.931 338.52C416.334 338.781 415.536 338.912 414.537 338.912ZM414.943 334.824C415.391 334.824 415.797 334.726 416.161 334.53C416.534 334.334 416.828 334.054 417.043 333.69C417.267 333.317 417.379 332.873 417.379 332.36V331.716C417.379 331.212 417.262 330.787 417.029 330.442C416.805 330.097 416.511 329.835 416.147 329.658C415.783 329.481 415.386 329.392 414.957 329.392C414.472 329.392 414.042 329.504 413.669 329.728C413.296 329.952 413.006 330.269 412.801 330.68C412.596 331.081 412.493 331.557 412.493 332.108C412.493 332.659 412.596 333.139 412.801 333.55C413.016 333.961 413.305 334.278 413.669 334.502C414.042 334.717 414.467 334.824 414.943 334.824ZM423.606 336.224C422.626 336.224 421.865 336.014 421.324 335.594C420.792 335.174 420.517 334.6 420.498 333.872H421.758C421.777 334.161 421.921 334.437 422.192 334.698C422.472 334.95 422.943 335.076 423.606 335.076C424.203 335.076 424.661 334.959 424.978 334.726C425.295 334.483 425.454 334.189 425.454 333.844C425.454 333.536 425.337 333.298 425.104 333.13C424.871 332.953 424.493 332.836 423.97 332.78L423.158 332.696C422.449 332.621 421.87 332.411 421.422 332.066C420.974 331.711 420.75 331.217 420.75 330.582C420.75 330.106 420.871 329.7 421.114 329.364C421.357 329.019 421.693 328.757 422.122 328.58C422.551 328.393 423.046 328.3 423.606 328.3C424.446 328.3 425.127 328.487 425.65 328.86C426.173 329.233 426.443 329.789 426.462 330.526H425.202C425.193 330.227 425.053 329.975 424.782 329.77C424.521 329.555 424.129 329.448 423.606 329.448C423.083 329.448 422.687 329.555 422.416 329.77C422.145 329.985 422.01 330.255 422.01 330.582C422.01 330.862 422.103 331.086 422.29 331.254C422.486 331.422 422.803 331.529 423.242 331.576L424.054 331.66C424.857 331.744 425.501 331.968 425.986 332.332C426.471 332.687 426.714 333.191 426.714 333.844C426.714 334.311 426.579 334.726 426.308 335.09C426.047 335.445 425.683 335.725 425.216 335.93C424.749 336.126 424.213 336.224 423.606 336.224Z" fill="#393838"/>
<g filter="url(#filter3_f_225_63)">
<ellipse cx="578" cy="0.5" rx="132" ry="127.5" fill="#E31FC4" fill-opacity="0.71"/>
</g>
<path d="M205.782 219V182.58H215.622V219H205.782ZM193.482 183.78V175.2H227.982V183.78H193.482ZM245.492 220.14C242.612 220.14 240.052 219.7 237.812 218.82C235.572 217.9 233.672 216.66 232.112 215.1C230.592 213.54 229.432 211.76 228.632 209.76C227.832 207.72 227.432 205.58 227.432 203.34V201.96C227.432 199.68 227.832 197.52 228.632 195.48C229.472 193.4 230.672 191.58 232.232 190.02C233.832 188.46 235.752 187.24 237.992 186.36C240.232 185.44 242.732 184.98 245.492 184.98C248.332 184.98 250.852 185.44 253.052 186.36C255.292 187.24 257.192 188.46 258.752 190.02C260.312 191.58 261.512 193.4 262.352 195.48C263.192 197.52 263.612 199.68 263.612 201.96V203.34C263.612 205.58 263.212 207.72 262.412 209.76C261.612 211.76 260.432 213.54 258.872 215.1C257.352 216.66 255.472 217.9 253.232 218.82C250.992 219.7 248.412 220.14 245.492 220.14ZM245.492 212.04C247.372 212.04 248.932 211.64 250.172 210.84C251.412 210.04 252.352 208.92 252.992 207.48C253.672 206.04 254.012 204.44 254.012 202.68C254.012 200.8 253.672 199.16 252.992 197.76C252.312 196.32 251.332 195.18 250.052 194.34C248.812 193.5 247.292 193.08 245.492 193.08C243.732 193.08 242.212 193.5 240.932 194.34C239.652 195.18 238.672 196.32 237.992 197.76C237.352 199.16 237.032 200.8 237.032 202.68C237.032 204.44 237.352 206.04 237.992 207.48C238.632 208.92 239.592 210.04 240.872 210.84C242.152 211.64 243.692 212.04 245.492 212.04ZM269.19 232.02V223.86H276.03C277.07 223.86 277.95 223.72 278.67 223.44C279.39 223.2 279.97 222.78 280.41 222.18C280.85 221.58 281.21 220.76 281.49 219.72L289.59 186.12H298.71L289.53 221.64C288.89 224.2 287.99 226.24 286.83 227.76C285.71 229.28 284.19 230.36 282.27 231C280.39 231.68 277.99 232.02 275.07 232.02H269.19ZM279.51 218.28V210.78H286.47V218.28H279.51ZM275.55 218.28L265.47 186.12H275.13L284.67 218.28H275.55ZM330.166 220.14C326.846 220.14 323.966 219.52 321.526 218.28C319.126 217 317.266 215.16 315.946 212.76C314.666 210.36 314.026 207.44 314.026 204V201.78H323.746V204.54C323.746 206.46 324.306 208.02 325.426 209.22C326.586 210.38 328.166 210.96 330.166 210.96C332.126 210.96 333.666 210.38 334.786 209.22C335.946 208.02 336.526 206.46 336.526 204.54V182.58H346.366V204C346.366 207.44 345.706 210.36 344.386 212.76C343.106 215.16 341.246 217 338.806 218.28C336.406 219.52 333.526 220.14 330.166 220.14ZM319.126 183.78V175.2H346.366V183.78H319.126ZM370.941 220.14C368.061 220.14 365.501 219.7 363.261 218.82C361.021 217.9 359.121 216.66 357.561 215.1C356.041 213.54 354.881 211.76 354.081 209.76C353.281 207.72 352.881 205.58 352.881 203.34V201.96C352.881 199.68 353.281 197.52 354.081 195.48C354.921 193.4 356.121 191.58 357.681 190.02C359.281 188.46 361.201 187.24 363.441 186.36C365.681 185.44 368.181 184.98 370.941 184.98C373.781 184.98 376.301 185.44 378.501 186.36C380.741 187.24 382.641 188.46 384.201 190.02C385.761 191.58 386.961 193.4 387.801 195.48C388.641 197.52 389.061 199.68 389.061 201.96V203.34C389.061 205.58 388.661 207.72 387.861 209.76C387.061 211.76 385.881 213.54 384.321 215.1C382.801 216.66 380.921 217.9 378.681 218.82C376.441 219.7 373.861 220.14 370.941 220.14ZM370.941 212.04C372.821 212.04 374.381 211.64 375.621 210.84C376.861 210.04 377.801 208.92 378.441 207.48C379.121 206.04 379.461 204.44 379.461 202.68C379.461 200.8 379.121 199.16 378.441 197.76C377.761 196.32 376.781 195.18 375.501 194.34C374.261 193.5 372.741 193.08 370.941 193.08C369.181 193.08 367.661 193.5 366.381 194.34C365.101 195.18 364.121 196.32 363.441 197.76C362.801 199.16 362.481 200.8 362.481 202.68C362.481 204.44 362.801 206.04 363.441 207.48C364.081 208.92 365.041 210.04 366.321 210.84C367.601 211.64 369.141 212.04 370.941 212.04ZM394.639 232.02V223.86H401.479C402.519 223.86 403.399 223.72 404.119 223.44C404.839 223.2 405.419 222.78 405.859 222.18C406.299 221.58 406.659 220.76 406.939 219.72L415.039 186.12H424.159L414.979 221.64C414.339 224.2 413.439 226.24 412.279 227.76C411.159 229.28 409.639 230.36 407.719 231C405.839 231.68 403.439 232.02 400.519 232.02H394.639ZM404.959 218.28V210.78H411.919V218.28H404.959ZM400.999 218.28L390.919 186.12H400.579L410.119 218.28H400.999Z" fill="url(#paint0_linear_225_63)"/>
<path d="M335.729 131.842C331.833 131.842 328.663 134.653 328.663 138.109C328.663 141.565 331.833 144.376 335.729 144.376C339.625 144.376 342.795 141.565 342.795 138.109C342.795 134.653 339.625 131.842 335.729 131.842ZM335.729 142.808C332.808 142.808 330.431 140.7 330.431 138.109C330.431 135.518 332.808 133.409 335.729 133.409C338.651 133.409 341.028 135.518 341.028 138.109C341.028 140.7 338.651 142.808 335.729 142.808Z" fill="black"/>
<path d="M292.505 131.842C288.609 131.842 285.439 134.653 285.439 138.109C285.439 141.565 288.609 144.376 292.505 144.376C296.402 144.376 299.572 141.565 299.572 138.109C299.572 134.653 296.402 131.842 292.505 131.842ZM292.505 142.808C289.584 142.808 287.207 140.7 287.207 138.109C287.207 135.518 289.584 133.409 292.505 133.409C295.427 133.409 297.804 135.518 297.804 138.109C297.804 140.7 295.427 142.808 292.505 142.808Z" fill="black"/>
<path d="M366.444 116.354C366.443 116.349 366.441 116.344 366.44 116.339C365.438 112.607 363.145 109.315 360.005 106.855C359.954 106.802 359.894 106.757 359.83 106.718C356.633 104.27 352.582 102.676 348.134 102.337C347.704 86.0951 332.675 73 314.261 73C295.848 73 280.819 86.0961 280.39 102.338C279.085 102.442 277.862 102.662 276.722 102.998V86.9346C276.722 86.5017 276.327 86.1507 275.838 86.1507C275.35 86.1507 274.954 86.5017 274.954 86.9346V103.052C274.954 103.243 275.035 103.416 275.163 103.552C272.986 104.466 271.161 105.864 269.706 107.742C267.281 110.871 266 115.31 266 120.58C266 125.484 266.696 129.073 268.189 131.875C269.919 135.12 272.801 137.256 276.757 138.234C276.834 145.88 283.867 152.08 292.505 152.08C300.894 152.08 307.771 146.233 308.231 138.893H320.004C320.464 146.233 327.34 152.08 335.729 152.08C344.336 152.08 351.349 145.924 351.475 138.316C355.73 137.353 359.578 135.178 362.37 132.139C365.356 128.89 367 124.784 367 120.58C367 119.126 366.807 117.711 366.444 116.354ZM364.584 116.226C363.643 116.904 362.477 117.274 361.252 117.274C358.33 117.274 355.954 115.165 355.954 112.574C355.954 110.686 357.214 109.009 359.134 108.268C361.721 110.382 363.642 113.128 364.584 116.226ZM314.261 74.5678C331.674 74.5678 345.894 86.9228 346.364 102.268C346.36 102.268 346.357 102.268 346.353 102.268H341.815C341.816 102.256 341.819 102.244 341.819 102.232C341.819 88.7549 329.457 77.7904 314.262 77.7904C299.067 77.7904 286.705 88.7549 286.705 102.232C286.705 102.244 286.708 102.256 286.709 102.268H282.171C282.167 102.268 282.164 102.268 282.16 102.268C282.63 86.9228 296.849 74.5678 314.261 74.5678ZM288.468 102.268C288.469 102.256 288.473 102.244 288.473 102.232C288.473 89.8819 299.566 79.788 313.378 79.3732V102.268H288.468ZM315.146 79.3732C328.958 79.788 340.052 89.8818 340.052 102.232C340.052 102.244 340.055 102.256 340.056 102.268H315.146V79.3732ZM269.787 131.204C268.409 128.62 267.768 125.244 267.768 120.58C267.768 115.629 268.942 111.497 271.163 108.63C273.628 105.449 277.331 103.836 282.171 103.836H346.353C350.591 103.836 354.506 105.081 357.66 107.179C355.537 108.288 354.186 110.318 354.186 112.574C354.186 115.737 356.842 118.358 360.278 118.78C359.984 124.485 355.415 129.436 349.149 130.803C346.374 126.807 341.397 124.138 335.729 124.138C327.34 124.138 320.464 129.984 320.004 137.325H308.231C307.771 129.984 300.894 124.138 292.505 124.138C284.386 124.138 277.684 129.615 276.844 136.622C273.568 135.728 271.251 133.95 269.787 131.204ZM292.505 150.512C284.795 150.512 278.522 144.948 278.522 138.109C278.522 131.27 284.795 125.706 292.505 125.706C300.216 125.706 306.49 131.27 306.49 138.109C306.49 144.948 300.216 150.512 292.505 150.512ZM335.729 150.512C328.018 150.512 321.745 144.948 321.745 138.109C321.745 131.27 328.018 125.706 335.729 125.706C343.44 125.706 349.713 131.27 349.713 138.109C349.713 144.948 343.44 150.512 335.729 150.512ZM351.402 136.711C351.223 135.122 350.74 133.612 350.01 132.224C353.273 131.425 356.218 129.729 358.373 127.386C360.608 124.958 361.898 121.93 362.047 118.801C363.098 118.697 364.099 118.386 364.988 117.893C365.148 118.768 365.233 119.665 365.233 120.58C365.232 128.089 359.474 134.729 351.402 136.711Z" fill="black"/>
<path d="M284.352 107.058C284.84 107.058 285.236 106.707 285.236 106.274C285.236 105.841 284.84 105.49 284.352 105.49C279.905 105.49 276.34 107.057 274.045 110.02C272.047 112.598 270.991 116.25 270.991 120.58C270.991 121.013 271.387 121.364 271.875 121.364C272.363 121.364 272.759 121.013 272.759 120.58C272.759 116.568 273.707 113.224 275.502 110.908C277.481 108.353 280.458 107.058 284.352 107.058Z" fill="black"/>
<path d="M299.915 109.788H310.469V121.803C310.469 122.236 310.864 122.587 311.353 122.587C311.841 122.587 312.236 122.236 312.236 121.803V109.004C312.236 108.571 311.841 108.22 311.353 108.22H299.915C299.427 108.22 299.031 108.571 299.031 109.004C299.031 109.437 299.427 109.788 299.915 109.788Z" fill="black"/>
<path d="M319.218 109.788H330.41C330.899 109.788 331.294 109.437 331.294 109.004C331.294 108.571 330.899 108.22 330.41 108.22H319.218C318.73 108.22 318.334 108.571 318.334 109.004C318.334 109.437 318.73 109.788 319.218 109.788Z" fill="black"/>
</g>
<defs>
<filter id="filter0_f_225_63" x="-62" y="-146" width="741" height="730" filterUnits="userSpaceOnUse" color-interpolation-filters="sRGB">
<feFlood flood-opacity="0" result="BackgroundImageFix"/>
<feBlend mode="normal" in="SourceGraphic" in2="BackgroundImageFix" result="shape"/>
<feGaussianBlur stdDeviation="125" result="effect1_foregroundBlur_225_63"/>
</filter>
<filter id="filter1_f_225_63" x="-400" y="86" width="770" height="765" filterUnits="userSpaceOnUse" color-interpolation-filters="sRGB">
<feFlood flood-opacity="0" result="BackgroundImageFix"/>
<feBlend mode="normal" in="SourceGraphic" in2="BackgroundImageFix" result="shape"/>
<feGaussianBlur stdDeviation="125" result="effect1_foregroundBlur_225_63"/>
</filter>
<filter id="filter2_f_225_63" x="-347" y="-377" width="735" height="725" filterUnits="userSpaceOnUse" color-interpolation-filters="sRGB">
<feFlood flood-opacity="0" result="BackgroundImageFix"/>
<feBlend mode="normal" in="SourceGraphic" in2="BackgroundImageFix" result="shape"/>
<feGaussianBlur stdDeviation="125" result="effect1_foregroundBlur_225_63"/>
</filter>
<filter id="filter3_f_225_63" x="196" y="-377" width="764" height="755" filterUnits="userSpaceOnUse" color-interpolation-filters="sRGB">
<feFlood flood-opacity="0" result="BackgroundImageFix"/>
<feBlend mode="normal" in="SourceGraphic" in2="BackgroundImageFix" result="shape"/>
<feGaussianBlur stdDeviation="125" result="effect1_foregroundBlur_225_63"/>
</filter>
<linearGradient id="paint0_linear_225_63" x1="308.5" y1="161" x2="308.5" y2="214" gradientUnits="userSpaceOnUse">
<stop stop-color="#352BA6"/>
<stop offset="1" stop-color="#3D3C45"/>
</linearGradient>
<clipPath id="clip0_225_63">
<rect width="616" height="440" rx="11" fill="white"/>
</clipPath>
</defs>
</svg>
