<svg width="616" height="440" viewBox="0 0 616 440" fill="none" xmlns="http://www.w3.org/2000/svg">
<g clip-path="url(#clip0_224_46)">
<rect width="616" height="440" rx="11" fill="#060C29"/>
<path d="M106.96 216L95.9797 171.47H106.289L114.89 209.29L112.755 207.887H118.306L115.927 209.29L122.576 173.117H130.872L122.149 216H106.96ZM133.495 216L124.101 173.117H132.824L140.51 209.29L138.192 207.887H143.499L141.486 209.29L148.989 171.47H158.749L148.989 216H133.495ZM179.179 217.159C176.251 217.159 173.648 216.712 171.371 215.817C169.094 214.882 167.162 213.621 165.576 212.035C164.031 210.449 162.851 208.639 162.038 206.606C161.225 204.532 160.818 202.356 160.818 200.079V198.676C160.818 196.358 161.225 194.162 162.038 192.088C162.892 189.973 164.112 188.123 165.698 186.537C167.325 184.951 169.277 183.711 171.554 182.816C173.831 181.881 176.373 181.413 179.179 181.413C182.066 181.413 184.628 181.881 186.865 182.816C189.142 183.711 191.074 184.951 192.66 186.537C194.246 188.123 195.466 189.973 196.32 192.088C197.174 194.162 197.601 196.358 197.601 198.676V200.079C197.601 202.356 197.194 204.532 196.381 206.606C195.568 208.639 194.368 210.449 192.782 212.035C191.237 213.621 189.325 214.882 187.048 215.817C184.771 216.712 182.148 217.159 179.179 217.159ZM179.179 208.924C181.09 208.924 182.676 208.517 183.937 207.704C185.198 206.891 186.153 205.752 186.804 204.288C187.495 202.824 187.841 201.197 187.841 199.408C187.841 197.497 187.495 195.829 186.804 194.406C186.113 192.942 185.116 191.783 183.815 190.929C182.554 190.075 181.009 189.648 179.179 189.648C177.39 189.648 175.844 190.075 174.543 190.929C173.242 191.783 172.245 192.942 171.554 194.406C170.903 195.829 170.578 197.497 170.578 199.408C170.578 201.197 170.903 202.824 171.554 204.288C172.205 205.752 173.181 206.891 174.482 207.704C175.783 208.517 177.349 208.924 179.179 208.924ZM204.412 216V182.572H212.159V196.907H211.61C211.61 193.491 212.037 190.644 212.891 188.367C213.786 186.09 215.128 184.382 216.917 183.243C218.707 182.104 220.882 181.535 223.444 181.535H223.871C227.775 181.535 230.744 182.816 232.777 185.378C234.851 187.899 235.888 191.742 235.888 196.907V216H226.128V196.358C226.128 194.569 225.6 193.105 224.542 191.966C223.485 190.827 222.062 190.258 220.272 190.258C218.442 190.258 216.958 190.848 215.819 192.027C214.721 193.166 214.172 194.67 214.172 196.541V216H204.412ZM257.991 217.098C255.633 217.098 253.477 216.671 251.525 215.817C249.614 214.963 247.947 213.784 246.523 212.279C245.1 210.734 244.002 208.924 243.229 206.85C242.497 204.776 242.131 202.539 242.131 200.14V198.737C242.131 196.338 242.477 194.101 243.168 192.027C243.9 189.953 244.937 188.143 246.279 186.598C247.662 185.012 249.309 183.792 251.22 182.938C253.132 182.043 255.267 181.596 257.625 181.596C260.309 181.596 262.627 182.186 264.579 183.365C266.531 184.504 268.056 186.212 269.154 188.489C270.252 190.726 270.862 193.491 270.984 196.785L268.422 194.406V171.47H278.243V216H270.496V202.153H271.838C271.716 205.325 271.045 208.029 269.825 210.266C268.646 212.503 267.04 214.211 265.006 215.39C262.973 216.529 260.635 217.098 257.991 217.098ZM260.431 208.924C261.936 208.924 263.298 208.599 264.518 207.948C265.779 207.257 266.775 206.26 267.507 204.959C268.28 203.658 268.666 202.092 268.666 200.262V198.005C268.666 196.216 268.28 194.711 267.507 193.491C266.735 192.271 265.718 191.336 264.457 190.685C263.197 190.034 261.834 189.709 260.37 189.709C258.744 189.709 257.28 190.136 255.978 190.99C254.718 191.803 253.721 192.942 252.989 194.406C252.257 195.829 251.891 197.497 251.891 199.408C251.891 201.36 252.257 203.048 252.989 204.471C253.721 205.894 254.738 206.992 256.039 207.765C257.341 208.538 258.805 208.924 260.431 208.924ZM302.407 217.159C299.56 217.159 297.039 216.671 294.843 215.695C292.688 214.719 290.878 213.418 289.414 211.791C287.991 210.124 286.893 208.273 286.12 206.24C285.388 204.166 285.022 202.051 285.022 199.896V198.676C285.022 196.439 285.388 194.304 286.12 192.271C286.893 190.197 287.991 188.347 289.414 186.72C290.837 185.093 292.606 183.812 294.721 182.877C296.876 181.901 299.316 181.413 302.041 181.413C305.62 181.413 308.629 182.226 311.069 183.853C313.55 185.439 315.441 187.533 316.742 190.136C318.043 192.698 318.694 195.504 318.694 198.554V201.848H289.109V196.297H312.777L309.605 198.859C309.605 196.866 309.32 195.158 308.751 193.735C308.182 192.312 307.328 191.234 306.189 190.502C305.091 189.729 303.708 189.343 302.041 189.343C300.333 189.343 298.889 189.729 297.71 190.502C296.531 191.275 295.636 192.413 295.026 193.918C294.416 195.382 294.111 197.192 294.111 199.347C294.111 201.34 294.396 203.088 294.965 204.593C295.534 206.057 296.429 207.196 297.649 208.009C298.869 208.822 300.455 209.229 302.407 209.229C304.196 209.229 305.66 208.883 306.799 208.192C307.938 207.501 308.71 206.647 309.117 205.63H318.084C317.596 207.867 316.64 209.859 315.217 211.608C313.794 213.357 312.004 214.719 309.849 215.695C307.694 216.671 305.213 217.159 302.407 217.159ZM325.161 216V182.572H332.908V196.907H332.725C332.725 192.19 333.722 188.55 335.714 185.988C337.748 183.426 340.676 182.145 344.498 182.145H345.779V190.563H343.339C340.655 190.563 338.581 191.295 337.117 192.759C335.653 194.182 334.921 196.256 334.921 198.981V216H325.161ZM364.193 216V171.104H374.197V216H364.193ZM391.216 216L378.162 196.846H389.142L402.806 216H391.216ZM371.513 201.726V193.857H382.493C383.957 193.857 385.218 193.572 386.275 193.003C387.373 192.393 388.207 191.559 388.776 190.502C389.386 189.404 389.691 188.143 389.691 186.72C389.691 185.297 389.386 184.056 388.776 182.999C388.207 181.901 387.373 181.067 386.275 180.498C385.218 179.888 383.957 179.583 382.493 179.583H371.513V171.104H381.7C385.401 171.104 388.613 171.673 391.338 172.812C394.063 173.91 396.157 175.557 397.621 177.753C399.085 179.949 399.817 182.714 399.817 186.049V187.025C399.817 190.319 399.065 193.064 397.56 195.26C396.096 197.415 394.002 199.042 391.277 200.14C388.593 201.197 385.401 201.726 381.7 201.726H371.513ZM423.894 217.159C420.966 217.159 418.363 216.712 416.086 215.817C413.808 214.882 411.877 213.621 410.291 212.035C408.745 210.449 407.566 208.639 406.753 206.606C405.939 204.532 405.533 202.356 405.533 200.079V198.676C405.533 196.358 405.939 194.162 406.753 192.088C407.607 189.973 408.827 188.123 410.413 186.537C412.039 184.951 413.991 183.711 416.269 182.816C418.546 181.881 421.088 181.413 423.894 181.413C426.781 181.413 429.343 181.881 431.58 182.816C433.857 183.711 435.789 184.951 437.375 186.537C438.961 188.123 440.181 189.973 441.035 192.088C441.889 194.162 442.316 196.358 442.316 198.676V200.079C442.316 202.356 441.909 204.532 441.096 206.606C440.282 208.639 439.083 210.449 437.497 212.035C435.951 213.621 434.04 214.882 431.763 215.817C429.485 216.712 426.862 217.159 423.894 217.159ZM423.894 208.924C425.805 208.924 427.391 208.517 428.652 207.704C429.912 206.891 430.868 205.752 431.519 204.288C432.21 202.824 432.556 201.197 432.556 199.408C432.556 197.497 432.21 195.829 431.519 194.406C430.827 192.942 429.831 191.783 428.53 190.929C427.269 190.075 425.724 189.648 423.894 189.648C422.104 189.648 420.559 190.075 419.258 190.929C417.956 191.783 416.96 192.942 416.269 194.406C415.618 195.829 415.293 197.497 415.293 199.408C415.293 201.197 415.618 202.824 416.269 204.288C416.919 205.752 417.895 206.891 419.197 207.704C420.498 208.517 422.064 208.924 423.894 208.924ZM465.414 217.159C462.486 217.159 459.884 216.712 457.606 215.817C455.329 214.882 453.397 213.621 451.811 212.035C450.266 210.449 449.087 208.639 448.273 206.606C447.46 204.532 447.053 202.356 447.053 200.079V198.676C447.053 196.358 447.46 194.162 448.273 192.088C449.127 189.973 450.347 188.123 451.933 186.537C453.56 184.951 455.512 183.711 457.789 182.816C460.067 181.881 462.608 181.413 465.414 181.413C468.302 181.413 470.864 181.881 473.1 182.816C475.378 183.711 477.309 184.951 478.895 186.537C480.481 188.123 481.701 189.973 482.555 192.088C483.409 194.162 483.836 196.358 483.836 198.676V200.079C483.836 202.356 483.43 204.532 482.616 206.606C481.803 208.639 480.603 210.449 479.017 212.035C477.472 213.621 475.561 214.882 473.283 215.817C471.006 216.712 468.383 217.159 465.414 217.159ZM465.414 208.924C467.326 208.924 468.912 208.517 470.172 207.704C471.433 206.891 472.389 205.752 473.039 204.288C473.731 202.824 474.076 201.197 474.076 199.408C474.076 197.497 473.731 195.829 473.039 194.406C472.348 192.942 471.352 191.783 470.05 190.929C468.79 190.075 467.244 189.648 465.414 189.648C463.625 189.648 462.08 190.075 460.778 190.929C459.477 191.783 458.481 192.942 457.789 194.406C457.139 195.829 456.813 197.497 456.813 199.408C456.813 201.197 457.139 202.824 457.789 204.288C458.44 205.752 459.416 206.891 460.717 207.704C462.019 208.517 463.584 208.924 465.414 208.924ZM505.837 216.427C502.461 216.427 499.737 216.02 497.663 215.207C495.589 214.353 494.064 212.95 493.088 210.998C492.152 209.005 491.685 206.321 491.685 202.946V173.544H500.774V203.312C500.774 204.898 501.18 206.118 501.994 206.972C502.848 207.785 504.047 208.192 505.593 208.192H510.534V216.427H505.837ZM486.622 189.709V182.572H510.534V189.709H486.622ZM529.547 217.037C524.789 217.037 521.068 216.061 518.384 214.109C515.7 212.157 514.276 209.412 514.114 205.874H522.776C522.938 206.931 523.569 207.887 524.667 208.741C525.805 209.554 527.493 209.961 529.73 209.961C531.438 209.961 532.841 209.676 533.939 209.107C535.077 208.497 535.647 207.643 535.647 206.545C535.647 205.569 535.22 204.796 534.366 204.227C533.512 203.617 531.987 203.19 529.791 202.946L527.168 202.702C523.142 202.295 520.112 201.177 518.079 199.347C516.086 197.517 515.09 195.179 515.09 192.332C515.09 189.973 515.679 188.001 516.859 186.415C518.038 184.829 519.665 183.629 521.739 182.816C523.853 182.003 526.253 181.596 528.937 181.596C533.247 181.596 536.724 182.552 539.368 184.463C542.011 186.334 543.394 189.058 543.516 192.637H534.854C534.691 191.539 534.122 190.624 533.146 189.892C532.17 189.119 530.726 188.733 528.815 188.733C527.31 188.733 526.11 189.018 525.216 189.587C524.321 190.156 523.874 190.929 523.874 191.905C523.874 192.84 524.26 193.552 525.033 194.04C525.805 194.528 527.066 194.874 528.815 195.077L531.438 195.321C535.545 195.768 538.737 196.907 541.015 198.737C543.292 200.567 544.431 203.027 544.431 206.118C544.431 208.355 543.821 210.307 542.601 211.974C541.381 213.601 539.652 214.861 537.416 215.756C535.179 216.61 532.556 217.037 529.547 217.037Z" fill="url(#paint0_linear_224_46)"/>
<path d="M188.248 286.14C184.288 286.14 180.948 285.52 178.228 284.28C175.508 283 173.448 281.28 172.048 279.12C170.648 276.92 169.948 274.4 169.948 271.56H179.488C179.488 272.68 179.788 273.72 180.388 274.68C181.028 275.64 181.988 276.42 183.268 277.02C184.548 277.58 186.208 277.86 188.248 277.86C190.088 277.86 191.628 277.62 192.868 277.14C194.108 276.66 195.048 276 195.688 275.16C196.328 274.28 196.648 273.28 196.648 272.16C196.648 270.76 196.048 269.66 194.848 268.86C193.648 268.02 191.708 267.48 189.028 267.24L185.728 266.94C181.368 266.58 177.888 265.22 175.288 262.86C172.688 260.5 171.388 257.38 171.388 253.5C171.388 250.7 172.048 248.28 173.368 246.24C174.728 244.2 176.608 242.64 179.008 241.56C181.408 240.44 184.248 239.88 187.528 239.88C190.968 239.88 193.908 240.48 196.348 241.68C198.828 242.84 200.728 244.5 202.048 246.66C203.368 248.78 204.028 251.28 204.028 254.16H194.428C194.428 253.08 194.168 252.1 193.648 251.22C193.128 250.3 192.348 249.56 191.308 249C190.308 248.44 189.048 248.16 187.528 248.16C186.088 248.16 184.868 248.4 183.868 248.88C182.908 249.36 182.188 250.02 181.708 250.86C181.228 251.66 180.988 252.54 180.988 253.5C180.988 254.74 181.428 255.82 182.308 256.74C183.188 257.66 184.628 258.2 186.628 258.36L189.988 258.66C193.188 258.94 196.008 259.64 198.448 260.76C200.888 261.84 202.788 263.34 204.148 265.26C205.548 267.14 206.248 269.44 206.248 272.16C206.248 274.96 205.508 277.42 204.028 279.54C202.588 281.62 200.528 283.24 197.848 284.4C195.168 285.56 191.968 286.14 188.248 286.14ZM227.247 286.14C224.407 286.14 221.927 285.68 219.807 284.76C217.727 283.8 215.987 282.52 214.587 280.92C213.187 279.32 212.147 277.52 211.467 275.52C210.787 273.48 210.447 271.38 210.447 269.22V268.08C210.447 265.84 210.807 263.7 211.527 261.66C212.247 259.58 213.307 257.74 214.707 256.14C216.107 254.54 217.847 253.28 219.927 252.36C222.047 251.44 224.467 250.98 227.187 250.98C230.147 250.98 232.767 251.56 235.047 252.72C237.327 253.84 239.147 255.42 240.507 257.46C241.867 259.5 242.627 261.84 242.787 264.48H233.367C233.207 263 232.607 261.76 231.567 260.76C230.567 259.72 229.107 259.2 227.187 259.2C225.587 259.2 224.247 259.6 223.167 260.4C222.127 261.2 221.347 262.3 220.827 263.7C220.307 265.1 220.047 266.76 220.047 268.68C220.047 270.44 220.287 272.04 220.767 273.48C221.247 274.88 222.007 275.98 223.047 276.78C224.127 277.54 225.527 277.92 227.247 277.92C228.527 277.92 229.607 277.7 230.487 277.26C231.407 276.78 232.127 276.14 232.647 275.34C233.207 274.5 233.547 273.54 233.667 272.46H243.027C242.907 275.18 242.147 277.58 240.747 279.66C239.347 281.7 237.487 283.3 235.167 284.46C232.847 285.58 230.207 286.14 227.247 286.14ZM249.167 285V241.2H258.767V266.46H257.327C257.327 263.14 257.747 260.34 258.587 258.06C259.427 255.78 260.667 254.06 262.307 252.9C263.947 251.7 266.007 251.1 268.487 251.1H268.907C272.547 251.1 275.327 252.4 277.247 255C279.167 257.56 280.127 261.32 280.127 266.28V285H270.527V265.68C270.527 263.88 269.987 262.44 268.907 261.36C267.867 260.24 266.487 259.68 264.767 259.68C262.967 259.68 261.507 260.26 260.387 261.42C259.307 262.58 258.767 264.12 258.767 266.04V285H249.167ZM304.328 286.14C301.448 286.14 298.888 285.7 296.648 284.82C294.408 283.9 292.508 282.66 290.948 281.1C289.428 279.54 288.268 277.76 287.468 275.76C286.668 273.72 286.268 271.58 286.268 269.34V267.96C286.268 265.68 286.668 263.52 287.468 261.48C288.308 259.4 289.508 257.58 291.068 256.02C292.668 254.46 294.588 253.24 296.828 252.36C299.068 251.44 301.568 250.98 304.328 250.98C307.168 250.98 309.688 251.44 311.888 252.36C314.128 253.24 316.028 254.46 317.588 256.02C319.148 257.58 320.348 259.4 321.188 261.48C322.028 263.52 322.448 265.68 322.448 267.96V269.34C322.448 271.58 322.048 273.72 321.248 275.76C320.448 277.76 319.268 279.54 317.708 281.1C316.188 282.66 314.308 283.9 312.068 284.82C309.828 285.7 307.248 286.14 304.328 286.14ZM304.328 278.04C306.208 278.04 307.768 277.64 309.008 276.84C310.248 276.04 311.188 274.92 311.828 273.48C312.508 272.04 312.848 270.44 312.848 268.68C312.848 266.8 312.508 265.16 311.828 263.76C311.148 262.32 310.168 261.18 308.888 260.34C307.648 259.5 306.128 259.08 304.328 259.08C302.568 259.08 301.048 259.5 299.768 260.34C298.488 261.18 297.508 262.32 296.828 263.76C296.188 265.16 295.868 266.8 295.868 268.68C295.868 270.44 296.188 272.04 296.828 273.48C297.468 274.92 298.428 276.04 299.708 276.84C300.988 277.64 302.528 278.04 304.328 278.04ZM329.568 285V241.2H339.228V285H329.568ZM325.668 248.28V241.2H339.228V248.28H325.668ZM367.933 285V275.28H366.313V264.72C366.313 263.04 365.913 261.78 365.113 260.94C364.313 260.1 363.033 259.68 361.273 259.68C360.393 259.68 359.233 259.7 357.793 259.74C356.353 259.78 354.873 259.84 353.353 259.92C351.833 260 350.453 260.08 349.213 260.16V252.06C350.133 251.98 351.213 251.9 352.453 251.82C353.693 251.74 354.973 251.68 356.293 251.64C357.613 251.6 358.853 251.58 360.013 251.58C363.373 251.58 366.193 252.06 368.473 253.02C370.793 253.98 372.553 255.44 373.753 257.4C374.953 259.32 375.553 261.8 375.553 264.84V285H367.933ZM357.433 285.84C355.073 285.84 352.993 285.42 351.193 284.58C349.433 283.74 348.053 282.54 347.053 280.98C346.053 279.38 345.553 277.48 345.553 275.28C345.553 272.88 346.173 270.92 347.413 269.4C348.653 267.84 350.393 266.7 352.633 265.98C354.873 265.22 357.453 264.84 360.373 264.84H367.393V270.18H360.313C358.633 270.18 357.333 270.6 356.413 271.44C355.533 272.24 355.093 273.34 355.093 274.74C355.093 276.06 355.533 277.14 356.413 277.98C357.333 278.78 358.633 279.18 360.313 279.18C361.393 279.18 362.353 279 363.193 278.64C364.073 278.24 364.793 277.58 365.353 276.66C365.913 275.74 366.233 274.46 366.313 272.82L368.593 275.22C368.393 277.5 367.833 279.42 366.913 280.98C366.033 282.54 364.793 283.74 363.193 284.58C361.633 285.42 359.713 285.84 357.433 285.84ZM383.698 285V252.12H391.318V266.22H391.138C391.138 261.58 392.118 258 394.078 255.48C396.078 252.96 398.958 251.7 402.718 251.7H403.978V259.98H401.578C398.938 259.98 396.898 260.7 395.458 262.14C394.018 263.54 393.298 265.58 393.298 268.26V285H383.698ZM421.432 286.02C416.752 286.02 413.092 285.06 410.452 283.14C407.812 281.22 406.412 278.52 406.252 275.04H414.772C414.932 276.08 415.552 277.02 416.632 277.86C417.752 278.66 419.412 279.06 421.612 279.06C423.292 279.06 424.672 278.78 425.752 278.22C426.872 277.62 427.432 276.78 427.432 275.7C427.432 274.74 427.012 273.98 426.172 273.42C425.332 272.82 423.832 272.4 421.672 272.16L419.092 271.92C415.132 271.52 412.152 270.42 410.152 268.62C408.192 266.82 407.212 264.52 407.212 261.72C407.212 259.4 407.792 257.46 408.952 255.9C410.112 254.34 411.712 253.16 413.752 252.36C415.832 251.56 418.192 251.16 420.832 251.16C425.072 251.16 428.492 252.1 431.092 253.98C433.692 255.82 435.052 258.5 435.172 262.02H426.652C426.492 260.94 425.932 260.04 424.972 259.32C424.012 258.56 422.592 258.18 420.712 258.18C419.232 258.18 418.052 258.46 417.172 259.02C416.292 259.58 415.852 260.34 415.852 261.3C415.852 262.22 416.232 262.92 416.992 263.4C417.752 263.88 418.992 264.22 420.712 264.42L423.292 264.66C427.332 265.1 430.472 266.22 432.712 268.02C434.952 269.82 436.072 272.24 436.072 275.28C436.072 277.48 435.472 279.4 434.272 281.04C433.072 282.64 431.372 283.88 429.172 284.76C426.972 285.6 424.392 286.02 421.432 286.02Z" fill="white"/>
<path d="M180.28 333.36C178.947 333.36 177.807 333.127 176.86 332.66C175.927 332.193 175.174 331.587 174.6 330.84C174.027 330.093 173.607 329.287 173.34 328.42C173.074 327.54 172.94 326.693 172.94 325.88V325.44C172.94 324.56 173.074 323.68 173.34 322.8C173.62 321.92 174.047 321.12 174.62 320.4C175.194 319.68 175.94 319.1 176.86 318.66C177.78 318.22 178.88 318 180.16 318C181.467 318 182.587 318.227 183.52 318.68C184.454 319.133 185.194 319.767 185.74 320.58C186.287 321.393 186.62 322.353 186.74 323.46H184.74C184.634 322.633 184.367 321.953 183.94 321.42C183.514 320.873 182.974 320.467 182.32 320.2C181.68 319.933 180.96 319.8 180.16 319.8C179.294 319.8 178.534 319.953 177.88 320.26C177.227 320.553 176.68 320.973 176.24 321.52C175.814 322.053 175.487 322.673 175.26 323.38C175.047 324.087 174.94 324.853 174.94 325.68C174.94 326.467 175.047 327.213 175.26 327.92C175.487 328.627 175.82 329.253 176.26 329.8C176.714 330.347 177.274 330.78 177.94 331.1C178.607 331.407 179.387 331.56 180.28 331.56C181.534 331.56 182.587 331.247 183.44 330.62C184.294 329.993 184.814 329.087 185 327.9H187C186.867 328.9 186.527 329.813 185.98 330.64C185.447 331.467 184.7 332.127 183.74 332.62C182.794 333.113 181.64 333.36 180.28 333.36ZM189.559 333V318.4H191.479V327.12H190.999C190.999 326.067 191.132 325.16 191.399 324.4C191.679 323.627 192.105 323.033 192.679 322.62C193.252 322.207 193.985 322 194.879 322H194.959C196.239 322 197.205 322.427 197.859 323.28C198.512 324.12 198.839 325.327 198.839 326.9V333H196.919V326.5C196.919 325.633 196.672 324.96 196.179 324.48C195.699 324 195.072 323.76 194.299 323.76C193.445 323.76 192.759 324.047 192.239 324.62C191.732 325.18 191.479 325.92 191.479 326.84V333H189.559ZM208.812 333V329.8H208.492V326.1C208.492 325.367 208.298 324.813 207.912 324.44C207.538 324.067 206.985 323.88 206.252 323.88C205.838 323.88 205.412 323.887 204.972 323.9C204.532 323.913 204.112 323.927 203.712 323.94C203.312 323.953 202.965 323.973 202.672 324V322.32C202.965 322.293 203.272 322.273 203.592 322.26C203.925 322.233 204.265 322.22 204.612 322.22C204.958 322.207 205.292 322.2 205.612 322.2C206.705 322.2 207.598 322.333 208.292 322.6C208.985 322.853 209.498 323.273 209.832 323.86C210.165 324.447 210.332 325.24 210.332 326.24V333H208.812ZM205.312 333.28C204.512 333.28 203.818 333.147 203.232 332.88C202.658 332.6 202.212 332.2 201.892 331.68C201.585 331.16 201.432 330.533 201.432 329.8C201.432 329.04 201.598 328.407 201.932 327.9C202.278 327.393 202.778 327.013 203.432 326.76C204.085 326.493 204.872 326.36 205.792 326.36H208.692V327.8H205.712C204.938 327.8 204.345 327.987 203.932 328.36C203.518 328.733 203.312 329.213 203.312 329.8C203.312 330.387 203.518 330.86 203.932 331.22C204.345 331.58 204.938 331.76 205.712 331.76C206.165 331.76 206.598 331.68 207.012 331.52C207.425 331.347 207.765 331.067 208.032 330.68C208.312 330.28 208.465 329.733 208.492 329.04L209.012 329.8C208.945 330.56 208.758 331.2 208.452 331.72C208.158 332.227 207.745 332.613 207.212 332.88C206.692 333.147 206.058 333.28 205.312 333.28ZM213.856 333V322.32H215.376V326.9H215.136C215.136 325.847 215.276 324.96 215.556 324.24C215.849 323.507 216.289 322.953 216.876 322.58C217.462 322.193 218.202 322 219.096 322H219.176C220.522 322 221.516 322.42 222.156 323.26C222.809 324.1 223.136 325.313 223.136 326.9V333H221.216V326.5C221.216 325.673 220.982 325.013 220.516 324.52C220.049 324.013 219.409 323.76 218.596 323.76C217.756 323.76 217.076 324.02 216.556 324.54C216.036 325.06 215.776 325.753 215.776 326.62V333H213.856ZM230.689 337.16C230.195 337.16 229.695 337.14 229.189 337.1C228.695 337.06 228.222 337.007 227.769 336.94V335.32C228.249 335.387 228.749 335.44 229.269 335.48C229.802 335.533 230.302 335.56 230.769 335.56C231.742 335.56 232.515 335.427 233.089 335.16C233.675 334.907 234.095 334.5 234.349 333.94C234.615 333.393 234.749 332.687 234.749 331.82V329.78L235.389 328.26C235.349 329.34 235.122 330.24 234.709 330.96C234.295 331.667 233.755 332.2 233.089 332.56C232.435 332.907 231.709 333.08 230.909 333.08C230.162 333.08 229.475 332.94 228.849 332.66C228.235 332.367 227.702 331.967 227.249 331.46C226.809 330.953 226.462 330.373 226.209 329.72C225.969 329.053 225.849 328.353 225.849 327.62V327.26C225.849 326.513 225.975 325.82 226.229 325.18C226.482 324.527 226.835 323.96 227.289 323.48C227.742 323 228.282 322.627 228.909 322.36C229.549 322.093 230.249 321.96 231.009 321.96C231.902 321.96 232.689 322.153 233.369 322.54C234.049 322.913 234.582 323.467 234.969 324.2C235.369 324.92 235.589 325.807 235.629 326.86L235.069 326.88V322.32H236.589V331.74C236.589 333.02 236.389 334.053 235.989 334.84C235.602 335.64 234.975 336.227 234.109 336.6C233.255 336.973 232.115 337.16 230.689 337.16ZM231.269 331.32C231.909 331.32 232.489 331.18 233.009 330.9C233.542 330.62 233.962 330.22 234.269 329.7C234.589 329.167 234.749 328.533 234.749 327.8V326.88C234.749 326.16 234.582 325.553 234.249 325.06C233.929 324.567 233.509 324.193 232.989 323.94C232.469 323.687 231.902 323.56 231.289 323.56C230.595 323.56 229.982 323.72 229.449 324.04C228.915 324.36 228.502 324.813 228.209 325.4C227.915 325.973 227.769 326.653 227.769 327.44C227.769 328.227 227.915 328.913 228.209 329.5C228.515 330.087 228.929 330.54 229.449 330.86C229.982 331.167 230.589 331.32 231.269 331.32ZM244.685 333.36C243.751 333.36 242.945 333.2 242.265 332.88C241.585 332.56 241.031 332.14 240.605 331.62C240.178 331.087 239.858 330.493 239.645 329.84C239.445 329.187 239.345 328.52 239.345 327.84V327.48C239.345 326.787 239.445 326.113 239.645 325.46C239.858 324.807 240.178 324.22 240.605 323.7C241.031 323.167 241.571 322.747 242.225 322.44C242.891 322.12 243.671 321.96 244.565 321.96C245.725 321.96 246.678 322.213 247.425 322.72C248.185 323.213 248.745 323.853 249.105 324.64C249.478 325.427 249.665 326.267 249.665 327.16V328.02H240.185V326.58H248.265L247.825 327.36C247.825 326.6 247.705 325.947 247.465 325.4C247.225 324.84 246.865 324.407 246.385 324.1C245.905 323.793 245.298 323.64 244.565 323.64C243.805 323.64 243.171 323.813 242.665 324.16C242.171 324.507 241.798 324.98 241.545 325.58C241.305 326.18 241.185 326.873 241.185 327.66C241.185 328.42 241.305 329.107 241.545 329.72C241.798 330.32 242.185 330.8 242.705 331.16C243.225 331.507 243.885 331.68 244.685 331.68C245.525 331.68 246.205 331.493 246.725 331.12C247.258 330.747 247.578 330.313 247.685 329.82H249.485C249.338 330.553 249.045 331.187 248.605 331.72C248.165 332.253 247.611 332.66 246.945 332.94C246.278 333.22 245.525 333.36 244.685 333.36ZM256.222 337.16V335.44H257.762C258.215 335.44 258.595 335.38 258.902 335.26C259.222 335.153 259.482 334.967 259.682 334.7C259.895 334.433 260.068 334.08 260.202 333.64L263.562 322.32H265.442L261.882 334.14C261.668 334.847 261.368 335.42 260.982 335.86C260.595 336.313 260.122 336.64 259.562 336.84C259.015 337.053 258.375 337.16 257.642 337.16H256.222ZM259.482 332.76V331.16H261.802V332.76H259.482ZM259.282 332.76L255.462 322.32H257.422L261.082 332.76H259.282ZM272.604 333.36C271.67 333.36 270.85 333.2 270.144 332.88C269.437 332.56 268.837 332.14 268.344 331.62C267.864 331.087 267.497 330.493 267.244 329.84C267.004 329.187 266.884 328.52 266.884 327.84V327.48C266.884 326.8 267.01 326.133 267.264 325.48C267.517 324.813 267.89 324.22 268.384 323.7C268.877 323.167 269.477 322.747 270.184 322.44C270.89 322.12 271.697 321.96 272.604 321.96C273.51 321.96 274.317 322.12 275.024 322.44C275.73 322.747 276.33 323.167 276.824 323.7C277.317 324.22 277.69 324.813 277.944 325.48C278.197 326.133 278.324 326.8 278.324 327.48V327.84C278.324 328.52 278.197 329.187 277.944 329.84C277.704 330.493 277.337 331.087 276.844 331.62C276.364 332.14 275.77 332.56 275.064 332.88C274.357 333.2 273.537 333.36 272.604 333.36ZM272.604 331.64C273.404 331.64 274.084 331.467 274.644 331.12C275.217 330.76 275.65 330.28 275.944 329.68C276.25 329.08 276.404 328.407 276.404 327.66C276.404 326.9 276.25 326.22 275.944 325.62C275.637 325.02 275.197 324.547 274.624 324.2C274.064 323.853 273.39 323.68 272.604 323.68C271.83 323.68 271.157 323.853 270.584 324.2C270.01 324.547 269.57 325.02 269.264 325.62C268.957 326.22 268.804 326.9 268.804 327.66C268.804 328.407 268.95 329.08 269.244 329.68C269.55 330.28 269.984 330.76 270.544 331.12C271.117 331.467 271.804 331.64 272.604 331.64ZM284.899 333.32C283.633 333.32 282.659 332.907 281.979 332.08C281.299 331.253 280.959 330.06 280.959 328.5V322.3H282.879V328.88C282.879 329.72 283.106 330.38 283.559 330.86C284.013 331.327 284.626 331.56 285.399 331.56C286.199 331.56 286.853 331.307 287.359 330.8C287.866 330.28 288.119 329.573 288.119 328.68V322.3H290.039V333H288.519V328.42H288.759C288.759 329.473 288.619 330.367 288.339 331.1C288.059 331.82 287.639 332.373 287.079 332.76C286.533 333.133 285.833 333.32 284.979 333.32H284.899ZM293.758 333V322.32H295.278V326.72H295.198C295.198 325.16 295.538 324.02 296.218 323.3C296.911 322.567 297.945 322.2 299.318 322.2H299.678V323.92H298.998C297.931 323.92 297.111 324.207 296.538 324.78C295.965 325.34 295.678 326.153 295.678 327.22V333H293.758ZM310.972 333.36C310.212 333.36 309.512 333.22 308.872 332.94C308.232 332.66 307.672 332.267 307.192 331.76C306.725 331.253 306.359 330.667 306.092 330C305.839 329.333 305.712 328.613 305.712 327.84V327.48C305.712 326.72 305.839 326.007 306.092 325.34C306.345 324.673 306.699 324.087 307.152 323.58C307.619 323.073 308.165 322.68 308.792 322.4C309.432 322.107 310.139 321.96 310.912 321.96C311.725 321.96 312.465 322.133 313.132 322.48C313.799 322.813 314.345 323.34 314.772 324.06C315.199 324.78 315.439 325.713 315.492 326.86L314.692 325.58V318.4H316.612V333H315.092V328.26H315.652C315.599 329.473 315.345 330.46 314.892 331.22C314.439 331.967 313.865 332.513 313.172 332.86C312.492 333.193 311.759 333.36 310.972 333.36ZM311.232 331.68C311.885 331.68 312.479 331.533 313.012 331.24C313.545 330.947 313.972 330.527 314.292 329.98C314.612 329.42 314.772 328.767 314.772 328.02V327.1C314.772 326.367 314.605 325.747 314.272 325.24C313.952 324.72 313.519 324.327 312.972 324.06C312.439 323.78 311.852 323.64 311.212 323.64C310.505 323.64 309.879 323.807 309.332 324.14C308.799 324.473 308.379 324.94 308.072 325.54C307.779 326.14 307.632 326.847 307.632 327.66C307.632 328.473 307.785 329.187 308.092 329.8C308.399 330.4 308.825 330.867 309.372 331.2C309.919 331.52 310.539 331.68 311.232 331.68ZM324.841 333.36C323.908 333.36 323.101 333.2 322.421 332.88C321.741 332.56 321.188 332.14 320.761 331.62C320.334 331.087 320.014 330.493 319.801 329.84C319.601 329.187 319.501 328.52 319.501 327.84V327.48C319.501 326.787 319.601 326.113 319.801 325.46C320.014 324.807 320.334 324.22 320.761 323.7C321.188 323.167 321.728 322.747 322.381 322.44C323.048 322.12 323.828 321.96 324.721 321.96C325.881 321.96 326.834 322.213 327.581 322.72C328.341 323.213 328.901 323.853 329.261 324.64C329.634 325.427 329.821 326.267 329.821 327.16V328.02H320.341V326.58H328.421L327.981 327.36C327.981 326.6 327.861 325.947 327.621 325.4C327.381 324.84 327.021 324.407 326.541 324.1C326.061 323.793 325.454 323.64 324.721 323.64C323.961 323.64 323.328 323.813 322.821 324.16C322.328 324.507 321.954 324.98 321.701 325.58C321.461 326.18 321.341 326.873 321.341 327.66C321.341 328.42 321.461 329.107 321.701 329.72C321.954 330.32 322.341 330.8 322.861 331.16C323.381 331.507 324.041 331.68 324.841 331.68C325.681 331.68 326.361 331.493 326.881 331.12C327.414 330.747 327.734 330.313 327.841 329.82H329.641C329.494 330.553 329.201 331.187 328.761 331.72C328.321 332.253 327.768 332.66 327.101 332.94C326.434 333.22 325.681 333.36 324.841 333.36ZM336.047 333.32C334.647 333.32 333.56 333.02 332.787 332.42C332.027 331.82 331.634 331 331.607 329.96H333.407C333.434 330.373 333.64 330.767 334.027 331.14C334.427 331.5 335.1 331.68 336.047 331.68C336.9 331.68 337.554 331.513 338.007 331.18C338.46 330.833 338.687 330.413 338.687 329.92C338.687 329.48 338.52 329.14 338.187 328.9C337.854 328.647 337.314 328.48 336.567 328.4L335.407 328.28C334.394 328.173 333.567 327.873 332.927 327.38C332.287 326.873 331.967 326.167 331.967 325.26C331.967 324.58 332.14 324 332.487 323.52C332.834 323.027 333.314 322.653 333.927 322.4C334.54 322.133 335.247 322 336.047 322C337.247 322 338.22 322.267 338.967 322.8C339.714 323.333 340.1 324.127 340.127 325.18H338.327C338.314 324.753 338.114 324.393 337.727 324.1C337.354 323.793 336.794 323.64 336.047 323.64C335.3 323.64 334.734 323.793 334.347 324.1C333.96 324.407 333.767 324.793 333.767 325.26C333.767 325.66 333.9 325.98 334.167 326.22C334.447 326.46 334.9 326.613 335.527 326.68L336.687 326.8C337.834 326.92 338.754 327.24 339.447 327.76C340.14 328.267 340.487 328.987 340.487 329.92C340.487 330.587 340.294 331.18 339.907 331.7C339.534 332.207 339.014 332.607 338.347 332.9C337.68 333.18 336.914 333.32 336.047 333.32ZM343.79 333V322.32H345.71V333H343.79ZM342.15 323.84V322.32H345.71V323.84H342.15ZM344.33 320.6C343.903 320.6 343.583 320.487 343.37 320.26C343.17 320.033 343.07 319.747 343.07 319.4C343.07 319.053 343.17 318.767 343.37 318.54C343.583 318.313 343.903 318.2 344.33 318.2C344.756 318.2 345.07 318.313 345.27 318.54C345.483 318.767 345.59 319.053 345.59 319.4C345.59 319.747 345.483 320.033 345.27 320.26C345.07 320.487 344.756 320.6 344.33 320.6ZM349.422 333V322.32H350.942V326.72H350.862C350.862 325.16 351.202 324.02 351.882 323.3C352.575 322.567 353.609 322.2 354.982 322.2H355.342V323.92H354.662C353.595 323.92 352.775 324.207 352.202 324.78C351.629 325.34 351.342 326.153 351.342 327.22V333H349.422ZM364.046 333V329.8H363.726V326.1C363.726 325.367 363.533 324.813 363.146 324.44C362.773 324.067 362.219 323.88 361.486 323.88C361.073 323.88 360.646 323.887 360.206 323.9C359.766 323.913 359.346 323.927 358.946 323.94C358.546 323.953 358.199 323.973 357.906 324V322.32C358.199 322.293 358.506 322.273 358.826 322.26C359.159 322.233 359.499 322.22 359.846 322.22C360.193 322.207 360.526 322.2 360.846 322.2C361.939 322.2 362.833 322.333 363.526 322.6C364.219 322.853 364.733 323.273 365.066 323.86C365.399 324.447 365.566 325.24 365.566 326.24V333H364.046ZM360.546 333.28C359.746 333.28 359.053 333.147 358.466 332.88C357.893 332.6 357.446 332.2 357.126 331.68C356.819 331.16 356.666 330.533 356.666 329.8C356.666 329.04 356.833 328.407 357.166 327.9C357.513 327.393 358.013 327.013 358.666 326.76C359.319 326.493 360.106 326.36 361.026 326.36H363.926V327.8H360.946C360.173 327.8 359.579 327.987 359.166 328.36C358.753 328.733 358.546 329.213 358.546 329.8C358.546 330.387 358.753 330.86 359.166 331.22C359.579 331.58 360.173 331.76 360.946 331.76C361.399 331.76 361.833 331.68 362.246 331.52C362.659 331.347 362.999 331.067 363.266 330.68C363.546 330.28 363.699 329.733 363.726 329.04L364.246 329.8C364.179 330.56 363.993 331.2 363.686 331.72C363.393 332.227 362.979 332.613 362.446 332.88C361.926 333.147 361.293 333.28 360.546 333.28ZM374.73 333.36C373.85 333.36 373.063 333.167 372.37 332.78C371.69 332.393 371.15 331.833 370.75 331.1C370.35 330.353 370.13 329.46 370.09 328.42H370.61V333H369.09V318.4H371.01V325.5L370.33 326.96C370.383 325.8 370.617 324.853 371.03 324.12C371.443 323.387 371.983 322.847 372.65 322.5C373.33 322.14 374.077 321.96 374.89 321.96C375.65 321.96 376.343 322.107 376.97 322.4C377.597 322.68 378.137 323.073 378.59 323.58C379.043 324.073 379.39 324.653 379.63 325.32C379.87 325.973 379.99 326.68 379.99 327.44V327.8C379.99 328.56 379.863 329.273 379.61 329.94C379.37 330.607 379.017 331.2 378.55 331.72C378.083 332.227 377.523 332.627 376.87 332.92C376.23 333.213 375.517 333.36 374.73 333.36ZM374.51 331.68C375.23 331.68 375.857 331.507 376.39 331.16C376.923 330.813 377.337 330.34 377.63 329.74C377.923 329.127 378.07 328.42 378.07 327.62C378.07 326.82 377.917 326.12 377.61 325.52C377.317 324.92 376.903 324.46 376.37 324.14C375.837 323.807 375.217 323.64 374.51 323.64C373.87 323.64 373.277 323.787 372.73 324.08C372.183 324.36 371.743 324.773 371.41 325.32C371.09 325.853 370.93 326.5 370.93 327.26V328.18C370.93 328.913 371.097 329.54 371.43 330.06C371.763 330.58 372.203 330.98 372.75 331.26C373.297 331.54 373.883 331.68 374.51 331.68ZM382.999 333V318.4H384.919V333H382.999ZM381.519 319.92V318.4H384.919V319.92H381.519ZM393.142 333.36C392.208 333.36 391.402 333.2 390.722 332.88C390.042 332.56 389.488 332.14 389.062 331.62C388.635 331.087 388.315 330.493 388.102 329.84C387.902 329.187 387.802 328.52 387.802 327.84V327.48C387.802 326.787 387.902 326.113 388.102 325.46C388.315 324.807 388.635 324.22 389.062 323.7C389.488 323.167 390.028 322.747 390.682 322.44C391.348 322.12 392.128 321.96 393.022 321.96C394.182 321.96 395.135 322.213 395.882 322.72C396.642 323.213 397.202 323.853 397.562 324.64C397.935 325.427 398.122 326.267 398.122 327.16V328.02H388.642V326.58H396.722L396.282 327.36C396.282 326.6 396.162 325.947 395.922 325.4C395.682 324.84 395.322 324.407 394.842 324.1C394.362 323.793 393.755 323.64 393.022 323.64C392.262 323.64 391.628 323.813 391.122 324.16C390.628 324.507 390.255 324.98 390.002 325.58C389.762 326.18 389.642 326.873 389.642 327.66C389.642 328.42 389.762 329.107 390.002 329.72C390.255 330.32 390.642 330.8 391.162 331.16C391.682 331.507 392.342 331.68 393.142 331.68C393.982 331.68 394.662 331.493 395.182 331.12C395.715 330.747 396.035 330.313 396.142 329.82H397.942C397.795 330.553 397.502 331.187 397.062 331.72C396.622 332.253 396.068 332.66 395.402 332.94C394.735 333.22 393.982 333.36 393.142 333.36ZM405.519 333V318.4H407.439V333H405.519ZM404.039 319.92V318.4H407.439V319.92H404.039ZM411.641 333V322.32H413.561V333H411.641ZM410.001 323.84V322.32H413.561V323.84H410.001ZM412.181 320.6C411.755 320.6 411.435 320.487 411.221 320.26C411.021 320.033 410.921 319.747 410.921 319.4C410.921 319.053 411.021 318.767 411.221 318.54C411.435 318.313 411.755 318.2 412.181 318.2C412.608 318.2 412.921 318.313 413.121 318.54C413.335 318.767 413.441 319.053 413.441 319.4C413.441 319.747 413.335 320.033 413.121 320.26C412.921 320.487 412.608 320.6 412.181 320.6ZM417.554 333V321.78C417.554 320.593 417.867 319.72 418.494 319.16C419.12 318.6 420.04 318.32 421.254 318.32H422.574V319.92H420.934C420.44 319.92 420.06 320.06 419.794 320.34C419.527 320.607 419.394 320.98 419.394 321.46V333H417.554ZM416.074 323.88V322.44H422.774V323.88H416.074ZM429.314 333.36C428.38 333.36 427.574 333.2 426.894 332.88C426.214 332.56 425.66 332.14 425.234 331.62C424.807 331.087 424.487 330.493 424.274 329.84C424.074 329.187 423.974 328.52 423.974 327.84V327.48C423.974 326.787 424.074 326.113 424.274 325.46C424.487 324.807 424.807 324.22 425.234 323.7C425.66 323.167 426.2 322.747 426.854 322.44C427.52 322.12 428.3 321.96 429.194 321.96C430.354 321.96 431.307 322.213 432.054 322.72C432.814 323.213 433.374 323.853 433.734 324.64C434.107 325.427 434.294 326.267 434.294 327.16V328.02H424.814V326.58H432.894L432.454 327.36C432.454 326.6 432.334 325.947 432.094 325.4C431.854 324.84 431.494 324.407 431.014 324.1C430.534 323.793 429.927 323.64 429.194 323.64C428.434 323.64 427.8 323.813 427.294 324.16C426.8 324.507 426.427 324.98 426.174 325.58C425.934 326.18 425.814 326.873 425.814 327.66C425.814 328.42 425.934 329.107 426.174 329.72C426.427 330.32 426.814 330.8 427.334 331.16C427.854 331.507 428.514 331.68 429.314 331.68C430.154 331.68 430.834 331.493 431.354 331.12C431.887 330.747 432.207 330.313 432.314 329.82H434.114C433.967 330.553 433.674 331.187 433.234 331.72C432.794 332.253 432.24 332.66 431.574 332.94C430.907 333.22 430.154 333.36 429.314 333.36Z" fill="#B8B7B7"/>
<g filter="url(#filter0_f_224_46)">
<ellipse cx="330" cy="18.5" rx="193" ry="100.5" fill="#755192"/>
</g>
<g filter="url(#filter1_f_224_46)">
<ellipse cx="596.5" cy="-16.5" rx="87.5" ry="127.5" fill="#3A5960"/>
</g>
<g filter="url(#filter2_f_224_46)">
<ellipse cx="86.5" cy="453" rx="136.5" ry="120" fill="#865FB8"/>
</g>
<path d="M265.285 129.283C264.646 128.833 264.738 128.087 264.738 128.087L268.274 88.9332C268.274 88.9332 268.33 88.502 268.536 88.2814C268.666 88.1436 268.83 87.943 269.14 87.8252C272.696 86.4716 292.028 76.7251 301.767 85.7998C303.381 87.5401 305.133 90.1088 305.133 92.0665V125.204C305.133 125.204 305.174 125.907 304.491 126.333C304.33 126.433 303.656 126.719 302.861 126.349C287.878 119.372 271.141 127.318 266.918 129.401C266.071 129.819 265.411 129.373 265.285 129.283ZM350.081 129.401C345.858 127.318 329.121 119.372 314.138 126.349C313.343 126.719 312.669 126.433 312.508 126.333C311.825 125.907 311.867 125.204 311.867 125.204V92.0665C311.867 90.1088 313.619 87.5401 315.233 85.7998C324.972 76.7251 344.181 86.471 347.737 87.8252C348.047 87.943 348.211 88.1436 348.341 88.2814C348.547 88.502 348.602 88.9332 348.602 88.9332L352.262 128.087C352.262 128.087 352.353 128.833 351.715 129.283C351.589 129.373 350.929 129.819 350.081 129.401ZM317.689 146.501C317.926 146.447 318.338 146.223 318.483 146.015C318.642 145.787 318.737 145.628 318.768 145.333C319.101 139.456 329.706 133.979 350.062 145.146C350.584 145.423 351.184 145.395 351.695 145.049C352.276 144.656 352.267 143.991 352.267 143.991V140.518C352.267 140.518 352.269 140.04 352.083 139.777C351.945 139.581 351.763 139.374 351.46 139.239C337.822 131.001 320.582 127.35 311.832 138.241C311.71 138.506 311.594 138.625 311.341 138.808C310.96 139.084 310.496 139.066 310.496 139.066H306.553C306.553 139.066 306.089 139.084 305.708 138.808C305.455 138.625 305.339 138.506 305.217 138.241C296.467 127.35 279.227 130.829 265.589 139.066C265.286 139.201 265.104 139.409 264.966 139.604C264.78 139.867 264.782 140.346 264.782 140.346V143.819C264.782 143.819 264.773 144.484 265.354 144.877C265.865 145.222 266.465 145.25 266.987 144.974C287.343 133.806 297.948 139.456 298.281 145.333C298.312 145.628 298.407 145.787 298.566 146.015C298.711 146.223 299.123 146.447 299.36 146.501C304.221 147.624 311.269 148.067 317.689 146.501Z" fill="#DDDDDD"/>
<g filter="url(#filter3_f_224_46)">
<ellipse cx="583.5" cy="453" rx="136.5" ry="120" fill="#6A394B"/>
</g>
</g>
<defs>
<filter id="filter0_f_224_46" x="-113" y="-332" width="886" height="701" filterUnits="userSpaceOnUse" color-interpolation-filters="sRGB">
<feFlood flood-opacity="0" result="BackgroundImageFix"/>
<feBlend mode="normal" in="SourceGraphic" in2="BackgroundImageFix" result="shape"/>
<feGaussianBlur stdDeviation="125" result="effect1_foregroundBlur_224_46"/>
</filter>
<filter id="filter1_f_224_46" x="259" y="-394" width="675" height="755" filterUnits="userSpaceOnUse" color-interpolation-filters="sRGB">
<feFlood flood-opacity="0" result="BackgroundImageFix"/>
<feBlend mode="normal" in="SourceGraphic" in2="BackgroundImageFix" result="shape"/>
<feGaussianBlur stdDeviation="125" result="effect1_foregroundBlur_224_46"/>
</filter>
<filter id="filter2_f_224_46" x="-300" y="83" width="773" height="740" filterUnits="userSpaceOnUse" color-interpolation-filters="sRGB">
<feFlood flood-opacity="0" result="BackgroundImageFix"/>
<feBlend mode="normal" in="SourceGraphic" in2="BackgroundImageFix" result="shape"/>
<feGaussianBlur stdDeviation="125" result="effect1_foregroundBlur_224_46"/>
</filter>
<filter id="filter3_f_224_46" x="197" y="83" width="773" height="740" filterUnits="userSpaceOnUse" color-interpolation-filters="sRGB">
<feFlood flood-opacity="0" result="BackgroundImageFix"/>
<feBlend mode="normal" in="SourceGraphic" in2="BackgroundImageFix" result="shape"/>
<feGaussianBlur stdDeviation="125" result="effect1_foregroundBlur_224_46"/>
</filter>
<linearGradient id="paint0_linear_224_46" x1="320.5" y1="157" x2="320.5" y2="239" gradientUnits="userSpaceOnUse">
<stop stop-color="white"/>
<stop offset="1" stop-color="#FFFAFA"/>
</linearGradient>
<clipPath id="clip0_224_46">
<rect width="616" height="440" rx="11" fill="white"/>
</clipPath>
</defs>
</svg>
